<svg xmlns="http://www.w3.org/2000/svg" viewBox="0 0 64 64"><defs><style>.cls-1{fill:none;}.cls-2{fill:#304885;}</style></defs><title>Police</title><g id="Layer_2" data-name="Layer 2"><g id="Layer_1-2" data-name="Layer 1"><rect class="cls-1" width="64" height="64"/><rect class="cls-2" x="26.19" y="14.61" width="11.59" height="11.59" transform="translate(-0.03 0.05) rotate(-0.08)"/><rect class="cls-2" x="37.8" y="26.19" width="11.59" height="11.59" transform="matrix(1, 0, 0, 1, -0.05, 0.06)"/><rect class="cls-2" x="49.4" y="37.76" width="11.59" height="11.59" transform="matrix(1, 0, 0, 1, -0.06, 0.08)"/><rect class="cls-2" x="26.22" y="37.8" width="11.59" height="11.59" transform="matrix(1, 0, 0, 1, -0.06, 0.05)"/><rect class="cls-2" x="49.37" y="14.58" width="11.59" height="11.59" transform="matrix(1, 0, 0, 1, -0.03, 0.08)"/><rect class="cls-2" x="3.01" y="14.65" width="11.59" height="11.59" transform="translate(-0.03 0.01) rotate(-0.08)"/><rect class="cls-2" x="14.61" y="26.22" width="11.59" height="11.59" transform="matrix(1, 0, 0, 1, -0.05, 0.03)"/><rect class="cls-2" x="3.04" y="37.83" width="11.59" height="11.59" transform="matrix(1, 0, 0, 1, -0.06, 0.01)"/></g></g></svg>