<?xml version="1.0" encoding="utf-8"?>
<!-- Generator: Adobe Illustrator 22.1.0, SVG Export Plug-In . SVG Version: 6.00 Build 0)  -->
<svg version="1.1" id="Layer_1" xmlns="http://www.w3.org/2000/svg" xmlns:xlink="http://www.w3.org/1999/xlink" x="0px" y="0px"
	 viewBox="0 0 800 57" style="enable-background:new 0 0 800 57;" xml:space="preserve">
<style type="text/css">
	.st0{fill:#1D2B39;}
	.st1{fill:#EC1C3B;}
	.st2{fill:#FFFFFF;}
	.st3{clip-path:url(#SVGID_2_);}
	.st4{clip-path:url(#SVGID_4_);fill:#4285F4;}
	.st5{clip-path:url(#SVGID_4_);fill:#EA4335;}
	.st6{clip-path:url(#SVGID_4_);fill:#FBBC05;}
	.st7{clip-path:url(#SVGID_4_);fill:#34A853;}
	.st8{fill:none;}
	.st9{fill:#81848A;}
	.st10{fill:#EF3829;}
	.st11{fill:#231F20;}
	.st12{fill:#5A7EBE;}
</style>
<g>
	<path class="st0" d="M362.7,25.4c-1,0-1.8,0.3-2.6,0.7v7.7c0,0.2-0.2,0.4-0.4,0.4h-1.8c-0.2,0-0.4-0.2-0.4-0.4v-9.9
		c0-0.2,0.2-0.4,0.4-0.4h1.8c0.2,0,0.4,0.2,0.4,0.4v0.4c0.9-0.7,1.9-0.9,2.6-0.9c0.2,0,0.4,0.2,0.4,0.4V25
		C363.1,25.3,362.9,25.4,362.7,25.4 M372.1,29.5h-6v0.1c0,1,0.4,2.3,2.1,2.3c1.3,0,2.5-0.1,3.3-0.2h0.2c0.2,0,0.3,0.1,0.3,0.3v1.2
		c0,0.3-0.1,0.4-0.4,0.5c-1.2,0.2-1.9,0.3-3.6,0.3c-1.9,0-4.5-1-4.5-4.7v-1.2c0-2.9,1.6-4.8,4.5-4.8c2.9,0,4.5,2,4.5,4.8v1
		C372.5,29.4,372.4,29.6,372.1,29.5 M370,27.8c0-1.5-0.8-2.3-2-2.3s-2,0.8-2,2.3v-0.4h3.9L370,27.8L370,27.8z M381.1,33.8h-1.3
		c-0.2,0-0.4-0.2-0.4-0.4v-0.3c-0.9,0.5-1.8,0.8-2.7,0.8c-1.6,0-3.3-0.6-3.3-3.1V31c0-2.1,1.3-3.2,4.4-3.2h1.1V27
		c0-1.2-0.5-1.5-1.6-1.5c-1.2,0-2.4,0.1-3,0.1h-0.2c-0.2,0-0.3-0.1-0.3-0.3v-1.2c0-0.2,0.1-0.3,0.4-0.4c0.8-0.2,1.9-0.3,3.2-0.3
		c2.7,0,4.2,1.2,4.2,3.6v6.6c0,0.2-0.2,0.4-0.4,0.4 M378.9,29.5h-1.2c-1.8,0-2.2,0.5-2.2,1.6v0.1c0,0.9,0.4,1.2,1.4,1.2
		c0.7,0,1.4-0.2,2-0.5V29.5z M384.9,33.8h-1.7c-0.2,0-0.4-0.2-0.4-0.4V20c0-0.2,0.2-0.4,0.4-0.4h1.8c0.2,0,0.4,0.2,0.4,0.4v13.4
		C385.4,33.6,385.2,33.8,384.9,33.8 M394.8,29.5h-6v0.1c0,1,0.4,2.3,2.1,2.3c1.3,0,2.5-0.1,3.3-0.2h0.2c0.2,0,0.3,0.1,0.3,0.3v1.2
		c0,0.3-0.1,0.4-0.4,0.5c-1.2,0.2-2,0.3-3.6,0.3c-1.9,0-4.5-1-4.5-4.7v-1.2c0-2.9,1.6-4.8,4.5-4.8c2.9,0,4.5,2,4.5,4.8v1
		C395.2,29.4,395.1,29.6,394.8,29.5 M392.6,27.7c0-1.5-0.8-2.3-1.9-2.3c-1.1,0-1.9,0.8-1.9,2.3v0.1L392.6,27.7L392.6,27.7z
		 M399.9,34.3c-0.8,0-2.4-0.1-3.4-0.4c-0.2-0.1-0.4-0.2-0.4-0.4v-1.1c0-0.2,0.1-0.3,0.3-0.3h0.1c0.9,0.1,2.6,0.2,3.2,0.2
		c1.2,0,1.4-0.4,1.4-0.9c0-0.4-0.2-0.6-0.8-1l-2.6-1.6c-0.9-0.6-1.6-1.5-1.6-2.6c0-1.9,1.2-2.8,3.6-2.8c1.5,0,2.4,0.2,3.4,0.4
		c0.2,0.1,0.3,0.2,0.3,0.4v1.1c0,0.2-0.1,0.4-0.3,0.4H403c-0.5-0.1-2.1-0.2-3.2-0.2c-0.9,0-1.3,0.2-1.3,0.8c0,0.3,0.3,0.5,0.8,0.8
		l2.5,1.5c1.6,1,1.8,1.9,1.8,2.9C403.6,33,402.4,34.3,399.9,34.3 M410.2,34c-0.4,0.1-0.9,0.1-1.3,0.1c-2.1,0-3-0.5-3-3v-5.8
		l-1.8-0.3c-0.2,0-0.4-0.2-0.4-0.4v-0.8c0-0.2,0.2-0.4,0.4-0.4h1.8v-2.4c0-0.2,0.2-0.3,0.4-0.4l1.8-0.3h0.1c0.2,0,0.3,0.1,0.3,0.3
		v2.7h1.8c0.2,0,0.4,0.2,0.4,0.4v1c0,0.2-0.2,0.4-0.4,0.4h-1.8v5.8c0,0.9,0.1,1,0.7,1h1c0.2,0,0.4,0.1,0.4,0.3v1.3
		c0,0.2-0.1,0.3-0.4,0.3 M419.2,33.8h-1.8c-0.2,0-0.4-0.2-0.4-0.4v-0.3c-0.9,0.5-1.8,0.8-2.7,0.8c-1.6,0-3.3-0.6-3.3-3.1V31
		c0-2.1,1.4-3.2,4.8-3.2h1.2V27c0-1.2-0.6-1.5-1.7-1.5c-1.2,0-2.5,0.1-3.2,0.1h0.1c-0.2,0-0.3-0.1-0.3-0.3v-1.2
		c0-0.2,0.1-0.3,0.4-0.4c0.8-0.2,1.9-0.3,3.2-0.3c2.7,0,4.2,1.2,4.2,3.6v6.6c0,0.2-0.2,0.4-0.4,0.4 M417.1,29.5h-1.2
		c-1.8,0-2.2,0.5-2.2,1.6v0.1c0,0.9,0.4,1.2,1.4,1.2c0.7,0,1.4-0.2,2-0.5V29.5z M426,34c-0.5,0.1-0.9,0.1-1.3,0.1c-2.1,0-3-0.5-3-3
		v-5.8l-1.8-0.3c-0.2,0-0.4-0.2-0.4-0.4v-0.8c0-0.2,0.2-0.4,0.4-0.4h1.8v-2.4c0-0.2,0.2-0.3,0.4-0.4l1.8-0.3h0.1
		c0.2,0,0.3,0.1,0.3,0.3v2.7h1.8c0.2,0,0.4,0.2,0.4,0.4v1c0,0.2-0.2,0.4-0.4,0.4h-1.8v5.8c0,0.9,0.1,1,0.7,1h1
		c0.2,0,0.4,0.1,0.4,0.3v1.3c0,0.2-0.1,0.3-0.4,0.3 M435.9,29.5h-6.4v0.1c0,1,0.4,2.3,2.1,2.3c1.3,0,2.5-0.1,3.3-0.2h0.7
		c0.2,0,0.3,0.1,0.3,0.3v1.2c0,0.3-0.1,0.4-0.4,0.5c-1.2,0.2-1.9,0.3-3.6,0.3c-1.9,0-4.5-1-4.5-4.7v-1.2c0-2.9,1.6-4.8,4.5-4.8
		c2.9,0,4.5,2,4.5,4.8v1C436.4,29.4,436.2,29.6,435.9,29.5 M433.7,27.8c0-1.5-0.8-2.3-2-2.3c-1.2,0-2,0.8-1.8,2.3v-0.4h3.9v0.4
		H433.7z M438.9,34.2h-1.8c-0.2,0-0.4-0.2-0.4-0.4v-2.3c0-0.2,0.2-0.4,0.4-0.4h1.8c0.2,0,0.4,0.2,0.4,0.4v2.2
		C439.4,34.1,439.2,34.2,438.9,34.2 M446.9,33.9c-0.4,0.1-1.3,0.2-2.4,0.2c-2.4,0-4.3-1.5-4.3-4.5v-1.8c0-3,1.8-4.4,4.1-4.4
		c1.1,0,1.9,0.1,2.3,0.2c0.3,0.1,0.4,0.2,0.4,0.5v1.3c0,0.2-0.2,0.3-0.3,0.3h-0.1c-0.8-0.1-1.2-0.1-2.5-0.1c-0.9,0-1.8,0.5-1.8,2.5
		v1.8c0,2,0.9,2.5,1.8,2.5c1.2,0,1.7,0,2.5-0.1h0.1c0.2,0,0.3,0.1,0.3,0.3v1.1c0,0.3-0.1,0.4-0.4,0.5 M452.4,34.2
		c-3,0-4.5-2-4.5-4.7V28c0-2.7,1.5-4.7,4.5-4.7c3,0,4.5,2,4.5,4.7v1.5C456.9,32.2,455.4,34.2,452.4,34.2 M454.4,28
		c0-1.5-0.7-2.4-1.9-2.4c-1.3,0-1.9,1-1.9,2.4v1.5c0,1.5,0.7,2.4,1.9,2.4c1.3,0,1.9-1,1.9-2.4V28z M471.1,33.8h-1.8
		c0,0-0.4,0-0.3-0.2v-6.4c0-1.4-0.3-1.8-1.4-1.8c-0.4,0-1.1,0.1-1.7,0.5c0.1,0.4,0.1,0.9,0.1,1.4v6.4c-0.1,0.2-0.4,0.6-0.4,0.6h-1.8
		c-0.2,0-0.4-0.2-0.4-0.4v-6.4c0-1.4-0.2-1.8-1.3-1.8c-0.4,0-1,0.2-1.7,0.6v7.6c0,0.2-0.2,0.4-0.4,0.4h-1.8c-0.2,0-0.4-0.2-0.4-0.4
		v-9.9c0-0.2,0.2-0.4,0.4-0.4h1.8c0.2,0,0.4,0.2,0.4,0.4v0.4c0.8-0.5,1.6-0.9,2.7-0.9c1.1,0,1.8,0.3,2.2,0.8c1-0.5,1.8-0.8,3.1-0.8
		c2.6,0,3.1,1.7,3.1,3.9v6.3c0,0.2-0.2,0.4-0.4,0.4 M474.5,34.2h-1.8c-0.2,0-0.4-0.2-0.4-0.4v-2.2c0-0.2,0.2-0.4,0.4-0.4h1.8
		c0.2,0,0.4,0.2,0.4,0.4v2.2C474.9,34.1,474.7,34.2,474.5,34.2 M483.5,33.8h-1.3c-0.2,0-0.4-0.2-0.4-0.4v-0.3
		c-0.9,0.5-1.8,0.8-2.7,0.8c-1.6,0-3.3-0.6-3.3-3.1V31c0-2.1,1.3-3.2,4.4-3.2h1.1V27c0-1.2-0.5-1.5-1.6-1.5c-1.2,0-2.4,0.1-3,0.1
		h-0.2c-0.2,0-0.3-0.1-0.3-0.3v-1.2c0-0.2,0.1-0.3,0.4-0.4c0.8-0.2,1.9-0.3,3.2-0.3c2.7,0,4.2,1.2,4.2,3.6v6.6
		c0,0.2-0.2,0.4-0.4,0.4 M481.4,29.5h-1.2c-1.8,0-2.2,0.5-2.2,1.6v0.1c0,0.9,0.4,1.2,1.4,1.2c0.7,0,1.4-0.2,2-0.5V29.5z M493.4,34.2
		h-1.8c-0.2,0-0.4-0.2-0.4-0.4v-0.4c-0.9,0.6-1.7,0.9-2.9,0.9c-0.9,0-1.7-0.2-2.2-0.8c-0.7-0.7-0.9-1.9-0.9-3.5v-6.2
		c0-0.2,0.2-0.4,0.4-0.4h1.4c0.2,0,0.4,0.2,0.4,0.4V30c0,0.9,0.1,1.5,0.4,1.8c0.3,0.2,0.6,0.3,1.2,0.3c0.7,0,1.6-0.5,2.2-0.7v-7.5
		c0-0.2,0.2-0.4,0.4-0.4h1.8c0.2,0,0.4,0.2,0.4,0.4v9.7c0,0.2-0.2,0.4-0.4,0.4"/>
	<path class="st1" d="M322.8,29.3c0,8.3,6.7,15.1,15,15.1c8.3,0,15.1-6.7,15.1-15c0-8.3-6.7-15.1-15-15.1h-0.1
		C329.6,14.4,322.8,21.1,322.8,29.3"/>
	<path class="st2" d="M347.6,27.2v0.2l-8.9-8.8c-0.2-0.2-0.6-0.4-0.9-0.4h0c-0.4,0-0.7,0.2-0.9,0.4l-8.9,8.8l0,0
		c-0.3,0.3-0.6,0.8-0.6,1.3c0,1,0.9,1.9,1.9,1.9l1.2,0c0,0,0,6.8,0,6.9c0,0.7,0.6,1.3,1.3,1.3h12.1c0.7,0,1.3-0.6,1.3-1.3
		c0,0,0-6.9,0-6.9l1.2,0c1.1,0,1.9-0.9,1.9-1.9c0-0.5-0.2-1-0.6-1.4 M342.9,28.1v8.1h-9.9v-8.1h-2.6l7.5-7.6l7.5,7.6H342.9z"/>
</g>
<g>
	<g>
		<defs>
			<rect id="SVGID_1_" x="205" y="14" width="99" height="36"/>
		</defs>
		<clipPath id="SVGID_2_">
			<use xlink:href="#SVGID_1_"  style="overflow:visible;"/>
		</clipPath>
		<g class="st3">
			<defs>
				<rect id="SVGID_3_" x="205" y="14" width="99" height="36"/>
			</defs>
			<clipPath id="SVGID_4_">
				<use xlink:href="#SVGID_3_"  style="overflow:visible;"/>
			</clipPath>
			<path class="st4" d="M217.2,36.9c-6.1,0-11.2-5-11.2-11.1c0-6.1,5.1-11.1,11.2-11.1c3.4,0,5.8,1.3,7.6,3l-2.1,2.1
				c-1.3-1.2-3.1-2.2-5.5-2.2c-4.5,0-7.9,3.6-7.9,8s3.5,8,7.9,8c2.9,0,4.5-1.2,5.6-2.2c0.9-0.9,1.4-2.1,1.6-3.8h-7.2v-3h10.2
				c0.1,0.5,0.2,1.2,0.2,1.9c0,2.3-0.6,5.1-2.6,7.1C222.9,35.9,220.5,36.9,217.2,36.9"/>
			<path class="st5" d="M243.6,29.8c0,4.1-3.2,7.1-7.1,7.1c-3.9,0-7.1-3-7.1-7.1c0-4.1,3.2-7.1,7.1-7.1
				C240.4,22.7,243.6,25.7,243.6,29.8 M240.5,29.8c0-2.6-1.8-4.3-4-4.3c-2.1,0-4,1.8-4,4.3c0,2.5,1.8,4.3,4,4.3
				C238.6,34.1,240.5,32.3,240.5,29.8"/>
			<path class="st6" d="M259.3,29.8c0,4.1-3.2,7.1-7.1,7.1c-3.9,0-7.1-3-7.1-7.1c0-4.1,3.2-7.1,7.1-7.1
				C256.2,22.7,259.3,25.7,259.3,29.8 M256.2,29.8c0-2.6-1.8-4.3-4-4.3c-2.1,0-4,1.8-4,4.3c0,2.5,1.8,4.3,4,4.3
				C254.4,34.1,256.2,32.3,256.2,29.8"/>
			<path class="st4" d="M274.7,23.1v12.8c0,5.3-3.1,7.4-6.8,7.4c-3.5,0-5.5-2.3-6.3-4.2l2.7-1.1c0.5,1.2,1.7,2.5,3.6,2.5
				c2.3,0,3.8-1.5,3.8-4.2v-1h-0.1c-0.7,0.9-2,1.6-3.8,1.6c-3.6,0-6.8-3.1-6.8-7.1c0-4,3.3-7.2,6.8-7.2c1.7,0,3.1,0.8,3.8,1.6h0.1
				v-1.2H274.7z M272,29.8c0-2.5-1.7-4.3-3.8-4.3c-2.2,0-4,1.8-4,4.3c0,2.5,1.8,4.3,4,4.3C270.3,34.1,272,32.3,272,29.8"/>
			<rect x="277.9" y="15.6" class="st7" width="3.1" height="20.9"/>
			<path class="st5" d="M294.4,32.2l2.4,1.6c-0.8,1.2-2.7,3.2-5.9,3.2c-4,0-7.1-3.1-7.1-7.1c0-4.2,3.1-7.1,6.7-7.1
				c3.7,0,5.5,2.9,6.1,4.5l0.3,0.8l-9.5,3.9c0.7,1.4,1.9,2.2,3.5,2.2C292.4,34.1,293.5,33.3,294.4,32.2 M286.9,29.6l6.4-2.6
				c-0.4-0.9-1.4-1.5-2.6-1.5C289,25.4,286.8,26.8,286.9,29.6"/>
		</g>
	</g>
</g>
<g>
	<g>
		<defs>
			<rect id="SVGID_5_" x="109" y="-8" width="133" height="94"/>
		</defs>
		<clipPath id="SVGID_6_">
			<use xlink:href="#SVGID_5_"  style="overflow:visible;"/>
		</clipPath>
	</g>
</g>
<g>
	<rect x="18" y="-1.2" class="st8" width="179" height="57.2"/>
	<path class="st9" d="M55.8,35.6c0,0-4.8,2.1-11-1.4c-6.2-3.5-6,2.8-4.7,4.3c1.5,1.8,3.7,3.2,7.6,2.4C51.8,40.3,55.8,35.6,55.8,35.6
		z"/>
	<g>
		<path class="st10" d="M104.2,28.8l-3.8-7.1h3.2l2.3,4.9l2.4-4.9h3.2l-3.9,7.1l4,7.7h-3.2l-2.6-5.5l-2.6,5.5h-3.2L104.2,28.8z"/>
		<path class="st10" d="M37.3,19.1c0,0,4.8-2.1,11,1.4c6.2,3.5,6-2.8,4.7-4.3c-1.5-1.8-3.7-3.2-7.6-2.4
			C41.4,14.5,37.3,19.1,37.3,19.1z"/>
		<path class="st10" d="M54.7,18.1c0,0,2.1,4.8-1.4,11c-3.5,6.2,2.8,6,4.3,4.7c1.8-1.5,3.2-3.7,2.4-7.6
			C59.3,22.2,54.7,18.1,54.7,18.1z"/>
	</g>
	<g>
		<path class="st11" d="M65.7,16.8h3.1v19.6h-3.1V16.8z"/>
		<path class="st11" d="M70.8,21.6h2.8v1.7h0.1c0.7-1.3,2.1-2.1,3.8-2.1c2.3,0,3.7,1,3.7,4v11.2h-3V26.3c0-1.9-0.6-2.7-2.1-2.7
			c-1.2,0-2.4,1-2.4,2.9v9.9h-3V21.6z"/>
		<path class="st11" d="M83.9,23.8h-2.1v-2.2h2.1v-1.4c0-2.8,1.3-3.7,3.8-3.7c0.6,0,1.2,0,1.6,0.1v2.3h-0.8c-1.1,0-1.6,0.4-1.6,1.4
			v1.3h2.4v2.2h-2.4v12.6h-3V23.8z"/>
		<path class="st11" d="M94.7,21.2c4.3,0,5.5,3.2,5.5,7.8c0,4.6-1.4,7.8-5.5,7.8c-4.1,0-5.5-3.2-5.5-7.8
			C89.1,24.4,90.4,21.2,94.7,21.2z M94.7,34.6c2.2,0,2.6-1.8,2.6-5.6c0-3.3-0.4-5.6-2.6-5.6c-2.1,0-2.5,2.3-2.5,5.6
			C92.1,32.8,92.5,34.6,94.7,34.6z"/>
	</g>
	<path class="st11" d="M122.2,31c-0.2,3.5-1.4,5.8-5.1,5.8c-4.3,0-5.5-3.2-5.5-7.8c0-4.6,1.2-7.8,5.5-7.8c4.4-0.1,5.1,3.5,5.1,5.3
		h-3c0-1.4-0.4-3.2-2.1-3.1c-2.1,0-2.5,2.3-2.5,5.6c0,3.3,0.4,5.6,2.5,5.6c1.7,0,2.3-1.3,2.3-3.6H122.2z"/>
	<path class="st11" d="M123.3,16.8h3v6.4l0.1,0.1c0.8-1.3,2.1-2,3.6-2c2.3,0,3.7,1,3.7,4v11.2h-3V26.3c0-1.9-0.6-2.7-2.1-2.7
		c-1.2,0-2.4,1-2.4,2.9v9.9h-3V16.8z"/>
	<path class="st11" d="M145.3,33.3c0,0.6,0.3,1,0.8,1c0.2,0,0.4,0,0.5-0.1v1.9c-0.4,0.2-0.9,0.4-1.5,0.4c-1.3,0-2.4-0.5-2.5-2h-0.1
		c-0.8,1.5-2,2.2-3.7,2.2c-2.4,0-3.9-1.3-3.9-4.2c0-3.3,1.4-4,3.4-4.6l2.3-0.6c1.1-0.3,1.7-0.6,1.7-1.9c0-1.3-0.5-2.2-2-2.2
		c-2,0-2.3,1.4-2.3,2.8h-2.8c0-3.1,1.3-4.9,5.2-4.9c2.6,0,4.7,1,4.7,3.6V33.3z M142.5,28.6c-0.8,0.6-2.4,1-3.3,1.4
		c-0.9,0.4-1.2,1.3-1.2,2.4c0,1.2,0.6,2.2,1.8,2.2c1.8,0,2.7-1.3,2.7-3.5V28.6z"/>
	<path class="st11" d="M147.4,21.6h2.8v1.7h0.1c0.7-1.3,2.1-2.1,3.8-2.1c2.3,0,3.7,1,3.7,4v11.2h-3V26.3c0-1.9-0.6-2.7-2.1-2.7
		c-1.2,0-2.4,1-2.4,2.9v9.9h-3V21.6z"/>
	<path class="st11" d="M162.6,37.7c0,0.9,0.8,1.8,2.1,1.8c1.5,0,2.5-1.1,2.5-2.8v-2.4h-0.1c-0.6,1.3-1.9,2-3.4,2
		c-3.5,0-4.4-3.4-4.4-7.5c0-3.2,0.5-7.6,4.7-7.6c1.7,0,3,1.1,3.2,2.2h0.1v-1.8h2.8v14.1c0,3.6-1.5,5.8-5.5,5.8
		c-4.4,0-4.9-2.6-4.9-3.8H162.6z M164.7,34c2.3,0,2.6-2.9,2.6-5.3c0-2.4-0.3-5.1-2.4-5.1c-2.1,0-2.5,2.2-2.5,5
		C162.4,31.1,162.5,34,164.7,34z"/>
	<path class="st11" d="M174.5,29.4v0.9c0,2,0.2,4.5,2.5,4.5c2.1,0,2.4-2.4,2.4-3.3h2.8c0,3.3-2,5.3-5.2,5.3c-2.4,0-5.4-0.7-5.4-7.6
		c0-3.9,0.8-8,5.5-8c4.1,0,5.2,2.5,5.2,6.6v1.6H174.5z M179.2,27.4v-0.8c0-1.9-0.6-3.3-2.3-3.3c-1.9,0-2.5,1.9-2.5,3.8v0.3H179.2z"
		/>
	<path class="st11" d="M38.3,36.3c0,0-2.1-4.8,1.4-11c3.5-6.2-2.8-6-4.3-4.7c-1.8,1.5-3.2,3.7-2.4,7.6
		C33.7,32.2,38.3,36.3,38.3,36.3z"/>
</g>
<path d="M611.8,34c-0.4,0-0.6-0.6-0.1-1.1c1.4-1,2-1.4,2.1-1.4C614.7,31.5,613,34,611.8,34 M659.3,28.9c-0.8-0.7-1.8-0.5-1.8-0.5
	s0.1,0.2-0.5,0.8c-0.1,0.1-0.2,0.2-0.2,0.2c-2.7,2.2-6.3,3.9-10.1,4.7c1.2-0.7,4.1-3.6,2.1-5.1c-1.2-0.9-3.2-0.5-5.2,0.5
	c0.2-0.4,0.8-1.1,0.5-2.1c-0.2-0.9-2-1.2-3-0.8c0,1-0.2,1.5-0.4,1.7c-4.3,3.8-10,6.1-10.5,5.6c-0.4-0.4,0.9-2.1,1.3-2.7
	c0.4-0.5,0.4-1.1,0.1-1.6c-0.4-0.7-1.1-0.8-2.5-0.5c-1.9,0.3-3.2-0.5-4.3-2.2c-0.5-0.8-1.9-0.7-2.6-0.2c0.2,0.5,0.1,1.2,0,1.8
	c-1.1,2.7-4.6,2.7-5.9,1.8c-0.2-0.6-0.7-1.6-1.7-1.7c-3.1-0.5-4.1,1.4-4.6,2c-1.1,1.2-8.4,4.3-10.1,2.9c-1.3-1-0.2-4.6,2.2-8.3
	c3.6-5.6,5.2-5.6,5.8-5c0.4,0.4,0.7,1.1,0,2.5c-0.1,0.1-0.1,0.2-0.2,0.3c-1.2,2-1.7,1.9-1.7,1.9c-0.4,1.2,0.1,1.9,0.5,2.2
	c0.4,0.4,1,0.3,1.2,0.2c0.6-0.2,1-0.7,1.3-1.3c1.7-2.7,2.8-6.9,0-8.5c-2-1.1-5.4,0.4-9.2,6.5c-3.3,5.4-4.3,9.5-1.9,11.6
	c2.9,2.5,9.1-0.6,11.1-1.6c-0.1,0.4,0.1,2.6,2.1,2.5c2.6-0.2,4.2-2.5,4.9-3.7c1,0.6,5.4,1.3,8.1-2.8c0.3,0.2,2,1.5,4.2,1.5
	c-0.8,1.4-1.8,3.4-0.3,4.5c2,1.6,9.1-2.5,11.1-3.7c-1.2,2.1-3.2,6.9-5.2,11.1c-0.8,1.7-2,4.1-0.8,4.7c1,0.5,2.4,0,2.6-1.3
	c0.3-1.6,1.9-6.2,3-8.7c2.1-4.8,4.1-7.2,7.3-7.2c-0.2,0.4-0.3,0.9-1.4,2c-1.2,1.2-2.5,1.1-2.4,2.4c0,0.7,0.8,1,1,1
	c1.7,0.5,6.4-0.9,8.2-1.6c2.1-0.8,5.1-2.2,7.3-3.6C660,30.6,660.1,29.6,659.3,28.9"/>
<path d="M586.1,23.9c-1.8,0.1-4,0.7-4.8,2.5c-0.7,1.5-0.1,3.1,1.3,4.9c0.9,1.1,1.7,2.2,2,2.4c-0.6,0.1-2.1,0.1-3.5-0.2c0,0,0,0,0,0
	c-0.3-0.1-0.6-0.1-1-0.2c-0.8-0.3-1-0.6-1-0.6l-0.1,0.1v0l0.1-0.1c-0.5,0.1-1,0.5-1.3,0.9c-0.3,0.4-0.6,1.2-0.4,1.6
	c0.2,0.3,0.7,0.5,1.6,0.5c2,0.1,5.7,0.6,6.5,0.7c1.1,0.1,1.8-0.8,2-1.3c0.3-0.7,0-1.4-0.4-1.8c-1.8-2-4.3-4.3-3.4-6.2
	c0.4-0.9,2.4-0.7,3.1-0.5c1.4,0.4,2.1-0.1,2.4-1C589.4,25.1,589.1,23.7,586.1,23.9"/>
<path d="M549.6,26.3c0.3,0.3-0.3,0.8-0.8,1.1c-1.3,0.8-2.6,1.3-3.5,1.7C546.3,27,549.2,25.8,549.6,26.3 M579.7,31
	c0.7-0.4,1-1.2,0.4-1.9c-0.6-0.7-1.7-0.6-2.2-0.3c-0.4,0.3-0.9,0.5-2.3,0.6c-1.4,0.1-1.9-0.5-2.8-0.5c-1,0-1.3,0.7-2.5,2.2
	c-0.6,0.8-2,2.6-2.6,2.6c-0.5,0-0.7-1.5-0.7-3.5c0-0.9-0.4-1.6-1.4-1.6c-0.9,0.1-1,1.2-1.4,1.7c-1.3,1.6-2.4,3.1-2.9,3.1
	c-0.7,0-0.9-1.5-0.9-2.6c0,0,0.2-1.8-1.4-2.1c-0.7-0.1-1.4,0.3-1.4,0.3c0.1,0.1,0.1,0.3,0.1,0.4c-0.2,0.7-1.6,1.8-1.6,1.8
	c-1.5,1.1-4.5,3.1-7.2,3.3c-3.2,0.2-3.7-1.7-3.8-2.4c2.7-1,4.5-2.1,5.7-3.1c1.2-1,2.1-2,2-3.1c-0.1-1.4-1.4-1.9-2.4-1.9
	c-2.2,0-5.8,0.9-7.6,5.8c-0.4,0.1-1.3,0.1-1.7,0c-0.6-0.2-0.6-0.4-0.6-0.4c-0.6,0.2-0.9,0.4-1.1,1c-0.3,0.8,0.1,1.5,0.8,1.9
	c0.5,0.3,1.3,0.4,2.4,0.3c0.2,1.5,1.1,4.3,6.3,4.1c4.1-0.2,8.9-3.6,9.3-3.9c0.2,0.8,0.8,3.9,2.5,3.9c2.1,0,4.2-3.2,4.2-3.2
	s0.5,3.2,2.7,3.2c1.8,0,4-2.8,4.5-3.5c0.5-0.5,1.3-1.6,1.8-1.6c0.5-0.1,1.4,0.7,4.1,0.2C577.9,31.6,579.1,31.4,579.7,31"/>
<path d="M546.2,15.6c0.2-0.5,0-1.1-0.3-1.3c-1-0.8-2-0.3-2.7,0.4c-0.8,0.9-1.9,2.8-2.3,3.6c-4.1,6.7-7.3,13.8-7.3,13.8
	s-1.1-3.3-1.2-6c-0.1-2.5-0.3-4.9-0.4-6c0-0.5-0.2-1.2-1-1.5c-0.6-0.2-1.5-0.3-2.2,0c-0.1,0.8-0.1,1.2-0.4,2.1
	c-0.3,0.9-2.5,5.1-2.8,5.7c-1.9,3.3-4.3,7.4-4.4,7.7c-0.5,0.9-1.2,2.2,0,2.6c1.2,0.4,2.2,0.2,2.7-0.6c0.1-0.1,0.2-0.4,0.2-0.4
	s-0.3-0.3,0.4-2c0.2-0.5,0.5-1,0.8-1.6c0.1-0.1,0.1-0.2,0.2-0.3c0.1-0.2,0.2-0.3,0.2-0.4c1.2-2.4,2.8-5.5,4.3-8.2
	c0,1.6,0.1,3.5,0.3,5c0.3,2.8,1,3.9,1.3,6.2c0,1.5,0.1,1.8,1.2,2.1c1,0.3,1.6,0,2-0.9c1.5-3.7,5.7-12.3,9.3-16.9
	C544.4,18.1,545.8,16.7,546.2,15.6"/>
<path class="st12" d="M671.9,30l3.9-10l4.1,10H671.9z M675,18.4l-7.3,17.8h1.7l1.9-5h9l2,5h1.9l-7.6-17.8L675,18.4L675,18.4z"/>
<path class="st12" d="M696.4,23.8h-1.5v6.5c0,2.5-0.9,4.8-3.7,4.8c-2.6,0-3.2-2-3.2-4.3v-7h-1.5v7.6c0,3.1,1.1,5,4.4,5
	c1.8,0,3-0.6,4-2.1l0,2h1.5c-0.1-1.2-0.1-2.5-0.1-3.7L696.4,23.8L696.4,23.8z"/>
<path class="st12" d="M701.4,26.8c0-1.5,1.6-2.1,2.9-2.1c1.7,0,2.6,0.7,2.7,2.4h1.5c-0.1-2.6-1.9-3.6-4.3-3.6c-2.1,0-4.3,1-4.3,3.4
	c0,4.4,7.4,2.6,7.4,6c0,1.7-1.7,2.4-3.2,2.4c-1.8,0-3.1-0.9-3.1-2.8h-1.5c0,2.7,1.9,3.9,4.5,3.9c2.4,0,4.7-1.1,4.7-3.8
	C708.8,28.3,701.4,30.1,701.4,26.8"/>
<path class="st12" d="M714.3,33v-8.1h2.8v-1.1h-2.8v-3.2l-1.5,0.7v2.6h-2.5v1.1h2.5v8.8c0,1.8,0.8,2.7,2.6,2.7
	c0.6,0,1.2-0.1,1.7-0.1V35c-0.4,0-0.7,0.1-1.1,0.1C714.5,35.1,714.3,34.4,714.3,33"/>
<path class="st12" d="M721.9,25.8l-0.1-1.9h-1.5c-0.1,1.2,0.1,2.4,0.1,3.6v8.8h1.5v-7c0-2.5,0.8-4,3.5-4c0.3,0,0.7,0.1,1,0.1v-1.5
	c-0.2,0-0.5-0.1-0.7-0.1C724,23.7,722.8,24.3,721.9,25.8"/>
<path class="st12" d="M731.8,35.4c-1.6,0-3.1-0.9-3.1-2.6c0-2.9,3.5-3,5.6-3c0.4,0,0.8,0,1.2,0.1C735.5,32.6,735.3,35.4,731.8,35.4
	 M737,28c0-3.1-1.4-4.4-4.5-4.4c-2.2,0-4.3,0.9-4.4,3.4h1.5c0.2-1.8,1.3-2.3,2.9-2.3c2.2,0,3,1.1,3,3.2c0,0.3,0,0.6,0,0.9h-0.6
	c-3.1,0-7.7,0.1-7.7,4.1c0,2.5,2.1,3.6,4.3,3.6c1.8,0,3.1-0.5,4.2-2.1c0.1,0.6,0.1,1.2,0.2,1.8h1.4c-0.2-1.6-0.2-3.1-0.2-4.6L737,28
	L737,28z"/>
<rect x="740.9" y="18.4" class="st12" width="1.5" height="17.8"/>
<rect x="746.4" y="18.4" class="st12" width="1.8" height="1.9"/>
<rect x="746.5" y="23.8" class="st12" width="1.5" height="12.4"/>
<path class="st12" d="M756,35.4c-1.6,0-3.1-0.9-3.1-2.6c0-2.9,3.5-3,5.6-3c0.4,0,0.8,0,1.2,0.1C759.7,32.6,759.5,35.4,756,35.4
	 M761.2,31.6V28c0-3.1-1.4-4.4-4.5-4.4c-2.2,0-4.3,0.9-4.4,3.4h1.5c0.2-1.8,1.3-2.3,2.9-2.3c2.2,0,3,1.1,3,3.2c0,0.3,0,0.6,0,0.9
	H759c-3.1,0-7.7,0.1-7.7,4.1c0,2.5,2.1,3.6,4.3,3.6c1.8,0,3.1-0.5,4.2-2.1c0.1,0.6,0.1,1.2,0.2,1.8h1.4
	C761.3,34.7,761.2,33.2,761.2,31.6"/>
</svg>
