<svg id="Layer_1" data-name="Layer 1" xmlns="http://www.w3.org/2000/svg" viewBox="0 0 520.68 166.46"><defs><style>.cls-1{fill:none;}.cls-2{fill:#81848a;}.cls-3{fill:#ef3829;}.cls-4{fill:#231f20;}</style></defs><title>Infoxchange_CMYK</title><rect class="cls-1" width="520.68" height="166.46"/><path class="cls-2" d="M257.76,302.19s-13.83,6.21-31.93-4.08-17.33,8-13.68,12.55c4.24,5.28,10.65,9.23,22.19,7.11S257.76,302.19,257.76,302.19Z" transform="translate(-147.57 -194.94)"/><path class="cls-3" d="M398.37,282.16l-11.12-20.72h9.44l6.72,14.24,7-14.24h9.28l-11.2,20.72,11.68,22.32h-9.36l-7.52-15.92-7.52,15.92h-9.2Z" transform="translate(-147.57 -194.94)"/><path class="cls-3" d="M203.83,254.14s13.83-6.2,31.94,4.09,17.33-8,13.67-12.56c-4.23-5.27-10.65-9.22-22.19-7.11S203.83,254.14,203.83,254.14Z" transform="translate(-147.57 -194.94)"/><path class="cls-3" d="M254.31,251.2s6.2,13.83-4.09,31.94,8,17.33,12.56,13.68c5.27-4.24,9.22-10.66,7.11-22.19S254.31,251.2,254.31,251.2Z" transform="translate(-147.57 -194.94)"/><path class="cls-4" d="M286.37,247.36h9.12v57.12h-9.12Z" transform="translate(-147.57 -194.94)"/><path class="cls-4" d="M301.17,261.44h8.16v5h.24a12.35,12.35,0,0,1,11-6.16c6.56,0,10.72,3,10.72,11.68v32.48h-8.64V275c0-5.6-1.68-7.76-6-7.76-3.52,0-6.88,2.8-6.88,8.4v28.88h-8.64Z" transform="translate(-147.57 -194.94)"/><path class="cls-4" d="M339.49,267.84h-6v-6.4h6v-4c0-8.16,3.92-10.72,11-10.72a39.29,39.29,0,0,1,4.72.24v6.64h-2.4c-3.2,0-4.64,1.2-4.64,4.08v3.76h7v6.4h-7v36.64h-8.64Z" transform="translate(-147.57 -194.94)"/><path class="cls-4" d="M370.61,260.32c12.56,0,16.08,9.28,16.08,22.64s-4.08,22.64-16.08,22.64-16-9.28-16-22.64S358.13,260.32,370.61,260.32Zm0,38.88c6.32,0,7.44-5.28,7.44-16.24,0-9.52-1.12-16.24-7.44-16.24s-7.36,6.72-7.36,16.24C363.25,293.92,364.37,299.2,370.61,299.2Z" transform="translate(-147.57 -194.94)"/><path class="cls-4" d="M450.85,288.8c-.56,10.32-4.08,16.8-14.72,16.8-12.48,0-16-9.28-16-22.64s3.52-22.64,16-22.64c12.88-.16,14.8,10.08,14.8,15.44h-8.64c0-4-1.12-9.2-6.16-9-6.24,0-7.36,6.72-7.36,16.24s1.12,16.24,7.36,16.24c4.8.08,6.56-3.92,6.56-10.4Z" transform="translate(-147.57 -194.94)"/><path class="cls-4" d="M454.06,247.36h8.64v18.72l.24.16a12.45,12.45,0,0,1,10.56-5.92c6.56,0,10.72,3,10.72,11.68v32.48h-8.64V275c0-5.6-1.68-7.76-6-7.76-3.52,0-6.88,2.8-6.88,8.4v28.88h-8.64Z" transform="translate(-147.57 -194.94)"/><path class="cls-4" d="M518,295.52c0,1.6,1,3,2.24,3a3.6,3.6,0,0,0,1.44-.24v5.6a10.31,10.31,0,0,1-4.24,1c-3.84,0-7-1.52-7.28-5.68H510a11.2,11.2,0,0,1-10.72,6.32c-6.88,0-11.2-3.84-11.2-12.08,0-9.6,4.16-11.6,10-13.52l6.72-1.84c3.12-.88,5-1.76,5-5.52,0-3.92-1.36-6.4-5.92-6.4-5.76,0-6.56,4.08-6.56,8.24h-8.16c0-9.12,3.76-14.16,15.12-14.16,7.6,0,13.68,3,13.68,10.56Zm-8.16-13.76c-2.24,1.76-7,2.8-9.6,4s-3.52,3.76-3.52,7c0,3.6,1.76,6.48,5.36,6.48,5.2,0,7.76-3.92,7.76-10.24Z" transform="translate(-147.57 -194.94)"/><path class="cls-4" d="M524,261.44h8.16v5h.24a12.35,12.35,0,0,1,11-6.16c6.56,0,10.72,3,10.72,11.68v32.48H545.5V275c0-5.6-1.68-7.76-6-7.76-3.52,0-6.88,2.8-6.88,8.4v28.88H524Z" transform="translate(-147.57 -194.94)"/><path class="cls-4" d="M568.3,308.16c0,2.64,2.4,5.12,6.24,5.12,4.48,0,7.28-3.12,7.28-8.08v-7h-.16c-1.6,3.76-5.6,5.92-9.76,5.92-10.08,0-12.88-9.92-12.88-21.68,0-9.44,1.44-22.16,13.68-22.16,5,0,8.64,3.28,9.44,6.4h.16v-5.28h8.16v41c0,10.48-4.48,16.8-16.08,16.8-12.8,0-14.24-7.52-14.24-11Zm6.08-10.88c6.72,0,7.44-8.48,7.44-15.28,0-7-.88-14.8-6.88-14.8-6.24,0-7.28,6.4-7.28,14.4C567.66,289,568,297.28,574.38,297.28Z" transform="translate(-147.57 -194.94)"/><path class="cls-4" d="M602.78,284.08v2.48c0,5.76.72,13.12,7.2,13.12,6.16,0,6.88-7,6.88-9.6H625c0,9.52-5.76,15.52-15.12,15.52-7,0-15.76-2.08-15.76-22,0-11.28,2.4-23.28,15.92-23.28,12,0,15.2,7.2,15.2,19.2v4.56Zm13.84-5.92v-2.32c0-5.44-1.76-9.6-6.64-9.6-5.52,0-7.2,5.44-7.2,11v.88Z" transform="translate(-147.57 -194.94)"/><path class="cls-4" d="M206.77,304.1s-6.2-13.83,4.08-31.94-8-17.33-12.55-13.67c-5.27,4.23-9.23,10.65-7.11,22.18S206.77,304.1,206.77,304.1Z" transform="translate(-147.57 -194.94)"/></svg>