<?xml version="1.0" encoding="iso-8859-1"?>
<!-- Generator: Adobe Illustrator 18.1.1, SVG Export Plug-In . SVG Version: 6.00 Build 0)  -->
<!DOCTYPE svg PUBLIC "-//W3C//DTD SVG 1.1//EN" "http://www.w3.org/Graphics/SVG/1.1/DTD/svg11.dtd">
<svg version="1.1" xmlns="http://www.w3.org/2000/svg" xmlns:xlink="http://www.w3.org/1999/xlink" x="0px" y="0px"
	 viewBox="0 0 52.455 45.87" style="enable-background:new 0 0 52.455 45.87;" xml:space="preserve">
<g id="job">
	<g id="XMLID_593_">
		<g id="XMLID_601_">
			<path style="fill:#231F20;" d="M49.978,45.87h-47.5c-0.812,0-1.476-0.646-1.5-1.456L0.001,10.913
				c-0.012-0.405,0.141-0.798,0.423-1.089C0.707,9.533,1.095,9.369,1.5,9.369h49.455c0.405,0,0.794,0.164,1.076,0.455
				s0.435,0.684,0.423,1.089l-0.978,33.501C51.453,45.225,50.789,45.87,49.978,45.87z M3.935,42.87h44.586l0.891-30.501H3.045
				L3.935,42.87z"/>
		</g>
		<g id="XMLID_598_">
			<g id="XMLID_600_">
				<path style="fill:#231F20;" d="M9.477,45.87c-0.809,0-1.475-0.644-1.499-1.457L7.289,20.282
					c-0.023-0.828,0.628-1.519,1.457-1.542c0.814-0.064,1.519,0.628,1.542,1.456l0.689,24.131c0.023,0.828-0.628,1.519-1.457,1.542
					C9.506,45.87,9.491,45.87,9.477,45.87z"/>
			</g>
			<g id="XMLID_599_">
				<path style="fill:#231F20;" d="M42.979,45.87c-0.015,0-0.029,0-0.044-0.001c-0.828-0.023-1.48-0.714-1.456-1.542l0.689-24.131
					c0.023-0.828,0.733-1.52,1.542-1.456c0.828,0.023,1.48,0.714,1.456,1.542l-0.689,24.131
					C44.454,45.227,43.787,45.87,42.979,45.87z"/>
			</g>
		</g>
		<g id="XMLID_595_">
			<g id="XMLID_597_">
				<path style="fill:#231F20;" d="M8.788,16.595c-0.862,0-1.562-0.699-1.562-1.562V11.39c0-0.862,0.699-1.562,1.562-1.562
					s1.562,0.699,1.562,1.562v3.644C10.35,15.896,9.651,16.595,8.788,16.595z"/>
			</g>
			<g id="XMLID_596_">
				<path style="fill:#231F20;" d="M43.667,16.595c-0.862,0-1.562-0.699-1.562-1.562V11.39c0-0.862,0.699-1.562,1.562-1.562
					s1.562,0.699,1.562,1.562v3.644C45.229,15.896,44.529,16.595,43.667,16.595z"/>
			</g>
		</g>
		<g id="XMLID_594_">
			<path style="fill:#231F20;" d="M36.319,12.431c-0.862,0-1.562-0.699-1.562-1.562V4.523c0-0.772-0.628-1.4-1.4-1.4h-14.26
				c-0.772,0-1.4,0.628-1.4,1.4v6.346c0,0.862-0.699,1.562-1.562,1.562s-1.562-0.699-1.562-1.562V4.523
				C14.574,2.029,16.604,0,19.098,0h14.26c2.494,0,4.523,2.029,4.523,4.523v6.346C37.881,11.731,37.182,12.431,36.319,12.431z"/>
		</g>
	</g>
</g>
<g id="Layer_1">
</g>
</svg>
