<?xml version="1.0" encoding="iso-8859-1"?>
<!-- Generator: Adobe Illustrator 18.1.1, SVG Export Plug-In . SVG Version: 6.00 Build 0)  -->
<!DOCTYPE svg PUBLIC "-//W3C//DTD SVG 1.1//EN" "http://www.w3.org/Graphics/SVG/1.1/DTD/svg11.dtd">
<svg version="1.1" xmlns="http://www.w3.org/2000/svg" xmlns:xlink="http://www.w3.org/1999/xlink" x="0px" y="0px"
	 viewBox="0 0 31.968 31.968" style="enable-background:new 0 0 31.968 31.968;" xml:space="preserve">
<g id="info">
	<g>
		<g id="XMLID_656_">
			<path style="fill:#231F20;" d="M15.984,31.968C7.17,31.968,0,24.798,0,15.984C0,7.17,7.17,0,15.984,0
				c8.813,0,15.983,7.17,15.983,15.984C31.968,24.798,24.798,31.968,15.984,31.968z M15.984,2.199
				c-7.601,0-13.785,6.185-13.785,13.785s6.185,13.784,13.785,13.784s13.784-6.184,13.784-13.784S23.585,2.199,15.984,2.199z"/>
		</g>
		<g id="XMLID_655_">
			<path style="fill:#231F20;" d="M14.396,8.587c0-0.828,0.69-1.357,1.587-1.357c0.897,0,1.587,0.529,1.587,1.357v0.138
				c0,0.828-0.689,1.38-1.587,1.38c-0.896,0-1.587-0.552-1.587-1.38V8.587z M14.604,13.116c0-0.781,0.599-1.402,1.38-1.402
				c0.782,0,1.403,0.621,1.403,1.402v9.612c0,0.782-0.621,1.38-1.403,1.38c-0.759,0-1.38-0.598-1.38-1.38V13.116z"/>
		</g>
	</g>
</g>
<g id="Layer_1">
</g>
</svg>
