<?xml version="1.0" encoding="iso-8859-1"?>
<!-- Generator: Adobe Illustrator 18.1.1, SVG Export Plug-In . SVG Version: 6.00 Build 0)  -->
<!DOCTYPE svg PUBLIC "-//W3C//DTD SVG 1.1//EN" "http://www.w3.org/Graphics/SVG/1.1/DTD/svg11.dtd">
<svg version="1.1" xmlns="http://www.w3.org/2000/svg" xmlns:xlink="http://www.w3.org/1999/xlink" x="0px" y="0px"
	 viewBox="0 0 61.222 43.357" style="enable-background:new 0 0 61.222 43.357;" xml:space="preserve">
<g id="tech">
	<g id="XMLID_611_">
		<g id="XMLID_615_">
			<path style="fill:#231F20;" d="M56.877,43.357H4.345C1.949,43.357,0,41.408,0,39.013v-2.729c0-0.594,0.35-1.131,0.892-1.371
				l5.553-2.462L7.233,4.303C7.233,1.949,9.136,0,11.476,0h38.271c2.339,0,4.243,1.949,4.243,4.345l0.788,28.106l5.554,2.462
				c0.542,0.24,0.892,0.777,0.892,1.371v2.729C61.222,41.408,59.273,43.357,56.877,43.357z M3,37.26v1.753
				c0,0.741,0.603,1.345,1.345,1.345h52.532c0.742,0,1.345-0.604,1.345-1.345V37.26l-5.526-2.449
				c-0.528-0.234-0.875-0.751-0.892-1.329L50.989,4.387C50.989,3.604,50.431,3,49.746,3H11.476c-0.685,0-1.243,0.604-1.243,1.345
				L9.46,31.939h38.544c0.829,0,1.5,0.672,1.5,1.5s-0.671,1.5-1.5,1.5H8.235L3,37.26z"/>
		</g>
		<g id="XMLID_612_">
			<path style="fill:#231F20;" d="M47.631,29.484c-0.006,0-0.013,0-0.02,0h-34c-0.405,0-0.793-0.164-1.076-0.455
				c-0.282-0.291-0.435-0.684-0.423-1.089l0.61-20.995c0.024-0.811,0.688-1.456,1.5-1.456H47c0.812,0,1.476,0.646,1.5,1.456
				l0.603,20.75c0.018,0.094,0.028,0.19,0.028,0.289C49.131,28.812,48.459,29.484,47.631,29.484z M15.155,26.484h30.911
				L45.543,8.489H15.678L15.155,26.484z"/>
		</g>
	</g>
</g>
<g id="Layer_1">
</g>
</svg>
