<svg id="Layer_1" data-name="Layer 1" xmlns="http://www.w3.org/2000/svg" viewBox="0 0 520.68 166.46"><title>askizzy-icon-logo-infoxchange</title><rect width="520.68" height="166.46" style="fill:none"/><path d="M110.19,107.25s-13.83,6.21-31.93-4.08-17.33,8-13.68,12.55c4.24,5.28,10.65,9.23,22.19,7.11S110.19,107.25,110.19,107.25Z" style="fill:#81848a"/><path d="M250.8,87.22,239.68,66.5h9.44l6.72,14.24,7-14.24h9.28l-11.2,20.72,11.68,22.32h-9.36l-7.52-15.92-7.52,15.92H239Z" style="fill:#ef3829"/><path d="M56.26,59.2S70.09,53,88.2,63.29s17.33-8,13.67-12.56c-4.23-5.27-10.65-9.22-22.19-7.11S56.26,59.2,56.26,59.2Z" style="fill:#ef3829"/><path d="M106.74,56.26s6.2,13.83-4.09,31.94,8,17.33,12.56,13.68c5.27-4.24,9.22-10.66,7.11-22.19S106.74,56.26,106.74,56.26Z" style="fill:#ef3829"/><path d="M138.8,52.42h9.12v57.12H138.8Z" style="fill:#231f20"/><path d="M153.6,66.5h8.16v5H162a12.35,12.35,0,0,1,11-6.16c6.56,0,10.72,3,10.72,11.68V109.5h-8.64V80.06c0-5.6-1.68-7.76-6-7.76-3.52,0-6.88,2.8-6.88,8.4v28.88h-8.64Z" style="fill:#231f20"/><path d="M191.92,72.9h-6V66.5h6v-4c0-8.16,3.92-10.72,11-10.72a39.29,39.29,0,0,1,4.72.24v6.64h-2.4c-3.2,0-4.64,1.2-4.64,4.08V66.5h7v6.4h-7v36.64H192Z" style="fill:#231f20"/><path d="M223,65.38c12.56,0,16.08,9.28,16.08,22.64S235,110.66,223,110.66,207,101.38,207,88,210.56,65.38,223,65.38Zm0,38.88c6.32,0,7.44-5.28,7.44-16.24,0-9.52-1.12-16.24-7.44-16.24S215.68,78.5,215.68,88C215.68,99,216.8,104.26,223,104.26Z" style="fill:#231f20"/><path d="M303.28,93.86c-.56,10.32-4.08,16.8-14.72,16.8-12.48,0-16-9.28-16-22.64s3.52-22.64,16-22.64c12.88-.16,14.8,10.08,14.8,15.44h-8.64c0-4-1.12-9.2-6.16-9-6.24,0-7.36,6.72-7.36,16.24s1.12,16.24,7.36,16.24c4.8.08,6.56-3.92,6.56-10.4Z" style="fill:#231f20"/><path d="M306.49,52.42h8.64V71.14l.24.16a12.45,12.45,0,0,1,10.56-5.92c6.56,0,10.72,3,10.72,11.68v32.48H328V80.06c0-5.6-1.68-7.76-6-7.76-3.52,0-6.88,2.8-6.88,8.4v28.88h-8.64Z" style="fill:#231f20"/><path d="M370.43,100.58c0,1.6,1,3,2.24,3a3.6,3.6,0,0,0,1.44-.24v5.6a10.31,10.31,0,0,1-4.24,1c-3.84,0-7-1.52-7.28-5.68h-.16a11.2,11.2,0,0,1-10.72,6.32c-6.88,0-11.2-3.84-11.2-12.08,0-9.6,4.16-11.6,10-13.52l6.72-1.84c3.12-.88,5-1.76,5-5.52,0-3.92-1.36-6.4-5.92-6.4-5.76,0-6.56,4.08-6.56,8.24h-8.16c0-9.12,3.76-14.16,15.12-14.16,7.6,0,13.68,3,13.68,10.56Zm-8.16-13.76c-2.24,1.76-7,2.8-9.6,4s-3.52,3.76-3.52,7c0,3.6,1.76,6.48,5.36,6.48,5.2,0,7.76-3.92,7.76-10.24Z" style="fill:#231f20"/><path d="M376.43,66.5h8.16v5h.24a12.35,12.35,0,0,1,11-6.16c6.56,0,10.72,3,10.72,11.68V109.5h-8.62V80.06c0-5.6-1.68-7.76-6-7.76-3.52,0-6.88,2.8-6.88,8.4v28.88h-8.62Z" style="fill:#231f20"/><path d="M420.73,113.22c0,2.64,2.4,5.12,6.24,5.12,4.48,0,7.28-3.12,7.28-8.08v-7h-.16c-1.6,3.76-5.6,5.92-9.76,5.92-10.08,0-12.88-9.92-12.88-21.68,0-9.44,1.44-22.16,13.68-22.16,5,0,8.64,3.28,9.44,6.4h.16V66.46h8.16v41c0,10.48-4.48,16.8-16.08,16.8-12.8,0-14.24-7.52-14.24-11Zm6.08-10.88c6.72,0,7.44-8.48,7.44-15.28,0-7-.88-14.8-6.88-14.8-6.24,0-7.28,6.4-7.28,14.4C420.09,94.06,420.43,102.34,426.81,102.34Z" style="fill:#231f20"/><path d="M455.21,89.14v2.48c0,5.76.72,13.12,7.2,13.12,6.16,0,6.88-7,6.88-9.6h8.14c0,9.52-5.76,15.52-15.12,15.52-7,0-15.76-2.08-15.76-22,0-11.28,2.4-23.28,15.92-23.28,12,0,15.2,7.2,15.2,19.2v4.56Zm13.84-5.92V80.9c0-5.44-1.76-9.6-6.64-9.6-5.52,0-7.2,5.44-7.2,11v.88Z" style="fill:#231f20"/><path d="M59.2,109.16S53,95.33,63.28,77.22s-8-17.33-12.55-13.67c-5.27,4.23-9.23,10.65-7.11,22.18S59.2,109.16,59.2,109.16Z" style="fill:#231f20"/></svg>