<?xml version="1.0" encoding="iso-8859-1"?>
<!-- Generator: Adobe Illustrator 18.1.1, SVG Export Plug-In . SVG Version: 6.00 Build 0)  -->
<!DOCTYPE svg PUBLIC "-//W3C//DTD SVG 1.1//EN" "http://www.w3.org/Graphics/SVG/1.1/DTD/svg11.dtd">
<svg version="1.1" xmlns="http://www.w3.org/2000/svg" xmlns:xlink="http://www.w3.org/1999/xlink" x="0px" y="0px"
	 viewBox="0 0 34.845 34.984" style="enable-background:new 0 0 34.845 34.984;" xml:space="preserve">
<g id="search">
	<path style="fill:#231F20;" d="M34.403,32.403l-8.081-8.113c2.086-2.565,3.341-5.837,3.341-9.399C29.663,6.68,23.01,0,14.831,0
		C6.653,0,0,6.68,0,14.89c0,8.21,6.653,14.891,14.831,14.891c3.548,0,6.806-1.26,9.362-3.354l8.081,8.114
		c0.294,0.295,0.68,0.443,1.065,0.443s0.771-0.148,1.065-0.443C34.992,33.951,34.992,32.993,34.403,32.403z M14.831,26.757
		c-6.517,0-11.819-5.323-11.819-11.866c0-6.543,5.302-11.866,11.819-11.866c6.518,0,11.82,5.323,11.82,11.866
		C26.651,21.434,21.349,26.757,14.831,26.757z"/>
</g>
<g id="Layer_1">
</g>
</svg>
