<svg id="VF_Foundation_Logo" data-name="VF Foundation Logo" xmlns="http://www.w3.org/2000/svg" viewBox="0 0 1158.46 566.7"><defs><style>.cls-1{fill:#e60505;}.cls-2{fill:#fff;}</style></defs><title>Vodafone_Foundation_Logo_Red_RGB</title><path class="cls-1" d="M625.43,263.34l-25.86-70.13H614l17.77,53.09,17.46-53.09h13.24L638,263.34Z"/><path class="cls-1" d="M710.31,237.79a31.79,31.79,0,0,1-1.52,9.73,26.81,26.81,0,0,1-4.52,8.56,22.42,22.42,0,0,1-7.57,6.1,25.7,25.7,0,0,1-21.34,0,22.36,22.36,0,0,1-7.58-6.1,27,27,0,0,1-4.52-8.56,32.09,32.09,0,0,1-1.52-9.73,31.58,31.58,0,0,1,1.52-9.68,26.5,26.5,0,0,1,4.52-8.46,22.08,22.08,0,0,1,7.58-6A23.7,23.7,0,0,1,686,211.4a23.41,23.41,0,0,1,10.62,2.26,22.72,22.72,0,0,1,7.57,6,25.7,25.7,0,0,1,4.58,8.46A31.28,31.28,0,0,1,710.31,237.79Zm-12.83,0a24,24,0,0,0-.73-6,14.69,14.69,0,0,0-2.21-4.9,11.11,11.11,0,0,0-3.57-3.27,9.74,9.74,0,0,0-5-1.22,9.64,9.64,0,0,0-4.93,1.22,11,11,0,0,0-3.58,3.27,14.69,14.69,0,0,0-2.21,4.9,24,24,0,0,0-.74,6,23.73,23.73,0,0,0,.74,6.06,15.92,15.92,0,0,0,2.16,4.91A10.3,10.3,0,0,0,681,252a10,10,0,0,0,5,1.22,9.74,9.74,0,0,0,5-1.22,11.06,11.06,0,0,0,3.57-3.32,15.31,15.31,0,0,0,2.21-4.91A23.74,23.74,0,0,0,697.48,237.74Z"/><path class="cls-1" d="M750.63,263.34l-.53-3.89a16.39,16.39,0,0,1-4.72,3.52,14.87,14.87,0,0,1-6.92,1.53,18.74,18.74,0,0,1-9.22-2.21,21.06,21.06,0,0,1-6.71-5.89,27,27,0,0,1-4.14-8.52A35.81,35.81,0,0,1,717,237.79a32.47,32.47,0,0,1,1.47-9.68,25.4,25.4,0,0,1,4.45-8.46,22.16,22.16,0,0,1,7.5-6A23.27,23.27,0,0,1,741,211.4a28.63,28.63,0,0,1,8.59,1.45V193.21h13v70.13Zm-1.06-39.53a19.15,19.15,0,0,0-7-1.48,12.23,12.23,0,0,0-5.75,1.27,11.34,11.34,0,0,0-4,3.43,15.63,15.63,0,0,0-2.36,4.85,19.77,19.77,0,0,0-.78,5.54,26.76,26.76,0,0,0,.68,6.07,15.94,15.94,0,0,0,2.09,5.06A11.26,11.26,0,0,0,736,252a9.48,9.48,0,0,0,5.07,1.32A10.57,10.57,0,0,0,746,252a8.55,8.55,0,0,0,3.55-3.11Z"/><path class="cls-1" d="M801.81,263.29l-.52-3.79a14.37,14.37,0,0,1-5.38,3.67,19,19,0,0,1-7.17,1.33,18.27,18.27,0,0,1-6.29-1.11,16.74,16.74,0,0,1-5.32-3.15A15.46,15.46,0,0,1,772,248.41a14.14,14.14,0,0,1,5.5-11.57,21.91,21.91,0,0,1,5.8-3.26,36.51,36.51,0,0,1,6.86-1.89,48.86,48.86,0,0,1,5.54-.79c2-.17,3.67-.33,5-.47v-.74q0-4.2-2.17-6a9.11,9.11,0,0,0-6-1.79,16.54,16.54,0,0,0-4.22.53,18.49,18.49,0,0,0-3.6,1.31,29.16,29.16,0,0,0-2.8,1.58,19.33,19.33,0,0,0-1.95,1.42l-4.31-9.15a19.73,19.73,0,0,1,2.57-1.79,30.17,30.17,0,0,1,4.21-2.05,36.06,36.06,0,0,1,5.57-1.68,31.36,31.36,0,0,1,6.68-.68,25.07,25.07,0,0,1,7.67,1.1,15.55,15.55,0,0,1,6,3.47,16.14,16.14,0,0,1,3.94,6,24,24,0,0,1,1.42,8.78v32.56Zm-1-23.72c-1.41.08-2.85.2-4.33.37s-2.9.41-4.24.69q-4.23.84-5.87,2.89a7,7,0,0,0-1.64,4.46,5,5,0,0,0,1.85,4.05,8,8,0,0,0,5.24,1.53,12.09,12.09,0,0,0,4.92-1.05,14.63,14.63,0,0,0,4.07-2.63Z"/><path class="cls-1" d="M854.21,204.77a19.29,19.29,0,0,0-2.48-.89,16.88,16.88,0,0,0-4.88-.58,6.64,6.64,0,0,0-4.58,1.63q-1.83,1.63-1.83,5.31v2.42h10.93v10.51H840.54v40.17h-13V223.17h-6.73V212.66h6.73v-2.73a24.34,24.34,0,0,1,1.26-8.37,14.62,14.62,0,0,1,3.52-5.56,13.89,13.89,0,0,1,5.31-3.16,21.09,21.09,0,0,1,6.63-1,29.1,29.1,0,0,1,7.83.89,24.78,24.78,0,0,1,3.63,1.21Z"/><path class="cls-1" d="M904,237.79a32.09,32.09,0,0,1-1.52,9.73,27,27,0,0,1-4.52,8.56,22.36,22.36,0,0,1-7.58,6.1,25.7,25.7,0,0,1-21.34,0,22.52,22.52,0,0,1-7.57-6.1,26.81,26.81,0,0,1-4.52-8.56,31.79,31.79,0,0,1-1.52-9.73,31.28,31.28,0,0,1,1.52-9.68,26.31,26.31,0,0,1,4.52-8.46,22.23,22.23,0,0,1,7.57-6,23.79,23.79,0,0,1,10.68-2.26,23.47,23.47,0,0,1,10.62,2.26,22.78,22.78,0,0,1,7.56,6,25.7,25.7,0,0,1,4.58,8.46A31.58,31.58,0,0,1,904,237.79Zm-12.82,0a24,24,0,0,0-.74-6,14.69,14.69,0,0,0-2.21-4.9,11,11,0,0,0-3.58-3.27,9.64,9.64,0,0,0-4.93-1.22,9.74,9.74,0,0,0-5,1.22,11.11,11.11,0,0,0-3.57,3.27,14.69,14.69,0,0,0-2.21,4.9,24,24,0,0,0-.73,6,23.74,23.74,0,0,0,.73,6.06,15.92,15.92,0,0,0,2.16,4.91,10.3,10.3,0,0,0,3.57,3.32,10,10,0,0,0,5,1.22,9.64,9.64,0,0,0,4.93-1.22,11,11,0,0,0,3.58-3.32,15.31,15.31,0,0,0,2.21-4.91A23.73,23.73,0,0,0,891.2,237.74Z"/><path class="cls-1" d="M945.93,263.34V234.42c0-3.85-.8-6.83-2.42-8.93a8,8,0,0,0-6.72-3.16,10.59,10.59,0,0,0-5.63,1.58,24.22,24.22,0,0,0-4.47,3.47v36h-13V212.66h11.89l.63,4a23.4,23.4,0,0,1,14.61-5.25,21.57,21.57,0,0,1,7.36,1.21,14.27,14.27,0,0,1,5.78,3.83,17.67,17.67,0,0,1,3.73,6.84A34,34,0,0,1,959,233.37v30Z"/><path class="cls-1" d="M981.32,241.26q.42,6.42,4,9.25a14.54,14.54,0,0,0,9.29,2.84,24.48,24.48,0,0,0,5-.48,22.67,22.67,0,0,0,4.12-1.2,25.18,25.18,0,0,0,3.06-1.48,9.2,9.2,0,0,0,1.9-1.36l3.47,10.62a26.28,26.28,0,0,1-2.37,1.42,25.3,25.3,0,0,1-4,1.68,42.91,42.91,0,0,1-5.68,1.36,40.63,40.63,0,0,1-7.15.59,28.08,28.08,0,0,1-9.41-1.58,20.9,20.9,0,0,1-7.83-4.89,23.93,23.93,0,0,1-5.37-8.26,31.33,31.33,0,0,1-2-11.77,32.37,32.37,0,0,1,1.85-11.36,23.83,23.83,0,0,1,5-8.3,22,22,0,0,1,7.47-5.15,23.07,23.07,0,0,1,9.09-1.79,24.74,24.74,0,0,1,8.94,1.58,18.24,18.24,0,0,1,7.09,4.89,23.57,23.57,0,0,1,4.74,8.56,40.34,40.34,0,0,1,1.73,12.51v2.32ZM1001,231.9a13.34,13.34,0,0,0-1.11-4.57,9.81,9.81,0,0,0-2.22-3.16,9,9,0,0,0-2.85-1.79,8.91,8.91,0,0,0-3.12-.57,10,10,0,0,0-6.45,2.52q-3.06,2.52-3.59,7.57Z"/><path class="cls-1" d="M526.2,373.49V303.36h45.31v12.72H539.66v16.61H565.1V345.2H539.66v28.29Z"/><path class="cls-1" d="M622.6,347.94a31.73,31.73,0,0,1-1.53,9.72,26.73,26.73,0,0,1-4.51,8.57,22.46,22.46,0,0,1-7.58,6.1,25.8,25.8,0,0,1-21.34,0,22.42,22.42,0,0,1-7.57-6.1,26.75,26.75,0,0,1-4.52-8.57,31.73,31.73,0,0,1-1.53-9.72,31.29,31.29,0,0,1,1.53-9.68,26.31,26.31,0,0,1,4.52-8.46,22.28,22.28,0,0,1,7.57-6,23.91,23.91,0,0,1,10.67-2.25,23.54,23.54,0,0,1,10.62,2.25,22.87,22.87,0,0,1,7.57,6,25.49,25.49,0,0,1,4.57,8.46A31.29,31.29,0,0,1,622.6,347.94Zm-12.83-.06a24.43,24.43,0,0,0-.73-6,14.6,14.6,0,0,0-2.21-4.9,11,11,0,0,0-3.58-3.27,10.61,10.61,0,0,0-9.88,0A11.11,11.11,0,0,0,589.8,337a14.4,14.4,0,0,0-2.21,4.9,25,25,0,0,0,0,12.08,16.14,16.14,0,0,0,2.15,4.91,10.52,10.52,0,0,0,3.58,3.32,10,10,0,0,0,5,1.21,9.67,9.67,0,0,0,4.94-1.21,11.09,11.09,0,0,0,3.58-3.32A15.31,15.31,0,0,0,609,354,24.22,24.22,0,0,0,609.77,347.88Z"/><path class="cls-1" d="M649.9,374.54q-8.94,0-13.57-5.37T631.7,353V322.81h13v28.81a16.74,16.74,0,0,0,1.9,8.51c1.26,2.18,3.43,3.26,6.51,3.26a12.55,12.55,0,0,0,6.42-1.52,27.35,27.35,0,0,0,4.2-2.9V322.81h13v50.68h-12l-.42-4a19.21,19.21,0,0,1-7.2,4A27.28,27.28,0,0,1,649.9,374.54Z"/><path class="cls-1" d="M721.56,373.49V344.57q0-5.77-2.42-8.93a8,8,0,0,0-6.73-3.16,10.64,10.64,0,0,0-5.63,1.58,24.14,24.14,0,0,0-4.46,3.47v36h-13V322.81h11.88l.63,4a23.3,23.3,0,0,1,14.62-5.25,21.81,21.81,0,0,1,7.36,1.2,14.4,14.4,0,0,1,5.78,3.84,17.85,17.85,0,0,1,3.73,6.84,33.92,33.92,0,0,1,1.32,10.09v30Z"/><path class="cls-1" d="M777.54,373.49l-.53-3.9a16.23,16.23,0,0,1-4.72,3.53,14.87,14.87,0,0,1-6.92,1.52,18.63,18.63,0,0,1-9.22-2.21,20.9,20.9,0,0,1-6.71-5.88A27.24,27.24,0,0,1,745.3,358a35.86,35.86,0,0,1-1.41-10.09,32.47,32.47,0,0,1,1.47-9.68,25.4,25.4,0,0,1,4.45-8.46,22.31,22.31,0,0,1,7.5-6,23.4,23.4,0,0,1,10.58-2.25,28.63,28.63,0,0,1,8.59,1.45V303.36h13v70.13ZM776.48,334a19.15,19.15,0,0,0-7-1.48,12.25,12.25,0,0,0-5.76,1.26,11.37,11.37,0,0,0-4,3.44,15.63,15.63,0,0,0-2.36,4.85,19.77,19.77,0,0,0-.78,5.54,26.61,26.61,0,0,0,.68,6.06,15.9,15.9,0,0,0,2.09,5.07,11.26,11.26,0,0,0,3.56,3.48A9.48,9.48,0,0,0,768,363.5a10.54,10.54,0,0,0,4.92-1.32,8.62,8.62,0,0,0,3.55-3.11Z"/><path class="cls-1" d="M828.72,373.44l-.52-3.79a14.35,14.35,0,0,1-5.38,3.66,18.81,18.81,0,0,1-7.18,1.33,18.24,18.24,0,0,1-6.28-1.1,16.89,16.89,0,0,1-5.33-3.15,15.49,15.49,0,0,1-5.16-11.84,14.4,14.4,0,0,1,1.47-6.67,14.76,14.76,0,0,1,4-4.89,22.13,22.13,0,0,1,5.81-3.26,36.51,36.51,0,0,1,6.86-1.89,48.54,48.54,0,0,1,5.54-.79c2-.18,3.67-.33,5-.48v-.73q0-4.2-2.17-6a9.05,9.05,0,0,0-6-1.79,16.11,16.11,0,0,0-4.22.53,18.49,18.49,0,0,0-3.6,1.31,27.17,27.17,0,0,0-2.8,1.58,17.88,17.88,0,0,0-1.95,1.42l-4.31-9.15a19.45,19.45,0,0,1,2.57-1.79,30.17,30.17,0,0,1,4.21-2,34.68,34.68,0,0,1,5.57-1.68,31.36,31.36,0,0,1,6.68-.68,25.07,25.07,0,0,1,7.67,1.1,15.32,15.32,0,0,1,6,3.47,16.16,16.16,0,0,1,4,6,24.23,24.23,0,0,1,1.42,8.77v32.57Zm-1.05-23.72c-1.41.08-2.85.2-4.33.37s-2.9.41-4.24.68q-4.23.86-5.87,2.89a7,7,0,0,0-1.64,4.47,5,5,0,0,0,1.85,4.05,8,8,0,0,0,5.24,1.53,12.09,12.09,0,0,0,4.92-1,14.29,14.29,0,0,0,4.07-2.64Z"/><path class="cls-1" d="M867.75,374.64q-6.78,0-10.06-3.79a13.4,13.4,0,0,1-3.29-9.14V333.32h-7.15V322.81h7.15V309.66h13v13.15h11.67v10.51H867.44v25.76a3.67,3.67,0,0,0,3.89,4.31,10.57,10.57,0,0,0,6.72-2.21l3.37,9.36a20.87,20.87,0,0,1-6,2.95A25,25,0,0,1,867.75,374.64Z"/><path class="cls-1" d="M895,318.07c-2.66,0-4.64-.76-5.94-2.31a7.83,7.83,0,0,1-1.94-5.15,7.74,7.74,0,0,1,1.94-5.05q2-2.31,5.94-2.31a7.22,7.22,0,0,1,5.84,2.31,7.7,7.7,0,0,1,2,5.05,7.79,7.79,0,0,1-2,5.15C899.5,317.31,897.55,318.07,895,318.07Zm-6.52,55.42V322.81h13v50.68Z"/><path class="cls-1" d="M959.29,347.94a31.73,31.73,0,0,1-1.53,9.72,26.75,26.75,0,0,1-4.52,8.57,22.42,22.42,0,0,1-7.57,6.1,25.8,25.8,0,0,1-21.34,0,22.32,22.32,0,0,1-7.57-6.1,26.55,26.55,0,0,1-4.52-8.57,31.73,31.73,0,0,1-1.53-9.72,31.29,31.29,0,0,1,1.53-9.68,26.12,26.12,0,0,1,4.52-8.46,22.18,22.18,0,0,1,7.57-6A23.88,23.88,0,0,1,935,321.55a23.6,23.6,0,0,1,10.62,2.25,23,23,0,0,1,7.57,6,25.86,25.86,0,0,1,4.57,8.46A31.29,31.29,0,0,1,959.29,347.94Zm-12.83-.06a24,24,0,0,0-.74-6,14.58,14.58,0,0,0-2.2-4.9,11.15,11.15,0,0,0-3.58-3.27,10.61,10.61,0,0,0-9.88,0,11.15,11.15,0,0,0-3.58,3.27,14.79,14.79,0,0,0-2.21,4.9,25.35,25.35,0,0,0,0,12.08,16.4,16.4,0,0,0,2.16,4.91,10.58,10.58,0,0,0,3.57,3.32,10,10,0,0,0,5,1.21,9.7,9.7,0,0,0,4.94-1.21,11.2,11.2,0,0,0,3.58-3.32,15.29,15.29,0,0,0,2.2-4.91A23.75,23.75,0,0,0,946.46,347.88Z"/><path class="cls-1" d="M1001.2,373.49V344.57q0-5.77-2.42-8.93a8,8,0,0,0-6.73-3.16,10.62,10.62,0,0,0-5.63,1.58,24.56,24.56,0,0,0-4.47,3.47v36h-13V322.81H980.8l.63,4a22.65,22.65,0,0,1,6.88-3.89,23,23,0,0,1,7.73-1.36,21.73,21.73,0,0,1,7.36,1.2,14.43,14.43,0,0,1,5.79,3.84,17.85,17.85,0,0,1,3.73,6.84,33.94,33.94,0,0,1,1.31,10.09v30Z"/><circle class="cls-1" cx="283.09" cy="283.24" r="141.73"/><path class="cls-2" d="M284.21,362.27c-38.94.13-79.45-33.1-79.63-86.47-.12-35.29,18.92-69.27,43.26-89.42,23.74-19.66,56.26-32.27,85.76-32.37,3.8,0,7.77.3,10.2,1.12-25.79,5.35-46.32,29.35-46.23,56.59a16.88,16.88,0,0,0,.17,2.3c43.16,10.52,62.75,36.56,62.87,72.59S332.29,362.11,284.21,362.27Z"/></svg>