<?xml version="1.0" encoding="iso-8859-1"?>
<!-- Generator: Adobe Illustrator 18.1.1, SVG Export Plug-In . SVG Version: 6.00 Build 0)  -->
<!DOCTYPE svg PUBLIC "-//W3C//DTD SVG 1.1//EN" "http://www.w3.org/Graphics/SVG/1.1/DTD/svg11.dtd">
<svg version="1.1" xmlns="http://www.w3.org/2000/svg" xmlns:xlink="http://www.w3.org/1999/xlink" x="0px" y="0px"
	 viewBox="0 0 48.073 47.963" style="enable-background:new 0 0 48.073 47.963;" xml:space="preserve">
<g id="addiction">
	<g id="XMLID_488_">
		<g id="XMLID_495_">
			<path style="fill:#231F20;" d="M32.424,39.527c-0.209,0-0.42-0.044-0.619-0.134l-6.196-2.807
				c-0.164-0.074-0.314-0.178-0.441-0.306L7.076,18.189c-0.586-0.586-0.586-1.535,0-2.121s1.535-0.586,2.121,0l17.899,17.898
				l5.001,2.266l4.135-4.135l-2.266-5.001L16.068,9.197c-0.586-0.586-0.586-1.535,0-2.121s1.535-0.586,2.121,0l18.092,18.092
				c0.128,0.128,0.231,0.277,0.306,0.441l2.808,6.195c0.258,0.569,0.136,1.238-0.306,1.68l-5.604,5.604
				C33.198,39.375,32.813,39.527,32.424,39.527z"/>
		</g>
		<g id="XMLID_494_">
			<path style="fill:#231F20;" d="M10.382,16.383c-0.384,0-0.768-0.146-1.061-0.439L2.958,9.579
				C2.676,9.298,2.518,8.916,2.518,8.519s0.158-0.779,0.439-1.061l4.501-4.5c0.586-0.586,1.535-0.586,2.121,0l6.364,6.363
				c0.586,0.586,0.586,1.535,0,2.121s-1.535,0.586-2.121,0L8.519,6.14L6.14,8.519l5.303,5.304c0.586,0.586,0.586,1.535,0,2.121
				C11.15,16.236,10.766,16.383,10.382,16.383z"/>
		</g>
		<g id="XMLID_492_">
			<path style="fill:#231F20;" d="M46.463,47.963c-0.384,0-0.768-0.146-1.061-0.439L34.699,36.82c-0.586-0.586-0.586-1.535,0-2.121
				s1.535-0.586,2.121,0l10.703,10.703c0.586,0.586,0.586,1.535,0,2.121C47.23,47.816,46.847,47.963,46.463,47.963z"/>
		</g>
		<g id="XMLID_491_">
			<path style="fill:#231F20;" d="M1.5,12.537c-0.384,0-0.768-0.146-1.061-0.439c-0.586-0.586-0.586-1.535,0-2.121l9.537-9.537
				c0.586-0.586,1.535-0.586,2.121,0s0.586,1.535,0,2.121l-9.537,9.537C2.268,12.391,1.884,12.537,1.5,12.537z"/>
		</g>
		<g id="XMLID_490_">
			<path style="fill:#231F20;" d="M4.967,21.798c-0.384,0-0.768-0.146-1.061-0.439c-0.586-0.586-0.586-1.535,0-2.121L11.144,12
				c0.586-0.586,1.535-0.586,2.121,0s0.586,1.535,0,2.121l-7.237,7.237C5.735,21.651,5.351,21.798,4.967,21.798z"/>
		</g>
		<g id="XMLID_489_">
			<path style="fill:#231F20;" d="M26.035,36.562c-0.384,0-0.768-0.146-1.061-0.439c-0.586-0.586-0.586-1.535,0-2.121l4.792-4.792
				c0.586-0.586,1.535-0.586,2.121,0s0.586,1.535,0,2.121l-4.792,4.792C26.802,36.416,26.418,36.562,26.035,36.562z"/>
		</g>
	</g>
	<g id="XMLID_486_">
		<g id="XMLID_487_">
			<path style="fill:#231F20;" d="M7.384,47.73c-1.823,0-3.537-0.71-4.826-1.999c-2.661-2.661-2.661-6.991,0-9.652
				c1.289-1.289,3.003-1.999,4.826-1.999c1.823,0,3.537,0.71,4.826,1.999c2.661,2.661,2.661,6.991,0,9.652
				C10.921,47.021,9.207,47.73,7.384,47.73z M7.384,37.08c-1.022,0-1.982,0.398-2.705,1.12c-1.491,1.491-1.491,3.919,0,5.41
				c1.445,1.442,3.964,1.444,5.41,0c1.491-1.491,1.491-3.919,0-5.41C9.366,37.479,8.406,37.08,7.384,37.08z"/>
		</g>
	</g>
	<g id="XMLID_482_">
		<g id="XMLID_484_">
			<path style="fill:#231F20;" d="M41.627,17.953c-1.727,0-3.346-0.669-4.56-1.883l-4.999-4.999
				c-1.214-1.214-1.883-2.834-1.883-4.56c0-1.727,0.669-3.346,1.883-4.56s2.833-1.883,4.56-1.883s3.346,0.669,4.56,1.883
				l4.999,4.998c2.515,2.515,2.515,6.605,0,9.12C44.973,17.284,43.354,17.953,41.627,17.953z M36.628,3.069
				c-0.925,0-1.791,0.356-2.439,1.004c-0.647,0.647-1.004,1.514-1.004,2.438s0.357,1.791,1.004,2.438l4.999,4.999
				c1.296,1.295,3.582,1.295,4.878,0c1.345-1.345,1.345-3.533,0-4.878l-4.999-4.998C38.419,3.426,37.553,3.069,36.628,3.069z"/>
		</g>
		<g id="XMLID_483_">
			<path style="fill:#231F20;" d="M35.946,13.693c-0.384,0-0.768-0.146-1.061-0.439c-0.586-0.585-0.586-1.535,0-2.121l3.182-3.183
				c0.586-0.586,1.536-0.586,2.122,0c0.586,0.585,0.586,1.535,0,2.121l-3.182,3.183C36.714,13.547,36.33,13.693,35.946,13.693z"/>
		</g>
	</g>
	<g id="XMLID_481_">
		<path style="fill:#231F20;" d="M14.883,11.882c-0.384,0-0.768-0.146-1.061-0.439c-0.586-0.586-0.586-1.535,0-2.121l4.673-4.672
			c0.586-0.586,1.536-0.586,2.121,0c0.586,0.586,0.586,1.535,0,2.121l-4.673,4.672C15.65,11.735,15.267,11.882,14.883,11.882z"/>
	</g>
</g>
<g id="Layer_1">
</g>
</svg>
