<?xml version="1.0" encoding="iso-8859-1"?>
<!-- Generator: Adobe Illustrator 18.1.1, SVG Export Plug-In . SVG Version: 6.00 Build 0)  -->
<!DOCTYPE svg PUBLIC "-//W3C//DTD SVG 1.1//EN" "http://www.w3.org/Graphics/SVG/1.1/DTD/svg11.dtd">
<svg version="1.1" xmlns="http://www.w3.org/2000/svg" xmlns:xlink="http://www.w3.org/1999/xlink" x="0px" y="0px"
	 viewBox="0 0 59.681 51.046" style="enable-background:new 0 0 59.681 51.046;" xml:space="preserve">
<g id="things">
	<g id="XMLID_602_">
		<g id="XMLID_607_">
			<g id="XMLID_610_">
				<path style="fill:#231F20;" d="M35.992,41.451H15.114c-0.829,0-1.5-0.672-1.5-1.5V16.882L8.139,20.26
					c-0.689,0.427-1.591,0.228-2.038-0.447l-5.852-8.828c-0.222-0.336-0.3-0.747-0.217-1.142C0.117,9.449,0.355,9.105,0.695,8.89
					l11.793-7.498C13.92,0.481,15.574,0,17.271,0h5.516c0.742,0,1.372,0.542,1.483,1.275c0.414,2.732,2.808,4.793,5.571,4.793
					s5.157-2.061,5.57-4.793C35.522,0.542,36.152,0,36.894,0h5.516c1.697,0,3.352,0.481,4.782,1.392L58.986,8.89
					c0.34,0.216,0.579,0.56,0.662,0.953c0.084,0.395,0.006,0.806-0.217,1.142l-5.852,8.828c-0.447,0.675-1.35,0.871-2.037,0.447
					l-5.476-3.378v7.673c0,0.828-0.672,1.5-1.5,1.5s-1.5-0.672-1.5-1.5v-10.36c0-0.544,0.294-1.045,0.769-1.31
					c0.474-0.266,1.057-0.254,1.519,0.033l6.527,4.026l4.205-6.344L45.583,3.923C44.634,3.319,43.536,3,42.41,3h-4.327
					c-1.111,3.536-4.451,6.068-8.242,6.068S22.71,6.536,21.599,3h-4.328c-1.126,0-2.223,0.319-3.173,0.923L3.595,10.601L7.8,16.944
					l6.527-4.026c0.463-0.285,1.044-0.298,1.519-0.033s0.769,0.766,0.769,1.31v24.257h19.378c0.828,0,1.5,0.672,1.5,1.5
					S36.82,41.451,35.992,41.451z"/>
			</g>
		</g>
		<g id="XMLID_606_">
			<path style="fill:#231F20;" d="M51.146,51.046H37.989c-1.728,0-3.133-1.405-3.133-3.133V36.612c0-1.717,0.894-3.28,2.308-4.166
				v-1.048c0-0.828,0.672-1.5,1.5-1.5s1.5,0.672,1.5,1.5v1.983c0,0.641-0.406,1.21-1.012,1.418
				c-0.775,0.268-1.296,0.995-1.296,1.812v11.301c0,0.073,0.06,0.133,0.133,0.133h13.157c0.073,0,0.133-0.06,0.133-0.133V36.612
				c0-0.817-0.521-1.545-1.297-1.812c-0.605-0.208-1.012-0.777-1.012-1.418v-1.983c0-0.828,0.672-1.5,1.5-1.5s1.5,0.672,1.5,1.5
				v1.048c1.414,0.886,2.309,2.449,2.309,4.166v11.301C54.279,49.641,52.874,51.046,51.146,51.046z"/>
		</g>
		<g id="XMLID_605_">
			<path style="fill:#231F20;" d="M51.374,32.145h-2.896c-0.828,0-1.5-0.672-1.5-1.5s0.672-1.5,1.5-1.5h1.396v-1.668
				c0-0.509-0.413-0.922-0.922-0.922h-8.769c-0.509,0-0.923,0.413-0.923,0.922v1.668h4.532c0.828,0,1.5,0.672,1.5,1.5
				s-0.672,1.5-1.5,1.5h-6.032c-0.828,0-1.5-0.672-1.5-1.5v-3.168c0-2.162,1.76-3.922,3.923-3.922h8.769
				c2.162,0,3.922,1.76,3.922,3.922v3.168C52.874,31.473,52.202,32.145,51.374,32.145z"/>
		</g>
	</g>
</g>
<g id="Layer_1">
</g>
</svg>
