<?xml version="1.0" encoding="iso-8859-1"?>
<!-- Generator: Adobe Illustrator 18.1.1, SVG Export Plug-In . SVG Version: 6.00 Build 0)  -->
<!DOCTYPE svg PUBLIC "-//W3C//DTD SVG 1.1//EN" "http://www.w3.org/Graphics/SVG/1.1/DTD/svg11.dtd">
<svg version="1.1" xmlns="http://www.w3.org/2000/svg" xmlns:xlink="http://www.w3.org/1999/xlink" x="0px" y="0px"
	 viewBox="0 0 38.532 38.533" style="enable-background:new 0 0 38.532 38.533;" xml:space="preserve">
<g id="loading">
	<g>
		<path style="fill:#231F20;" d="M19.267,9.199c-0.607,0-1.1-0.492-1.1-1.1v-7c0-0.607,0.492-1.1,1.1-1.1s1.1,0.492,1.1,1.1v7
			C20.366,8.707,19.874,9.199,19.267,9.199z"/>
	</g>
	<g>
		<path style="fill:#231F20;" d="M13.684,10.696c-0.38,0-0.75-0.197-0.953-0.551l-3.5-6.062C8.926,3.559,9.106,2.886,9.633,2.582
			c0.525-0.305,1.199-0.124,1.502,0.402l3.5,6.062c0.305,0.525,0.124,1.198-0.402,1.502C14.06,10.648,13.87,10.696,13.684,10.696z"
			/>
	</g>
	<g>
		<path style="fill:#231F20;" d="M9.595,14.784c-0.187,0-0.376-0.048-0.549-0.147l-6.062-3.5C2.457,10.832,2.276,10.16,2.58,9.634
			C2.885,9.106,3.558,8.928,4.083,9.23l6.062,3.5c0.526,0.305,0.707,0.977,0.403,1.503C10.345,14.587,9.975,14.784,9.595,14.784z"/>
	</g>
	<g>
		<path style="fill:#231F20;" d="M8.1,20.366h-7c-0.607,0-1.1-0.492-1.1-1.1s0.492-1.1,1.1-1.1h7c0.607,0,1.1,0.492,1.1,1.1
			S8.707,20.366,8.1,20.366z"/>
	</g>
	<g>
		<path style="fill:#231F20;" d="M3.534,29.45c-0.38,0-0.75-0.197-0.954-0.551c-0.304-0.526-0.123-1.198,0.403-1.503l6.062-3.5
			c0.525-0.302,1.199-0.124,1.503,0.403c0.304,0.526,0.123,1.198-0.403,1.503l-6.062,3.5C3.91,29.402,3.721,29.45,3.534,29.45z"/>
	</g>
	<g>
		<path style="fill:#231F20;" d="M10.182,36.101c-0.187,0-0.376-0.048-0.549-0.147c-0.526-0.305-0.707-0.977-0.403-1.503l3.5-6.062
			c0.304-0.527,0.978-0.706,1.503-0.403c0.526,0.305,0.707,0.977,0.403,1.503l-3.5,6.062C10.932,35.903,10.562,36.101,10.182,36.101
			z"/>
	</g>
	<g>
		<path style="fill:#231F20;" d="M19.267,38.533c-0.607,0-1.1-0.492-1.1-1.1v-7c0-0.607,0.492-1.1,1.1-1.1s1.1,0.492,1.1,1.1v7
			C20.366,38.041,19.874,38.533,19.267,38.533z"/>
	</g>
	<g>
		<path style="fill:#231F20;" d="M28.351,36.101c-0.38,0-0.75-0.197-0.954-0.551l-3.5-6.062c-0.304-0.526-0.123-1.198,0.403-1.503
			c0.525-0.302,1.199-0.123,1.503,0.403l3.5,6.062c0.304,0.526,0.123,1.198-0.403,1.503C28.727,36.053,28.537,36.101,28.351,36.101z
			"/>
	</g>
	<g>
		<path style="fill:#231F20;" d="M34.998,29.45c-0.187,0-0.376-0.048-0.549-0.147l-6.062-3.5c-0.526-0.305-0.707-0.977-0.403-1.503
			c0.304-0.527,0.979-0.706,1.503-0.403l6.062,3.5c0.526,0.305,0.707,0.977,0.403,1.503C35.748,29.253,35.378,29.45,34.998,29.45z"
			/>
	</g>
	<g>
		<path style="fill:#231F20;" d="M37.433,20.366h-7c-0.607,0-1.1-0.492-1.1-1.1s0.492-1.1,1.1-1.1h7c0.607,0,1.1,0.492,1.1,1.1
			S38.04,20.366,37.433,20.366z"/>
	</g>
	<g>
		<path style="fill:#231F20;" d="M28.938,14.784c-0.38,0-0.75-0.197-0.954-0.551c-0.304-0.526-0.123-1.198,0.403-1.503l6.062-3.5
			c0.525-0.302,1.199-0.123,1.503,0.403s0.123,1.198-0.403,1.503l-6.062,3.5C29.313,14.736,29.124,14.784,28.938,14.784z"/>
	</g>
	<g>
		<path style="fill:#231F20;" d="M24.849,10.696c-0.187,0-0.376-0.048-0.549-0.148c-0.526-0.304-0.707-0.977-0.402-1.502l3.5-6.062
			c0.303-0.526,0.977-0.708,1.502-0.402c0.526,0.304,0.707,0.977,0.402,1.502l-3.5,6.062C25.599,10.499,25.229,10.696,24.849,10.696
			z"/>
	</g>
</g>
<g id="Layer_1">
</g>
</svg>
