<?xml version="1.0" encoding="utf-8"?>
<!-- Generator: Adobe Illustrator 23.1.0, SVG Export Plug-In . SVG Version: 6.00 Build 0)  -->
<svg version="1.1" id="Layer_1" xmlns="http://www.w3.org/2000/svg" xmlns:xlink="http://www.w3.org/1999/xlink" x="0px" y="0px"
	 viewBox="0 0 1080 1080" style="enable-background:new 0 0 1080 1080;" xml:space="preserve">
<style type="text/css">
	.st0{fill:#5A7EBE;}
</style>
<path d="M417.16,530.62c-1.72,0-2.41-2.49-0.44-4.76c6.3-4.51,8.78-5.89,9.13-6.05C429.9,519.81,422.12,530.62,417.16,530.62
	 M624.05,508.44c-3.64-3.19-7.96-2.08-7.96-2.08s0.65,0.99-2.26,3.57c-0.25,0.22-0.96,0.84-1.04,0.92
	c-11.7,9.55-27.53,17.13-43.8,20.31c5.26-3.08,17.95-15.75,9.29-22.11c-5.04-3.71-14-2.09-22.44,2.16c0.98-1.57,3.3-4.94,2.38-9
	c-0.95-4.05-8.68-5.21-12.97-3.68c-0.15,4.18-0.82,6.4-1.54,7.33c-18.95,16.68-43.74,26.56-45.76,24.52
	c-1.65-1.66,3.89-9.14,5.73-11.75c1.54-2.17,1.59-4.8,0.49-6.79c-1.7-3.11-4.88-3.29-10.75-2c-8.13,1.39-13.89-2.02-18.74-9.41
	c-2.38-3.64-8.17-2.91-11.15-0.94c0.74,2.37,0.54,5.23-0.15,7.63c-5,11.58-20.04,11.65-25.74,7.71c-0.81-2.42-2.94-6.88-7.24-7.55
	c-13.29-2.03-17.84,6.13-20.01,8.61c-4.72,5.39-36.66,18.68-44.12,12.6c-5.5-4.47-0.88-20.02,9.61-36.3
	c15.54-24.58,22.59-24.29,25.06-21.8c1.55,1.54,3.05,4.94-0.08,10.95c-0.22,0.44-0.45,0.85-0.68,1.25
	c-5.37,8.81-7.45,8.37-7.45,8.37c-1.76,5.3,0.49,8.18,2.16,9.52c1.79,1.76,4.37,1.16,5.15,0.9c2.64-0.91,4.27-3.22,5.77-5.57
	c7.51-11.67,12.2-30.21-0.1-36.92c-8.82-4.79-23.65,1.69-40.08,28.31c-14.57,23.65-18.69,41.58-8.18,50.4
	c12.8,10.75,39.7-2.73,48.55-6.84c-0.25,1.79,0.46,11.28,9.34,10.78c11.38-0.67,18.42-10.99,21.44-15.99
	c4.45,2.57,23.64,5.58,35.42-12.13c1.28,1.07,8.81,6.69,18.28,6.69c-3.36,6.13-7.88,14.71-1.52,19.75
	c8.92,7.07,39.5-10.94,48.4-16.2c-5.05,9.22-13.86,30.07-22.75,48.54c-3.64,7.61-8.76,17.84-3.38,20.56
	c4.17,2.1,10.43-0.07,11.37-5.55c1.24-7.17,8.15-27.15,13.06-37.95c9.31-20.74,17.69-31.49,31.84-31.49
	c-0.87,1.71-1.36,3.9-6.06,8.6c-5.14,5.12-10.87,4.82-10.57,10.35c0.18,3.26,3.51,4.18,4.43,4.44c7.39,2,27.82-4.09,35.93-7.06
	c9.33-3.41,22.25-9.66,31.63-15.64C627.27,515.64,627.63,511.59,624.05,508.44"/>
<path d="M305.1,486.74c-7.85,0.58-17.36,3.18-20.88,11.08c-2.92,6.53-0.63,13.41,5.5,21.15c3.93,4.79,7.52,9.37,8.54,10.48
	c-2.81,0.6-8.97,0.38-15.14-0.75c-0.03,0-0.06-0.01-0.09-0.02c-1.42-0.26-2.81-0.57-4.18-0.93c-3.49-1.11-4.45-2.51-4.45-2.51
	l-0.5,0.37v-0.02l0.5-0.35c-2.35,0.32-4.32,1.97-5.7,3.78c-1.39,1.81-2.82,5.32-1.61,7c1.03,1.43,3.08,2.22,7,2.36
	c8.75,0.41,24.97,2.72,28.34,3.1c4.65,0.52,7.76-3.34,8.67-5.54c1.23-2.97-0.03-6.23-1.59-8.03c-7.72-8.93-18.54-18.68-14.62-26.84
	c1.8-3.74,10.49-2.99,13.35-2.14c6.13,1.82,9.16-0.4,10.56-4.5C319.67,491.82,318.06,485.78,305.1,486.74"/>
<path d="M145.92,497.03c1.1,1.09-1.23,3.58-3.3,4.91c-5.66,3.68-11.36,5.81-15.45,7.32C131.6,500.2,144.38,494.87,145.92,497.03
	 M277.17,517.55c3.09-1.73,4.33-5.31,1.86-8.27c-2.47-2.97-7.35-2.72-9.54-1.4c-1.82,1.11-3.94,2.23-10.22,2.56
	c-5.92,0.31-8.3-2.23-12.04-2.23c-4.17,0-5.87,2.92-11.05,9.38c-2.64,3.29-8.56,11.25-11.28,11.25c-2.29,0-3.17-6.49-3.17-15.11
	c0-3.91-1.72-7.09-6.17-6.79c-3.71,0.25-4.33,5.07-6.26,7.33c-5.8,6.76-10.47,13.33-12.84,13.33c-2.92,0-4.04-6.46-4.04-11.39
	c0,0,0.9-7.78-6.13-9.16c-3.05-0.58-6.25,1.13-6.25,1.13c0.3,0.58,0.38,1.19,0.33,1.81c-0.9,3.26-7.02,7.91-7.02,7.91
	c-6.55,4.8-19.61,13.62-31.4,14.24c-13.76,0.73-16.17-7.3-16.66-10.45c11.87-4.35,19.78-9.33,24.89-13.29
	c5.44-4.22,9.01-8.88,8.71-13.45c-0.43-6.19-6.04-8.42-10.49-8.42c-9.56,0-25.44,4.13-33.09,25.12c-1.65,0.54-5.55,0.55-7.61,0.02
	c-2.78-0.72-2.74-1.91-2.74-1.91c-2.59,0.68-3.71,1.94-4.62,4.2c-1.46,3.6,0.46,6.69,3.43,8.35c2.16,1.19,5.55,1.94,10.34,1.39
	c0.68,6.36,4.9,18.76,27.44,17.88c17.89-0.69,38.85-15.82,40.73-16.95c0.79,3.67,3.32,16.95,10.94,16.95
	c9.13,0,18.51-14.14,18.51-14.14s2.39,14.14,11.56,14.14c7.68,0,17.28-12.35,19.69-15.18c2-2.38,5.87-6.92,7.99-6.92
	c2.06-0.35,6.18,3.17,17.95,0.81C269.2,520.22,274.52,519.03,277.17,517.55"/>
<path d="M131.24,450.5c0.82-2.17,0.11-4.83-1.25-5.83c-4.48-3.38-8.54-1.5-11.6,1.84c-3.57,3.92-8.2,12.41-10.17,15.57
	c-18.02,29.14-31.76,60.29-31.76,60.29s-4.76-14.5-5.43-26.03c-0.63-10.85-1.13-21.23-1.58-26.31c-0.16-2.03-1.02-5.22-4.57-6.37
	c-2.74-0.9-6.74-1.24-9.52-0.21c-0.23,3.46-0.38,5.14-1.83,9.24c-1.44,4.11-10.72,22.19-12.31,25.01
	c-8.07,14.41-18.73,32.3-19.34,33.46c-2.18,4.03-5.21,9.53-0.02,11.47c5.16,1.95,9.7,0.9,11.93-2.4c0.42-0.63,1.01-1.83,1.01-1.83
	s-1.49-1.24,1.73-8.76c0.95-1.97,2.09-4.3,3.36-6.84c0.25-0.46,0.5-0.92,0.77-1.4c0.4-0.69,0.66-1.28,0.86-1.85
	c5.31-10.48,12.37-24,18.69-35.86c-0.04,6.9,0.52,15.44,1.48,21.64c1.44,12.1,4.4,17.2,5.5,26.86c-0.21,6.52,0.43,7.63,5.18,8.95
	c4.43,1.23,7.02,0,8.69-4.1c6.41-16.2,24.86-53.41,40.52-73.6C123.22,461.32,129.45,455.25,131.24,450.5"/>
<path class="st0" d="M678.92,512.92l16.85-43.36l17.7,43.36H678.92z M692.56,462.8l-31.66,77.59h7.41l8.37-21.69h39.27l8.8,21.69
	h8.16l-32.94-77.59H692.56z"/>
<path class="st0" d="M785.7,486.19h-6.54v28.33c0,10.73-4.08,20.92-16.31,20.92c-11.49,0-13.85-8.58-13.85-18.67v-30.59h-6.54v33.17
	c0,13.62,4.83,21.58,19.32,21.58c7.94,0,13.09-2.8,17.6-9.24l0.21,8.7h6.44c-0.22-5.37-0.32-10.84-0.32-16.21V486.19z"/>
<path class="st0" d="M807.38,499.29c0-6.55,7.08-9.13,12.55-9.13c7.3,0,11.48,3.22,11.91,10.63h6.54
	c-0.32-11.27-8.15-15.88-18.67-15.88c-9.33,0-18.89,4.5-18.89,15.02c0,19.22,32.41,11.38,32.41,25.97c0,7.3-7.51,10.62-13.85,10.62
	c-7.93,0-13.4-3.86-13.4-12.02h-6.45c0,11.91,8.39,16.95,19.54,16.95c10.3,0,20.49-4.94,20.49-16.52
	C839.57,505.72,807.38,513.46,807.38,499.29"/>
<path class="st0" d="M863.5,526.33v-35.31h12.13v-4.83H863.5v-14.05l-6.55,2.9v11.15h-10.73v4.83h10.73v38.21
	c0,7.83,3.65,11.59,11.49,11.59c2.57,0,5.05-0.22,7.62-0.54v-5.58c-1.6,0.09-3.21,0.64-4.94,0.64
	C864.36,535.35,863.5,532.45,863.5,526.33"/>
<path class="st0" d="M896.66,494.67l-0.44-8.48h-6.44c-0.22,5.26,0.33,10.64,0.33,15.88v38.33h6.55v-30.71
	c0-10.73,3.65-17.49,15.24-17.49c1.49,0,2.9,0.22,4.39,0.43v-6.55c-0.96-0.1-2.03-0.22-3-0.22
	C906,485.86,900.62,488.45,896.66,494.67"/>
<path class="st0" d="M939.8,536.85c-6.87,0-13.41-3.87-13.41-11.39c0-12.44,15.45-12.99,24.47-12.99c1.83,0,3.53,0.11,5.36,0.22
	C956.21,524.61,955.24,536.85,939.8,536.85 M962.54,504.22c0-13.41-6.22-18.99-19.64-18.99c-9.55,0-18.89,4.07-19,14.92h6.44
	c0.86-7.73,5.58-9.99,12.55-9.99c9.55,0,13.19,4.73,13.19,13.95c0,1.29,0,2.47-0.1,3.76h-2.79c-13.31,0-33.49,0.53-33.49,17.81
	c0,10.95,9.02,15.88,18.89,15.88c8.05,0,13.62-2.15,18.14-9.01c0.32,2.57,0.65,5.26,0.85,7.83h6.02
	c-0.75-6.76-1.07-13.31-1.07-20.07V504.22z"/>
<rect x="979.5" y="462.79" class="st0" width="6.55" height="77.59"/>
<rect x="1003.42" y="462.8" class="st0" width="7.83" height="8.15"/>
<rect x="1004.07" y="486.19" class="st0" width="6.54" height="54.19"/>
<path class="st0" d="M1045.17,536.85c-6.87,0-13.41-3.87-13.41-11.39c0-12.44,15.45-12.98,24.47-12.98c1.82,0,3.54,0.1,5.36,0.22
	C1061.59,524.61,1060.62,536.85,1045.17,536.85 M1067.93,520.32v-16.1c0-13.41-6.23-19-19.65-19c-9.55,0-18.88,4.08-19,14.93h6.44
	c0.87-7.73,5.59-9.98,12.56-9.98c9.56,0,13.21,4.72,13.21,13.95c0,1.29,0,2.48-0.12,3.75h-2.78c-13.31,0-33.48,0.55-33.48,17.82
	c0,10.95,9.02,15.88,18.88,15.88c8.05,0,13.63-2.14,18.15-9.01c0.3,2.57,0.63,5.25,0.85,7.83h6.02
	C1068.24,533.63,1067.93,527.08,1067.93,520.32"/>
</svg>
