<?xml version="1.0" encoding="iso-8859-1"?>
<!-- Generator: Adobe Illustrator 18.1.1, SVG Export Plug-In . SVG Version: 6.00 Build 0)  -->
<!DOCTYPE svg PUBLIC "-//W3C//DTD SVG 1.1//EN" "http://www.w3.org/Graphics/SVG/1.1/DTD/svg11.dtd">
<svg version="1.1" xmlns="http://www.w3.org/2000/svg" xmlns:xlink="http://www.w3.org/1999/xlink" x="0px" y="0px"
	 viewBox="0 0 16.878 16.878" style="enable-background:new 0 0 16.878 16.878;" xml:space="preserve">
<g id="cross">
	<g id="XMLID_613_">
		<path style="fill:#231F20;" d="M1.177,16.878c-0.279,0-0.56-0.105-0.773-0.317c-0.432-0.428-0.436-1.124-0.009-1.556L14.919,0.327
			c0.429-0.433,1.125-0.436,1.556-0.009c0.432,0.428,0.436,1.124,0.009,1.556L1.959,16.552C1.743,16.77,1.46,16.878,1.177,16.878z"
			/>
	</g>
	<g id="XMLID_609_">
		<path style="fill:#231F20;" d="M15.778,16.801c-0.279,0-0.56-0.105-0.773-0.317L0.326,1.959c-0.432-0.428-0.436-1.124-0.009-1.556
			c0.429-0.432,1.125-0.437,1.556-0.009l14.679,14.524c0.432,0.428,0.436,1.124,0.009,1.556
			C16.345,16.693,16.062,16.801,15.778,16.801z"/>
	</g>
</g>
<g id="Layer_1">
</g>
</svg>
