<?xml version="1.0" encoding="iso-8859-1"?>
<!-- Generator: Adobe Illustrator 18.1.1, SVG Export Plug-In . SVG Version: 6.00 Build 0)  -->
<!DOCTYPE svg PUBLIC "-//W3C//DTD SVG 1.1//EN" "http://www.w3.org/Graphics/SVG/1.1/DTD/svg11.dtd">
<svg version="1.1" xmlns="http://www.w3.org/2000/svg" xmlns:xlink="http://www.w3.org/1999/xlink" x="0px" y="0px"
	 viewBox="0 0 64 64" style="enable-background:new 0 0 64 64;" xml:space="preserve">
<g id="demographic-family-violence">
	<g id="XMLID_1120_">
		<g id="XMLID_1121_">
			<path style="fill:#231F20;" d="M34.798,54.854h-5.775c-7.082,0-12.843-5.762-12.843-12.843V22.047
				c0-2.396,1.95-4.346,4.346-4.346c0.49,0,0.962,0.082,1.402,0.232c0.335-2.065,2.131-3.647,4.29-3.647
				c0.535,0,1.048,0.097,1.521,0.275c0.53-1.802,2.199-3.121,4.17-3.121c1.972,0,3.641,1.319,4.171,3.121
				c0.474-0.178,0.986-0.275,1.521-0.275c2.396,0,4.346,1.95,4.346,4.346v8.39c0.424-0.139,0.877-0.213,1.347-0.213
				c2.396,0,4.346,1.95,4.346,4.346v10.856C47.641,49.092,41.879,54.854,34.798,54.854z M20.526,20.701
				c-0.742,0-1.346,0.604-1.346,1.346v19.963c0,5.428,4.416,9.843,9.843,9.843h5.775c5.428,0,9.843-4.415,9.843-9.843V31.154
				c0-0.742-0.604-1.346-1.346-1.346s-1.347,0.604-1.347,1.346c0,0.829-0.672,1.5-1.5,1.5s-1.5-0.671-1.5-1.5V18.632
				c0-0.742-0.604-1.346-1.346-1.346s-1.346,0.604-1.346,1.346c0,0.829-0.672,1.5-1.5,1.5s-1.5-0.671-1.5-1.5v-2.846
				c0-0.742-0.604-1.346-1.347-1.346c-0.742,0-1.346,0.604-1.346,1.346v2.846c0,0.829-0.671,1.5-1.5,1.5s-1.5-0.671-1.5-1.5
				c0-0.742-0.604-1.346-1.346-1.346s-1.346,0.604-1.346,1.346v3.416c0,0.829-0.671,1.5-1.5,1.5s-1.5-0.671-1.5-1.5
				C21.872,21.305,21.268,20.701,20.526,20.701z"/>
		</g>
		<g id="XMLID_1118_">
			<path style="fill:#231F20;" d="M32.311,42.925c-0.377,0-0.753-0.141-1.045-0.424c-0.594-0.577-0.608-1.527-0.031-2.121
				c2.44-2.512,5.711-3.896,9.213-3.896c0.828,0,1.5,0.672,1.5,1.5s-0.672,1.5-1.5,1.5c-2.684,0-5.191,1.061-7.062,2.985
				C33.093,42.772,32.702,42.925,32.311,42.925z"/>
		</g>
		<g id="XMLID_1117_">
			<path style="fill:#231F20;" d="M23.372,34.362c-0.829,0-1.5-0.671-1.5-1.5V22.047c0-0.742-0.604-1.346-1.346-1.346
				s-1.346,0.604-1.346,1.346v10.815c0,0.829-0.671,1.5-1.5,1.5s-1.5-0.671-1.5-1.5V22.047c0-2.396,1.95-4.346,4.346-4.346
				s4.346,1.95,4.346,4.346v10.815C24.872,33.691,24.201,34.362,23.372,34.362z"/>
		</g>
		<g id="XMLID_1116_">
			<path style="fill:#231F20;" d="M29.064,34.362c-0.829,0-1.5-0.671-1.5-1.5v-14.23c0-0.742-0.604-1.346-1.346-1.346
				s-1.346,0.604-1.346,1.346v14.23c0,0.829-0.671,1.5-1.5,1.5s-1.5-0.671-1.5-1.5v-14.23c0-2.396,1.95-4.346,4.346-4.346
				c2.396,0,4.346,1.95,4.346,4.346v14.23C30.564,33.691,29.893,34.362,29.064,34.362z"/>
		</g>
		<g id="XMLID_1122_">
			<path style="fill:#231F20;" d="M34.757,34.362c-0.828,0-1.5-0.671-1.5-1.5V15.786c0-0.742-0.604-1.346-1.347-1.346
				c-0.742,0-1.346,0.604-1.346,1.346v17.077c0,0.829-0.671,1.5-1.5,1.5s-1.5-0.671-1.5-1.5V15.786c0-2.396,1.95-4.346,4.346-4.346
				s4.347,1.95,4.347,4.346v17.077C36.257,33.691,35.585,34.362,34.757,34.362z"/>
		</g>
		<g id="XMLID_1113_">
			<path style="fill:#231F20;" d="M40.448,34.362c-0.828,0-1.5-0.671-1.5-1.5v-14.23c0-0.742-0.604-1.346-1.346-1.346
				s-1.346,0.604-1.346,1.346v14.23c0,0.829-0.672,1.5-1.5,1.5s-1.5-0.671-1.5-1.5v-14.23c0-2.396,1.949-4.346,4.346-4.346
				s4.346,1.95,4.346,4.346v14.23C41.948,33.691,41.276,34.362,40.448,34.362z"/>
		</g>
		<g id="XMLID_438_">
			<path style="fill:#231F20;" d="M46.141,42.33c-0.828,0-1.5-0.672-1.5-1.5v-9.676c0-0.742-0.604-1.346-1.346-1.346
				s-1.347,0.604-1.347,1.346v6.83c0,0.828-0.672,1.5-1.5,1.5s-1.5-0.672-1.5-1.5v-6.83c0-2.396,1.95-4.346,4.347-4.346
				s4.346,1.95,4.346,4.346v9.676C47.641,41.658,46.969,42.33,46.141,42.33z"/>
		</g>
	</g>
	<g id="XMLID_1123_">
		<path style="fill:#231F20;" d="M11.099,55.458c-0.384,0-0.768-0.146-1.061-0.439c-0.586-0.586-0.586-1.535,0-2.121l41.623-41.623
			c0.586-0.586,1.535-0.586,2.121,0c0.586,0.585,0.586,1.536,0,2.121L12.159,55.019C11.866,55.312,11.482,55.458,11.099,55.458z"/>
	</g>
</g>
<g id="Layer_1">
</g>
</svg>
