<?xml version="1.0" encoding="iso-8859-1"?>
<!-- Generator: Adobe Illustrator 18.1.1, SVG Export Plug-In . SVG Version: 6.00 Build 0)  -->
<!DOCTYPE svg PUBLIC "-//W3C//DTD SVG 1.1//EN" "http://www.w3.org/Graphics/SVG/1.1/DTD/svg11.dtd">
<svg version="1.1" xmlns="http://www.w3.org/2000/svg" xmlns:xlink="http://www.w3.org/1999/xlink" x="0px" y="0px"
	 viewBox="0 0 56.046 55.252" style="enable-background:new 0 0 56.046 55.252;" xml:space="preserve">
<g id="logo-light">
	<g>
		<path d="M50.605,55.231c-1.596,0.16-3.125-0.58-3.991-1.931l-6.864-10.706c-1.851,0.646-5.406,1.699-9.97,2.156c0,0,0,0,0,0
			c-7.158,0.716-13.923-0.281-20.108-2.963c-3.979-1.725-6.739-5.472-7.203-9.781L0.05,9.568C-0.215,7.11,0.588,4.653,2.251,2.825
			c1.658-1.821,4.018-2.86,6.505-2.824l38.762,0.515c2.316,0.03,4.559,1.011,6.153,2.691c1.595,1.681,2.458,3.971,2.368,6.285
			l-1.62,41.685c-0.071,1.859-1.326,3.437-3.124,3.926C51.067,55.166,50.836,55.207,50.605,55.231z M41.123,38.252l8.435,13.158
			c0.174,0.271,0.506,0.4,0.819,0.316c0.313-0.085,0.532-0.36,0.545-0.685l1.62-41.686c0.054-1.376-0.46-2.739-1.409-3.74
			c-0.949-0.999-2.283-1.583-3.661-1.601L8.71,3.5c-1.48-0.018-2.884,0.598-3.871,1.68C3.85,6.268,3.372,7.731,3.53,9.193
			l2.418,22.438c0.33,3.06,2.29,5.72,5.115,6.945c5.631,2.442,11.81,3.347,18.367,2.691c6.132-0.614,10.285-2.4,10.326-2.418
			L41.123,38.252z"/>
	</g>
	<g>
		<path d="M40.63,42.194c-0.737,0.074-1.468-0.327-1.779-1.042c-0.386-0.886,0.019-1.918,0.905-2.304l2.927-1.275
			c0.892-0.389,1.919,0.019,2.304,0.905c0.386,0.886-0.019,1.918-0.905,2.304l-2.927,1.275
			C40.983,42.132,40.806,42.177,40.63,42.194z"/>
	</g>
	<g>
		<circle cx="37.262" cy="22.295" r="4"/>
	</g>
	<g>
		<circle cx="18.604" cy="22.158" r="4"/>
	</g>
</g>
<g id="Layer_1">
</g>
</svg>
