<?xml version="1.0" encoding="iso-8859-1"?>
<!-- Generator: Adobe Illustrator 18.1.1, SVG Export Plug-In . SVG Version: 6.00 Build 0)  -->
<!DOCTYPE svg PUBLIC "-//W3C//DTD SVG 1.1//EN" "http://www.w3.org/Graphics/SVG/1.1/DTD/svg11.dtd">
<svg version="1.1" xmlns="http://www.w3.org/2000/svg" xmlns:xlink="http://www.w3.org/1999/xlink" x="0px" y="0px"
	 viewBox="0 0 32.951 27.951" style="enable-background:new 0 0 32.951 27.951;" xml:space="preserve">
<g id="print">
	<g id="XMLID_646_">
		<path id="XMLID_649_" style="fill:#231F20;" d="M31.852,15h-2.9V1.1c0-0.607-0.492-1.1-1.1-1.1H5.1C4.492,0,4,0.492,4,1.1V15H1.1
			C0.492,15,0,15.492,0,16.1v7.79c0,2.24,1.821,4.062,4.062,4.062H28.89c2.24,0,4.062-1.821,4.062-4.062V16.1
			C32.951,15.492,32.459,15,31.852,15z M6.199,2.199h20.553V15H6.199V2.199z M30.752,23.89c0,1.026-0.836,1.862-1.862,1.862H4.062
			c-1.026,0-1.862-0.836-1.862-1.862v-6.69h28.553V23.89z"/>
		<path id="XMLID_648_" style="fill:#231F20;" d="M23.688,22.451h3c0.607,0,1.1-0.492,1.1-1.1s-0.492-1.1-1.1-1.1h-3
			c-0.607,0-1.1,0.492-1.1,1.1S23.081,22.451,23.688,22.451z"/>
	</g>
</g>
<g id="Layer_1">
</g>
</svg>
