<?xml version="1.0" encoding="iso-8859-1"?>
<!-- Generator: Adobe Illustrator 18.1.1, SVG Export Plug-In . SVG Version: 6.00 Build 0)  -->
<!DOCTYPE svg PUBLIC "-//W3C//DTD SVG 1.1//EN" "http://www.w3.org/Graphics/SVG/1.1/DTD/svg11.dtd">
<svg version="1.1" xmlns="http://www.w3.org/2000/svg" xmlns:xlink="http://www.w3.org/1999/xlink" x="0px" y="0px"
	 viewBox="0 0 18.018 20.016" style="enable-background:new 0 0 18.018 20.016;" xml:space="preserve">
<g id="tram">
	<g>
		<path id="XMLID_664_" style="fill:#231F20;" d="M17.271,2.842C17.271,1.275,16.089,0,14.637,0H3.38
			C1.928,0,0.747,1.275,0.749,2.776L0.006,14.224c-0.051,0.781,0.227,1.557,0.762,2.128c0.535,0.571,1.291,0.899,2.073,0.899h0.062
			l-0.782,1.173c-0.314,0.47-0.187,1.106,0.284,1.42c0.174,0.116,0.372,0.172,0.566,0.172c0.331,0,0.655-0.16,0.852-0.456
			l1.539-2.309h7.292l1.538,2.309c0.197,0.296,0.522,0.456,0.852,0.456c0.195,0,0.392-0.056,0.566-0.172
			c0.47-0.314,0.597-0.95,0.284-1.42l-0.782-1.173h0.062c0.782,0,1.539-0.328,2.073-0.899c0.535-0.57,0.812-1.345,0.762-2.127
			v-0.001L17.271,2.842z M3.38,2.048h11.257c0.319,0,0.587,0.364,0.589,0.861l0.386,5.941H2.405l0.389-6.007
			C2.793,2.411,3.062,2.048,3.38,2.048z M15.757,14.953c-0.15,0.159-0.362,0.251-0.581,0.251H2.842c-0.219,0-0.431-0.092-0.58-0.251
			c-0.15-0.16-0.228-0.377-0.213-0.596l0.224-3.46h13.473l0.225,3.46C15.984,14.577,15.906,14.794,15.757,14.953z"/>
		<path id="XMLID_662_" style="fill:#231F20;" d="M4.31,12.073c-0.499,0-0.903,0.404-0.903,0.904c0,0.499,0.404,0.903,0.903,0.903
			s0.903-0.405,0.903-0.903C5.213,12.477,4.809,12.073,4.31,12.073z"/>
		<path id="XMLID_660_" style="fill:#231F20;" d="M13.708,12.073c-0.499,0-0.903,0.404-0.903,0.904c0,0.499,0.404,0.903,0.903,0.903
			c0.499,0,0.903-0.405,0.903-0.903C14.611,12.477,14.206,12.073,13.708,12.073z"/>
	</g>
</g>
<g id="Layer_1">
</g>
</svg>
