<?xml version="1.0" encoding="utf-8"?>
<!-- Generator: Adobe Illustrator 16.0.4, SVG Export Plug-In . SVG Version: 6.00 Build 0)  -->
<!DOCTYPE svg PUBLIC "-//W3C//DTD SVG 1.1//EN" "http://www.w3.org/Graphics/SVG/1.1/DTD/svg11.dtd">
<svg version="1.1" id="Layer_1" xmlns="http://www.w3.org/2000/svg" xmlns:xlink="http://www.w3.org/1999/xlink" x="0px" y="0px"
	 width="90px" height="52px" viewBox="0 0 90 52" enable-background="new 0 0 90 52" xml:space="preserve">
<g>
	<g>
		<path fill="#094792" d="M54.203,28.259c3.389,0,6.106-2.542,6.106-5.895c0-3.354-2.718-5.896-6.106-5.896
			s-6.107,2.542-6.107,5.896C48.096,25.717,50.814,28.259,54.203,28.259 M54.203,19.536c1.564,0,2.855,1.279,2.855,2.828
			s-1.291,2.828-2.855,2.828s-2.855-1.279-2.855-2.828S52.639,19.536,54.203,19.536"/>
		<path fill="#094792" d="M69.36,24.214c1.094-0.752,1.96-1.866,1.96-3.384c0-2.361-1.9-4.106-4.301-4.106h-5.18v11.28h3.1v-3.069
			h1.458l1.413,3.069h3.479L69.36,24.214z M67.02,22.153h-2.08v-2.663h2.08c0.7,0,1.156,0.782,1.156,1.339
			C68.176,21.387,67.72,22.153,67.02,22.153"/>
		<rect x="73.201" y="16.724" fill="#094792" width="3.1" height="11.28"/>
		<path fill="#094792" d="M82.74,16.723l-5.225,11.279h3.322l0.545-1.277h3.877l0.545,1.277h3.322l-5.223-11.279H82.74z
			 M82.328,24.047l0.963-2.196h0.062l0.961,2.196H82.328z"/>
		<path fill="#094792" d="M41.213,28.004h3.1v-8.513h3.115v-2.767h-7.503L47.213,1H0.873l7.333,15.826h3.419l2.806,6.054
			l2.805-6.054h3.426l-5.133,11.078H13.34L24.042,51l10.948-23.628c-0.848,0.491-1.834,0.772-2.887,0.772
			c-3.308,0-5.936-2.496-5.936-5.79c0-3.294,2.628-5.79,5.936-5.79c2.114,0,3.959,1.138,4.963,2.821l-2.585,1.551
			c-0.487-0.798-1.374-1.359-2.378-1.359c-1.535,0-2.776,1.256-2.776,2.777c0,1.521,1.241,2.778,2.776,2.778
			c1.005,0,1.891-0.547,2.378-1.36l1.703,1.022l2.458-5.304h2.569V28.004z M24.758,27.904h-3.164V16.826h3.164V27.904z"/>
		<path fill="#094792" d="M43.05,37.315c-0.725,0-1.391-0.282-1.797-0.608l-0.586,0.905c0.606,0.489,1.524,0.737,2.378,0.737
			c1.214,0,2.309-0.591,2.309-1.837c0-0.983-0.789-1.413-1.796-1.579l-0.318-0.052c-0.678-0.114-1.165-0.237-1.165-0.654
			c0-0.427,0.446-0.676,1.079-0.676c0.617,0,1.157,0.204,1.6,0.479l0.532-0.919c-0.709-0.422-1.367-0.599-2.155-0.599
			c-1.202,0-2.249,0.611-2.249,1.787c0,1.021,0.725,1.46,1.72,1.616l0.359,0.057c0.785,0.125,1.196,0.271,1.196,0.661
			C44.158,37.067,43.675,37.315,43.05,37.315"/>
		<path fill="#094792" d="M49.174,37.94l-0.387-0.824c-0.213,0.131-0.482,0.256-0.732,0.256c-0.326,0-0.584-0.178-0.584-0.665V35.28
			h1.412v-0.935h-1.412v-1.16h-1.053v1.16h-0.754v0.935h0.754v1.511c0,1.011,0.494,1.559,1.463,1.559
			C48.437,38.35,48.83,38.173,49.174,37.94"/>
		<path fill="#094792" d="M53.445,38.25v-3.904h-1.028v0.429c-0.258-0.317-0.632-0.534-1.169-0.534
			c-1.075,0-1.889,0.883-1.889,2.055c0,1.173,0.813,2.055,1.889,2.055c0.537,0,0.915-0.218,1.169-0.529v0.43H53.445z M51.443,37.371
			c-0.617,0-1.008-0.48-1.008-1.076c0-0.597,0.391-1.075,1.008-1.075c0.6,0,1.006,0.458,1.006,1.075
			C52.449,36.913,52.043,37.371,51.443,37.371"/>
		<path fill="#094792" d="M56.217,38.35c0.557,0,0.951-0.177,1.293-0.409l-0.387-0.823c-0.213,0.13-0.482,0.255-0.734,0.255
			c-0.326,0-0.584-0.179-0.584-0.665v-1.428h1.416v-0.935h-1.416v-1.16h-1.051v1.16H54v0.935h0.754v1.512
			C54.754,37.802,55.25,38.35,56.217,38.35"/>
		<path fill="#094792" d="M60.77,37.08c-0.283,0.239-0.648,0.377-0.988,0.377c-0.494,0-0.889-0.246-1.003-0.812h2.769
			c0.014-0.089,0.02-0.233,0.02-0.354c-0.004-1.217-0.773-2.051-1.896-2.051c-1.17,0-1.975,0.838-1.975,2.067
			s0.83,2.042,2.026,2.042c0.657,0,1.222-0.185,1.664-0.591L60.77,37.08z M59.662,35.147c0.45,0,0.752,0.282,0.85,0.781h-1.729
			C58.875,35.445,59.166,35.147,59.662,35.147"/>
		<path fill="#094792" d="M43.751,42.371v0.938h1.434c-0.149,0.803-0.685,1.247-1.603,1.247c-0.977,0-1.761-0.722-1.761-1.874
			c0-1.1,0.75-1.857,1.78-1.857c0.577,0,1.044,0.226,1.363,0.591l0.81-0.793c-0.499-0.544-1.245-0.865-2.139-0.865
			c-1.734,0-2.978,1.221-2.978,2.925c0,1.822,1.386,2.92,2.949,2.92c1.6,0,2.757-1.202,2.757-2.912c0-0.104-0.005-0.21-0.017-0.318
			H43.751z"/>
		<path fill="#094792" d="M49.001,41.492c-1.214,0-2.108,0.879-2.108,2.055c0,1.177,0.895,2.055,2.108,2.055
			c1.217,0,2.116-0.878,2.116-2.055C51.117,42.371,50.218,41.492,49.001,41.492 M49.001,44.624c-0.593,0-1.035-0.442-1.035-1.077
			c0-0.632,0.442-1.074,1.035-1.074c0.592,0,1.04,0.442,1.04,1.074C50.041,44.182,49.593,44.624,49.001,44.624"/>
		<polygon fill="#094792" points="53.376,44.394 52.364,41.597 51.221,41.597 52.764,45.502 53.977,45.502 55.504,41.597 
			54.396,41.597 		"/>
		<path fill="#094792" d="M57.587,41.492c-1.169,0-1.976,0.839-1.976,2.067s0.83,2.042,2.028,2.042c0.656,0,1.222-0.184,1.663-0.591
			l-0.617-0.678c-0.281,0.237-0.647,0.376-0.986,0.376c-0.496,0-0.891-0.246-1.004-0.809h2.77c0.012-0.09,0.02-0.235,0.02-0.356
			C59.48,42.326,58.711,41.492,57.587,41.492 M56.7,43.181c0.093-0.483,0.383-0.781,0.879-0.781c0.45,0,0.752,0.282,0.849,0.781
			H56.7z"/>
		<path fill="#094792" d="M61.2,42.024v-0.428h-1.02v3.905h1.052v-2.126c0-0.583,0.334-0.881,0.822-0.881
			c0.213,0,0.463,0.049,0.637,0.126l0.156-1.043c-0.145-0.053-0.322-0.086-0.547-0.086C61.821,41.492,61.447,41.658,61.2,42.024"/>
		<path fill="#094792" d="M65.576,41.492c-0.443,0-0.87,0.149-1.148,0.562v-0.458h-1.023v3.905h1.052v-2.14
			c0-0.588,0.375-0.883,0.827-0.883c0.479,0,0.761,0.31,0.761,0.876v2.146h1.052v-2.486C67.096,42.108,66.463,41.492,65.576,41.492"
			/>
		<path fill="#094792" d="M72.792,41.492c-0.513,0-1.022,0.174-1.326,0.67c-0.262-0.415-0.724-0.67-1.289-0.67
			c-0.442,0-0.87,0.149-1.149,0.562v-0.458h-1.023v3.905h1.053v-2.14c0-0.588,0.375-0.883,0.826-0.883
			c0.48,0,0.762,0.31,0.762,0.876v2.146h1.053v-2.14c0-0.588,0.374-0.883,0.824-0.883c0.477,0,0.762,0.31,0.762,0.876v2.146h1.048
			v-2.486C74.331,42.108,73.712,41.492,72.792,41.492"/>
		<path fill="#094792" d="M76.975,41.492c-1.169,0-1.977,0.839-1.977,2.067s0.832,2.042,2.027,2.042
			c0.658,0,1.221-0.184,1.666-0.591l-0.617-0.678c-0.281,0.237-0.648,0.376-0.986,0.376c-0.497,0-0.893-0.246-1.004-0.809h2.768
			c0.012-0.09,0.02-0.235,0.02-0.356C78.867,42.326,78.098,41.492,76.975,41.492 M76.088,43.181
			c0.093-0.483,0.382-0.781,0.879-0.781c0.451,0,0.752,0.282,0.85,0.781H76.088z"/>
		<path fill="#094792" d="M81.74,41.492c-0.443,0-0.869,0.149-1.148,0.562v-0.458h-1.023v3.905h1.053v-2.14
			c0-0.588,0.373-0.883,0.826-0.883c0.479,0,0.762,0.31,0.762,0.876v2.146h1.051v-2.486C83.26,42.108,82.627,41.492,81.74,41.492"/>
		<path fill="#094792" d="M86.133,44.624c-0.328,0-0.586-0.178-0.586-0.665v-1.427h1.414v-0.934h-1.414v-1.161h-1.051v1.161h-0.754
			v0.934h0.754v1.511c0,1.012,0.496,1.559,1.463,1.559c0.557,0,0.949-0.177,1.293-0.409l-0.387-0.824
			C86.652,44.499,86.383,44.624,86.133,44.624"/>
	</g>
</g>
</svg>
