<svg xmlns="http://www.w3.org/2000/svg" viewBox="0 0 86.21 75.76"><defs><style>.cls-1{fill:#c9d7bf;}.cls-2{fill:#fff;}.cls-3{opacity:0.8;}.cls-4{fill:#4caf50;}</style></defs><title>Asset 125askizzy-icon-</title><g id="Layer_2" data-name="Layer 2"><g id="Layer_1-2" data-name="Layer 1"><rect class="cls-1" x="3.1" y="5.85" width="80" height="46.67" transform="translate(-3.96 6.95) rotate(-8.81)"/><circle class="cls-2" cx="43.1" cy="46.6" r="29.16"/><g class="cls-3"><path class="cls-4" d="M45.1,48.44V56c2.61-.31,4.14-1.69,4.14-3.53S48.32,49.36,45.1,48.44Z"/><path class="cls-4" d="M43.1,17.44A29.16,29.16,0,1,0,72.27,46.6,29.16,29.16,0,0,0,43.1,17.44Zm2.15,43v2.46a1.84,1.84,0,0,1-3.68,0V60.11a16.78,16.78,0,0,1-8.44-3.22,2.08,2.08,0,0,1-1.07-2,2.26,2.26,0,0,1,2.3-2.3,2.48,2.48,0,0,1,1.38.46,15.82,15.82,0,0,0,6.14,2.76V47.67c-6-1.53-8.9-3.84-8.9-8.6,0-4.45,3.53-7.52,8.75-8v-.92c-.15-.77.77-1.69,1.69-1.69a1.87,1.87,0,0,1,1.84,1.84v.92a15.47,15.47,0,0,1,6.45,2.3,2.13,2.13,0,0,1,1.23,2,2.36,2.36,0,0,1-2.3,2.3,3.61,3.61,0,0,1-1.23-.31,13,13,0,0,0-4.3-1.84v8c6.29,1.53,9.06,4.14,9.06,8.6C54.15,56.88,50.62,59.8,45.25,60.41Z"/><path class="cls-4" d="M37.88,38.77c0,1.84.77,2.92,4,3.84V35.24C39.27,35.55,37.88,36.93,37.88,38.77Z"/></g></g></g></svg>