<?xml version="1.0" encoding="iso-8859-1"?>
<!-- Generator: Adobe Illustrator 18.1.1, SVG Export Plug-In . SVG Version: 6.00 Build 0)  -->
<!DOCTYPE svg PUBLIC "-//W3C//DTD SVG 1.1//EN" "http://www.w3.org/Graphics/SVG/1.1/DTD/svg11.dtd">
<svg version="1.1" xmlns="http://www.w3.org/2000/svg" xmlns:xlink="http://www.w3.org/1999/xlink" x="0px" y="0px"
	 viewBox="0 0 52.757 47.973" style="enable-background:new 0 0 52.757 47.973;" xml:space="preserve">
<g id="health">
	<g id="XMLID_616_">
		<g id="XMLID_618_">
			<path style="fill:#231F20;" d="M26.378,47.973c-0.215,0-0.431-0.046-0.631-0.139c-0.261-0.122-6.48-3.032-12.784-8.433
				C4.482,32.136,0,23.827,0,15.375C0,7.185,6.737,0,14.418,0c5.205,0,9.495,3.42,11.96,7.275C28.844,3.42,33.134,0,38.339,0
				c7.68,0,14.417,7.185,14.417,15.375c0,8.452-4.482,16.761-12.963,24.026c-6.304,5.4-12.523,8.311-12.784,8.433
				C26.809,47.927,26.594,47.973,26.378,47.973z M14.418,3C8.335,3,3,8.782,3,15.375c0,16.673,19.582,27.486,23.378,29.424
				c3.796-1.938,23.378-12.751,23.378-29.424C49.757,8.782,44.421,3,38.339,3c-5.003,0-8.988,4.185-10.572,8.072
				c-0.23,0.564-0.779,0.934-1.389,0.934s-1.159-0.369-1.389-0.934C23.405,7.185,19.421,3,14.418,3z"/>
		</g>
		<g id="XMLID_617_">
			<path style="fill:#231F20;" d="M27.266,15.413c-0.754,0-1.404-0.567-1.489-1.335C25.2,8.849,20.219,3,14.418,3
				c-0.829,0-1.5-0.672-1.5-1.5s0.671-1.5,1.5-1.5c7.557,0,13.623,7.246,14.341,13.748c0.091,0.824-0.502,1.565-1.326,1.656
				C27.377,15.41,27.321,15.413,27.266,15.413z"/>
		</g>
	</g>
</g>
<g id="Layer_1">
</g>
</svg>
