<?xml version="1.0" encoding="iso-8859-1"?>
<!-- Generator: Adobe Illustrator 18.1.1, SVG Export Plug-In . SVG Version: 6.00 Build 0)  -->
<!DOCTYPE svg PUBLIC "-//W3C//DTD SVG 1.1//EN" "http://www.w3.org/Graphics/SVG/1.1/DTD/svg11.dtd">
<svg version="1.1" xmlns="http://www.w3.org/2000/svg" xmlns:xlink="http://www.w3.org/1999/xlink" x="0px" y="0px"
	 viewBox="0 0 30.951 30.952" style="enable-background:new 0 0 30.951 30.952;" xml:space="preserve">
<g id="checkbox-selected">
	<path id="XMLID_679_" style="fill:#231F20;" d="M27.856,30.952H3.562C1.595,30.952,0,29.358,0,27.391V3.095
		C0,1.386,1.386,0,3.095,0h24.761c1.709,0,3.095,1.386,3.095,3.095v24.762C30.951,29.566,29.565,30.952,27.856,30.952z
		 M13.378,21.007l9.506-9.506c0.43-0.43,0.43-1.126,0-1.556c-0.428-0.43-1.127-0.43-1.555,0l-8.729,8.728l-3.096-3.095
		c-0.43-0.43-1.126-0.43-1.556,0c-0.429,0.43-0.429,1.126,0.001,1.556l3.873,3.873c0.215,0.215,0.496,0.322,0.777,0.322
		S13.164,21.222,13.378,21.007z"/>
</g>
<g id="Layer_1">
</g>
</svg>
