<?xml version="1.0" encoding="iso-8859-1"?>
<!-- Generator: Adobe Illustrator 18.1.1, SVG Export Plug-In . SVG Version: 6.00 Build 0)  -->
<!DOCTYPE svg PUBLIC "-//W3C//DTD SVG 1.1//EN" "http://www.w3.org/Graphics/SVG/1.1/DTD/svg11.dtd">
<svg version="1.1" xmlns="http://www.w3.org/2000/svg" xmlns:xlink="http://www.w3.org/1999/xlink" x="0px" y="0px"
	 viewBox="0 0 47.638 44.833" style="enable-background:new 0 0 47.638 44.833;" xml:space="preserve">
<g id="advocacy">
	<g id="XMLID_580_">
		<path style="fill:#231F20;" d="M23.818,44.833c-0.525,0-1.013-0.274-1.284-0.725l-4.49-7.437H6.523
			c-2.798,0-5.074-2.275-5.074-5.073L0,4.477C-0.002,1.973,1.97,0,4.394,0h38.847c2.424,0,4.396,1.973,4.396,4.396l-1.454,27.958
			c0.002,2.346-1.97,4.317-4.394,4.317H29.592l-4.489,7.437C24.831,44.558,24.344,44.833,23.818,44.833z M4.394,3
			c-0.77,0-1.396,0.626-1.396,1.396l1.45,27.122c0.002,1.224,0.932,2.153,2.076,2.153h12.367c0.525,0,1.013,0.274,1.284,0.725
			l3.644,6.034l3.643-6.034c0.271-0.449,0.759-0.725,1.284-0.725H41.79c0.77,0,1.396-0.626,1.396-1.396L44.64,4.318
			C44.638,3.626,44.012,3,43.241,3H4.394z"/>
	</g>
	<g id="XMLID_477_">
		<path style="fill:#231F20;" d="M23.818,22.126c-0.828,0-1.5-0.672-1.5-1.5V9.959c0-0.828,0.672-1.5,1.5-1.5s1.5,0.672,1.5,1.5
			v10.667C25.318,21.454,24.646,22.126,23.818,22.126z"/>
	</g>
	<g id="XMLID_474_">
		<circle style="fill:#231F20;" cx="23.818" cy="26.338" r="1.774"/>
	</g>
</g>
<g id="Layer_1">
</g>
</svg>
