<?xml version="1.0" encoding="iso-8859-1"?>
<!-- Generator: Adobe Illustrator 18.1.1, SVG Export Plug-In . SVG Version: 6.00 Build 0)  -->
<!DOCTYPE svg PUBLIC "-//W3C//DTD SVG 1.1//EN" "http://www.w3.org/Graphics/SVG/1.1/DTD/svg11.dtd">
<svg version="1.1" xmlns="http://www.w3.org/2000/svg" xmlns:xlink="http://www.w3.org/1999/xlink" x="0px" y="0px"
	 viewBox="0 0 30.951 30.951" style="enable-background:new 0 0 30.951 30.951;" xml:space="preserve">
<g id="checkbox-unselected">
	<g id="XMLID_675_">
		<g id="XMLID_676_">
			<path style="fill:#231F20;" d="M27.856,30.951H3.562C1.598,30.951,0,29.354,0,27.391V3.095C0,1.388,1.388,0,3.095,0h24.762
				c1.707,0,3.095,1.388,3.095,3.095v24.762C30.951,29.563,29.563,30.951,27.856,30.951z M3.095,2.199
				c-0.493,0-0.896,0.402-0.896,0.896v24.296c0,0.75,0.611,1.361,1.362,1.361h24.295c0.493,0,0.896-0.402,0.896-0.896V3.095
				c0-0.493-0.402-0.896-0.896-0.896H3.095z"/>
		</g>
	</g>
</g>
<g id="Layer_1">
</g>
</svg>
