<svg id="Layer_1" data-name="Layer 1" xmlns="http://www.w3.org/2000/svg" viewBox="0 0 944.23 166.46"><defs><style>.cls-1{fill:none;}.cls-2{fill:#81848a;}.cls-3{fill:#ef3829;}.cls-4,.cls-5{fill:#231f20;}.cls-5{font-size:39px;font-family:GothamRounded-Book, Gotham Rounded;}.cls-6{letter-spacing:-0.02em;}.cls-7{letter-spacing:-0.02em;}</style></defs><title>Ask_Izzy_powered-by-Infoxchange_CMYK</title><rect class="cls-1" x="423.55" width="520.68" height="166.46"/><path class="cls-2" d="M602.74,301.72s-13.82,6.2-31.93-4.08-17.33,8-13.68,12.55c4.24,5.27,10.65,9.22,22.19,7.11S602.74,301.72,602.74,301.72Z" transform="translate(-69 -194.46)"/><path class="cls-3" d="M743.35,281.68,732.23,261h9.44l6.72,14.24,7-14.24h9.28l-11.2,20.72L765.19,304h-9.36l-7.52-15.92L740.79,304h-9.2Z" transform="translate(-69 -194.46)"/><path class="cls-3" d="M548.81,253.67s13.83-6.2,31.94,4.08,17.33-8,13.68-12.55c-4.24-5.28-10.66-9.23-22.2-7.11S548.81,253.67,548.81,253.67Z" transform="translate(-69 -194.46)"/><path class="cls-3" d="M599.29,250.73s6.2,13.83-4.09,31.93,8,17.33,12.56,13.68c5.27-4.24,9.22-10.65,7.11-22.19S599.29,250.73,599.29,250.73Z" transform="translate(-69 -194.46)"/><path class="cls-4" d="M631.35,246.88h9.12V304h-9.12Z" transform="translate(-69 -194.46)"/><path class="cls-4" d="M646.15,261h8.16v5h.24a12.35,12.35,0,0,1,11-6.16c6.56,0,10.72,3,10.72,11.68V304h-8.64V274.48c0-5.6-1.68-7.76-6-7.76-3.52,0-6.88,2.8-6.88,8.4V304h-8.64Z" transform="translate(-69 -194.46)"/><path class="cls-4" d="M684.47,267.36h-6V261h6v-4c0-8.16,3.92-10.72,11-10.72a39.29,39.29,0,0,1,4.72.24v6.64h-2.4c-3.2,0-4.64,1.2-4.64,4.08V261h7v6.4h-7V304h-8.64Z" transform="translate(-69 -194.46)"/><path class="cls-4" d="M715.59,259.84c12.56,0,16.08,9.28,16.08,22.64s-4.08,22.64-16.08,22.64-16-9.28-16-22.64S703.11,259.84,715.59,259.84Zm0,38.88c6.32,0,7.44-5.28,7.44-16.24,0-9.52-1.12-16.24-7.44-16.24s-7.36,6.72-7.36,16.24C708.23,293.44,709.35,298.72,715.59,298.72Z" transform="translate(-69 -194.46)"/><path class="cls-4" d="M795.83,288.32c-.56,10.32-4.08,16.8-14.72,16.8-12.48,0-16-9.28-16-22.64s3.52-22.64,16-22.64c12.88-.16,14.8,10.08,14.8,15.44h-8.64c0-4-1.12-9.2-6.16-9-6.24,0-7.36,6.72-7.36,16.24s1.12,16.24,7.36,16.24c4.8.08,6.56-3.92,6.56-10.4Z" transform="translate(-69 -194.46)"/><path class="cls-4" d="M799,246.88h8.64V265.6l.24.16a12.45,12.45,0,0,1,10.56-5.92c6.56,0,10.72,3,10.72,11.68V304h-8.64V274.48c0-5.6-1.68-7.76-6-7.76-3.52,0-6.88,2.8-6.88,8.4V304H799Z" transform="translate(-69 -194.46)"/><path class="cls-4" d="M863,295c0,1.6,1,3,2.24,3a3.6,3.6,0,0,0,1.44-.24v5.6a10.31,10.31,0,0,1-4.24,1c-3.84,0-7-1.52-7.28-5.68H855a11.2,11.2,0,0,1-10.72,6.32c-6.88,0-11.2-3.84-11.2-12.08,0-9.6,4.16-11.6,10-13.52l6.72-1.84c3.12-.88,5-1.76,5-5.52,0-3.92-1.36-6.4-5.92-6.4-5.76,0-6.56,4.08-6.56,8.24h-8.16c0-9.12,3.76-14.16,15.12-14.16,7.6,0,13.68,3,13.68,10.56Zm-8.16-13.76c-2.24,1.76-7,2.8-9.6,4s-3.52,3.76-3.52,7c0,3.6,1.76,6.48,5.36,6.48,5.2,0,7.76-3.92,7.76-10.24Z" transform="translate(-69 -194.46)"/><path class="cls-4" d="M869,261h8.16v5h.24a12.35,12.35,0,0,1,11-6.16c6.56,0,10.72,3,10.72,11.68V304h-8.64V274.48c0-5.6-1.68-7.76-6-7.76-3.52,0-6.88,2.8-6.88,8.4V304H869Z" transform="translate(-69 -194.46)"/><path class="cls-4" d="M913.28,307.68c0,2.64,2.4,5.12,6.24,5.12,4.48,0,7.28-3.12,7.28-8.08v-7h-.16c-1.6,3.76-5.6,5.92-9.76,5.92C906.8,303.68,904,293.76,904,282c0-9.44,1.44-22.16,13.68-22.16,5,0,8.64,3.28,9.44,6.4h.16V261h8.16v41c0,10.48-4.48,16.8-16.08,16.8-12.8,0-14.24-7.52-14.24-11Zm6.08-10.88c6.72,0,7.44-8.48,7.44-15.28,0-7-.88-14.8-6.88-14.8-6.24,0-7.28,6.4-7.28,14.4C912.64,288.48,913,296.8,919.36,296.8Z" transform="translate(-69 -194.46)"/><path class="cls-4" d="M947.76,283.6v2.48c0,5.76.72,13.12,7.2,13.12,6.16,0,6.88-7,6.88-9.6H970c0,9.52-5.76,15.52-15.12,15.52-7,0-15.76-2.08-15.76-22,0-11.28,2.4-23.28,15.92-23.28,12,0,15.2,7.2,15.2,19.2v4.56Zm13.84-5.92v-2.32c0-5.44-1.76-9.6-6.64-9.6-5.52,0-7.2,5.44-7.2,11v.88Z" transform="translate(-69 -194.46)"/><path class="cls-4" d="M551.75,303.62s-6.2-13.83,4.08-31.93-8-17.33-12.55-13.68c-5.27,4.23-9.22,10.65-7.11,22.19S551.75,303.62,551.75,303.62Z" transform="translate(-69 -194.46)"/><text class="cls-5" transform="translate(0 99.2)">Ask Izzy is p<tspan class="cls-6" x="240.43" y="0">ow</tspan><tspan x="297.37" y="0">e</tspan><tspan class="cls-6" x="320.46" y="0">r</tspan><tspan x="335.4" y="0">ed </tspan><tspan class="cls-7" x="396.08" y="0">b</tspan><tspan x="421.16" y="0">y</tspan></text></svg>