<?xml version="1.0" encoding="iso-8859-1"?>
<!-- Generator: Adobe Illustrator 18.1.1, SVG Export Plug-In . SVG Version: 6.00 Build 0)  -->
<!DOCTYPE svg PUBLIC "-//W3C//DTD SVG 1.1//EN" "http://www.w3.org/Graphics/SVG/1.1/DTD/svg11.dtd">
<svg xmlns="http://www.w3.org/2000/svg" width="42" height="46" viewBox="0 0 21 23" id="demographic-disability">
  <metadata><?xpacket begin="﻿" id="W5M0MpCehiHzreSzNTczkc9d"?>
<x:xmpmeta xmlns:x="adobe:ns:meta/" x:xmptk="Adobe XMP Core 5.6-c138 79.159824, 2016/09/14-01:09:01        ">
   <rdf:RDF xmlns:rdf="http://www.w3.org/1999/02/22-rdf-syntax-ns#">
      <rdf:Description rdf:about=""/>
   </rdf:RDF>
</x:xmpmeta>
<?xpacket end="w"?></metadata>
<defs>
    <style>
      .cls-1 {
        fill: #363e43;
        fill-rule: evenodd;
      }
    </style>
  </defs>
  <path class="cls-1" d="M36.966,1115.11a2.055,2.055,0,1,0-2.1-2.05A2.076,2.076,0,0,0,36.966,1115.11Zm12.925,13.6a0.858,0.858,0,0,0-1.127-.37l-1.037.51-2.964-4.92h0a1.257,1.257,0,0,0-1.078-.6H39.066v-1.65h3.358a0.82,0.82,0,1,0,0-1.64H39.066v-2.05a2.1,2.1,0,0,0-4.2,0v2.17a7,7,0,1,0,8.4,6.86,6.749,6.749,0,0,0-.124-1.23H43.3l3.39,5.48,2.824-1.46A0.809,0.809,0,0,0,49.892,1128.71Zm-8.561-1.68a4.988,4.988,0,0,1-5.2,5.09,4.988,4.988,0,0,1-5.2-5.09,4.888,4.888,0,0,1,3.944-4.95v1.66a2.076,2.076,0,0,0,2.1,2.05h4.218A5.249,5.249,0,0,1,41.331,1127.03Z" transform="translate(-29 -1111)"/>
</svg>
