<svg xmlns="http://www.w3.org/2000/svg" viewBox="0 0 79.94 83.9"><defs><style>.cls-1{fill:#ffcc80;}.cls-2{fill:#42a5f5;}.cls-3{fill:#90695b;}</style></defs><title>Asset 122askizzy-icon-</title><g id="Layer_2" data-name="Layer 2"><g id="Layer_1-2" data-name="Layer 1"><path class="cls-1" d="M27.49,83.9l-.72-8.8-4.89,1.42A9.31,9.31,0,0,1,10.09,69.1L8,56.79,2.35,54.95a3.39,3.39,0,0,1-2-4.73L6.49,37.79c0-14.47,7-29.3,28.13-31C56.35,5,68.22,20.17,69.56,36.45a31,31,0,0,1-4.86,18.8A27.62,27.62,0,0,0,61,71.9l.75,9.2Z"/><g id="surface1"><path class="cls-2" d="M17.33,40s-4.13,4.89-4.13,7.66a4.13,4.13,0,0,0,8.25,0C21.45,44.91,17.33,40,17.33,40Z"/></g><path class="cls-3" d="M32.88,45.62c-2.5-.65-5.16,1.76-5.48-.46C24.66,26.43,3.63,25.79,3.63,25.79S9.13,2.79,31,.46c18.85-2,38.93-.07,49,63.9L54,75.46l-7-22s6.67-12.67-3-18.33S32.88,45.62,32.88,45.62Z"/></g></g></svg>