<?xml version="1.0" encoding="iso-8859-1"?>
<!-- Generator: Adobe Illustrator 18.1.1, SVG Export Plug-In . SVG Version: 6.00 Build 0)  -->
<!DOCTYPE svg PUBLIC "-//W3C//DTD SVG 1.1//EN" "http://www.w3.org/Graphics/SVG/1.1/DTD/svg11.dtd">
<svg version="1.1" xmlns="http://www.w3.org/2000/svg" xmlns:xlink="http://www.w3.org/1999/xlink" x="0px" y="0px"
	 viewBox="0 0 51.353 52.797" style="enable-background:new 0 0 51.353 52.797;" xml:space="preserve">
<g id="skills">
	<g id="XMLID_498_">
		<g id="XMLID_504_">
			<g id="XMLID_507_">
				<g id="XMLID_509_">
					<path style="fill:#231F20;" d="M30.511,29.405c-0.399,0-0.797-0.158-1.092-0.472c-0.568-0.603-0.54-1.553,0.063-2.12
						l5.635-5.308c0.384-0.362,0.933-0.497,1.438-0.351c3.233,0.917,6.715,0.017,9.086-2.354c1.758-1.758,2.706-4.108,2.71-6.521
						l-4.24,4.239c-0.378,0.38-0.931,0.527-1.449,0.389l-5.646-1.513c-0.518-0.139-0.922-0.543-1.061-1.061l-1.513-5.646
						c-0.139-0.518,0.009-1.07,0.388-1.449l4.239-4.239c-2.413,0.005-4.763,0.952-6.521,2.71c-2.37,2.371-3.272,5.853-2.353,9.086
						c0.145,0.508,0.011,1.054-0.351,1.438l-5.392,5.726c-0.567,0.603-1.517,0.633-2.12,0.063c-0.603-0.567-0.632-1.517-0.063-2.12
						l4.833-5.132C26.261,10.74,27.496,6.523,30.43,3.59c3.203-3.203,7.891-4.375,12.232-3.059c0.504,0.153,0.892,0.56,1.02,1.071
						c0.128,0.511-0.021,1.052-0.395,1.425l-5.722,5.722l1.065,3.974l3.973,1.064l5.722-5.722c0.373-0.374,0.913-0.522,1.425-0.395
						s0.918,0.516,1.071,1.02c1.317,4.342,0.145,9.029-3.059,12.232c-2.934,2.934-7.15,4.168-11.183,3.326l-5.042,4.748
						C31.249,29.27,30.879,29.405,30.511,29.405z"/>
				</g>
				<g id="XMLID_508_">
					<path style="fill:#231F20;" d="M5.705,51.308c-1.397,0-2.799-0.531-3.866-1.598l-0.278-0.278C0.554,48.427,0,47.088,0,45.665
						c0-1.424,0.554-2.763,1.561-3.769l13.173-13.988c0.567-0.604,1.517-0.633,2.12-0.063c0.603,0.567,0.632,1.518,0.063,2.12
						L3.713,43.985C3.242,44.458,3,45.042,3,45.665c0,0.622,0.242,1.206,0.682,1.646L3.96,47.59c0.956,0.955,2.51,0.955,3.466,0
						l13.87-13.066c0.603-0.569,1.553-0.539,2.12,0.063c0.568,0.603,0.54,1.552-0.063,2.12L9.516,49.742
						C8.473,50.785,7.092,51.308,5.705,51.308z"/>
				</g>
			</g>
			<g id="XMLID_505_">
				<g id="XMLID_506_">
					<path style="fill:#231F20;" d="M39.084,24.497c-2.594,0-5.196-0.812-7.383-2.467c-0.661-0.5-0.791-1.44-0.291-2.102
						c0.5-0.66,1.441-0.79,2.102-0.291c3.666,2.772,8.879,2.414,12.129-0.836c0.585-0.586,1.535-0.586,2.121,0s0.586,1.535,0,2.121
						C45.398,23.288,42.248,24.497,39.084,24.497z"/>
				</g>
			</g>
		</g>
		<g id="XMLID_499_">
			<g id="XMLID_503_">
				<path style="fill:#231F20;" d="M45.85,52.797c-0.173,0-0.348-0.03-0.516-0.092l-11.456-4.201
					c-0.205-0.075-0.39-0.193-0.544-0.348L1.813,16.636c-1.12-1.119-1.762-2.67-1.762-4.255c0-1.606,0.626-3.117,1.763-4.253
					l0.87-0.869C3.82,6.124,5.33,5.498,6.936,5.498c1.607,0,3.118,0.626,4.254,1.763l31.52,31.52
					c0.154,0.154,0.273,0.34,0.348,0.544l4.201,11.456c0.201,0.549,0.065,1.164-0.348,1.577
					C46.625,52.643,46.241,52.797,45.85,52.797z M35.221,45.801l8.106,2.974l-2.973-8.106L9.068,9.382
					C7.929,8.244,5.944,8.241,4.805,9.381l-0.87,0.869c-0.569,0.569-0.883,1.326-0.883,2.132c0,0.795,0.321,1.571,0.883,2.133
					L35.221,45.801z"/>
			</g>
			<g id="XMLID_500_">
				<path style="fill:#231F20;" d="M34.395,48.596c-0.384,0-0.768-0.146-1.061-0.439c-0.586-0.586-0.586-1.535,0-2.121l4.021-4.021
					c0.586-0.586,1.535-0.586,2.121,0s0.586,1.535,0,2.121l-4.021,4.021C35.162,48.449,34.778,48.596,34.395,48.596z"/>
			</g>
		</g>
	</g>
</g>
<g id="Layer_1">
</g>
</svg>
