<svg xmlns="http://www.w3.org/2000/svg" viewBox="0 0 650.45 368.5"><defs><style>.cls-1{fill:#231f20;}</style></defs><title>VIC_GOV_LOGO_FA_BLACK-2</title><g id="Layer_2" data-name="Layer 2"><line class="cls-1" x1="297.32" y1="199.02" x2="320.16" y2="199.02"/><path class="cls-1" d="M663.07,371c-25,0-45,18.73-45,43.45s20,43.44,45,43.44,45-18.73,45-43.44S688,371,663.07,371Zm0,64.28a20.84,20.84,0,1,1,21-20.83A21.06,21.06,0,0,1,663.07,435.26Z" transform="translate(-270.02 -256.97)"/><path class="cls-1" d="M789.22,403.12c0-17.4-14-30.26-31.68-30.26H719.36V456H742.2V433.38H753L763.36,456H789l-14.22-27.93C782.84,422.52,789.22,414.32,789.22,403.12Zm-31.68,9.75H742.2V393.26h15.34c5.15,0,8.51,5.76,8.51,9.86S762.69,412.87,757.54,412.87Z" transform="translate(-270.02 -256.97)"/><rect class="cls-1" x="533.06" y="115.89" width="22.84" height="83.13"/><path class="cls-1" d="M882,372.85h-8.57L834.88,456h24.49l4-9.42H892l4,9.42h24.49Zm-11.61,54,7.09-16.18h.47L885,426.83Z" transform="translate(-270.02 -256.97)"/><path class="cls-1" d="M557.84,372.86,611.54,257H270l54.05,116.64h25.2L370,418.24l20.67-44.63h25.25L378,455.26H361.9l78.88,170.22,80.7-174.14a42.35,42.35,0,0,1-21.27,5.7c-24.39,0-43.76-18.4-43.76-42.68s19.37-42.67,43.76-42.67a42.57,42.57,0,0,1,36.57,20.79l-19,11.43a20.74,20.74,0,0,0-17.52-10,20.47,20.47,0,1,0,17.52,30.92l12.55,7.53,18.11-39.08h19V456h22.84V393.26h23v-20.4Zm-111.78,82.4H422.73V373.61h23.33Z" transform="translate(-270.02 -256.97)"/><line class="cls-1" x1="297.32" y1="199.02" x2="320.16" y2="199.02"/><path class="cls-1" d="M593.44,500.41a22.36,22.36,0,0,0-11.8-3.53c-4.66,0-8,1.84-8,5s3.6,4,8.59,4.81l2.34.39c7.43,1.22,13.25,4.39,13.25,11.64,0,9.18-8.08,13.54-17,13.54-6.29,0-13.07-1.84-17.52-5.43l4.31-6.68a22,22,0,0,0,13.24,4.48c4.6,0,8.17-1.81,8.17-5,0-2.88-3-4-8.82-4.87l-2.65-.41c-7.33-1.16-12.68-4.4-12.68-11.92,0-8.67,7.73-13.18,16.58-13.18a29.25,29.25,0,0,1,15.89,4.42Z" transform="translate(-270.02 -256.97)"/><path class="cls-1" d="M623.87,509.62H613.44v10.52c0,3.59,1.9,4.89,4.31,4.89a11.19,11.19,0,0,0,5.41-1.87l2.85,6.07a16.18,16.18,0,0,1-9.54,3c-7.12,0-10.78-4-10.78-11.49V509.62h-5.55v-6.89h5.55v-8.55h7.75v8.55h10.43Z" transform="translate(-270.02 -256.97)"/><path class="cls-1" d="M635.3,517.11c0,4.39,2.88,7.92,7.43,7.92s7.42-3.38,7.42-7.92-3-7.93-7.42-7.93-7.43,3.53-7.43,7.93m22.19,14.4h-7.58v-3.18a10.54,10.54,0,0,1-8.61,3.92c-7.93,0-13.93-6.5-13.93-15.14s6-15.15,13.93-15.15a10.52,10.52,0,0,1,8.61,4v-3.18h7.58Z" transform="translate(-270.02 -256.97)"/><path class="cls-1" d="M685.31,509.62H674.88v10.52c0,3.59,1.9,4.89,4.31,4.89a11.12,11.12,0,0,0,5.4-1.87l2.86,6.07a16.18,16.18,0,0,1-9.54,3c-7.13,0-10.78-4-10.78-11.49V509.62h-5.55v-6.89h5.55v-8.55h7.75v8.55h10.43Z" transform="translate(-270.02 -256.97)"/><path class="cls-1" d="M696.83,514.4h12.74c-.71-3.68-2.94-5.76-6.27-5.76-3.65,0-5.79,2.2-6.47,5.76m20.52,2.68a21.91,21.91,0,0,1-.15,2.61H696.8c.83,4.16,3.74,6,7.39,6a11.65,11.65,0,0,0,7.28-2.76l4.54,5a17.48,17.48,0,0,1-12.26,4.36c-8.82,0-14.94-6-14.94-15.06S694.75,502,703.36,502c8.29,0,14,6.15,14,15.12" transform="translate(-270.02 -256.97)"/><path class="cls-1" d="M601,549l-6,5.85a12.91,12.91,0,0,0-10-4.37c-7.6,0-13.13,5.59-13.13,13.69,0,8.49,5.79,13.81,13,13.81,6.77,0,10.72-3.27,11.82-9.18H586v-6.91h19.13a23.31,23.31,0,0,1,.11,2.34c0,12.59-8.52,21.47-20.31,21.47-11.52,0-21.74-8.1-21.74-21.53,0-12.56,9.18-21.56,21.95-21.56,6.59,0,12.09,2.38,15.77,6.39" transform="translate(-270.02 -256.97)"/><path class="cls-1" d="M617.1,570.56c0,4.66,3.26,7.93,7.63,7.93a7.93,7.93,0,0,0,0-15.86c-4.37,0-7.63,3.26-7.63,7.93m23.22,0c0,8.67-6.62,15.14-15.59,15.14s-15.53-6.47-15.53-15.14,6.59-15.15,15.53-15.15,15.59,6.48,15.59,15.15" transform="translate(-270.02 -256.97)"/><polygon class="cls-1" points="391.38 327.99 382.44 327.99 371.07 299.21 379.5 299.21 386.95 319.82 394.47 299.21 402.64 299.21 391.38 327.99"/><path class="cls-1" d="M681.47,567.85h12.74c-.71-3.68-2.94-5.76-6.26-5.76-3.65,0-5.79,2.2-6.48,5.76M702,570.53a21.91,21.91,0,0,1-.15,2.61H681.44c.84,4.16,3.75,6,7.4,6a11.62,11.62,0,0,0,7.27-2.76l4.55,5a17.52,17.52,0,0,1-12.27,4.36c-8.82,0-14.94-6-14.94-15.06s5.95-15.23,14.56-15.23c8.28,0,14,6.15,14,15.12" transform="translate(-270.02 -256.97)"/><path class="cls-1" d="M726.79,556l-1.16,7.69a12.49,12.49,0,0,0-4.69-.93c-3.59,0-6.06,2.2-6.06,6.48V585h-7.75V556.18h7.51v3.15c1.81-2.7,4.58-3.92,8.11-3.92a11.68,11.68,0,0,1,4,.63" transform="translate(-270.02 -256.97)"/><path class="cls-1" d="M758.09,566.64V585h-7.75V569.13c0-4.16-2.08-6.44-5.62-6.44-3.32,0-6.08,2.16-6.08,6.5V585h-7.76V556.18h7.55v3.39a9.64,9.64,0,0,1,8.46-4.16c6.54,0,11.2,4.55,11.2,11.23" transform="translate(-270.02 -256.97)"/><path class="cls-1" d="M811.42,566.64V585H803.7V569.13c0-4.16-2.11-6.44-5.61-6.44-3.33,0-6.09,2.16-6.09,6.5V585h-7.75V569.13c0-4.16-2.08-6.44-5.62-6.44-3.32,0-6.09,2.16-6.09,6.5V585h-7.75V556.18h7.55v3.39a9.64,9.64,0,0,1,8.46-4.16,10.89,10.89,0,0,1,9.5,4.93c2.23-3.65,6-4.93,9.78-4.93,6.77,0,11.34,4.55,11.34,11.23" transform="translate(-270.02 -256.97)"/><path class="cls-1" d="M824.36,567.85H837.1c-.71-3.68-2.94-5.76-6.26-5.76-3.66,0-5.79,2.2-6.48,5.76m20.52,2.68a24.46,24.46,0,0,1-.14,2.61H824.33c.83,4.16,3.74,6,7.4,6a11.64,11.64,0,0,0,7.27-2.76l4.55,5a17.52,17.52,0,0,1-12.27,4.36c-8.82,0-14.94-6-14.94-15.06s5.94-15.23,14.56-15.23c8.28,0,14,6.15,14,15.12" transform="translate(-270.02 -256.97)"/><path class="cls-1" d="M877.22,566.64V585h-7.75V569.13c0-4.16-2.08-6.44-5.61-6.44-3.33,0-6.09,2.16-6.09,6.5V585H850V556.18h7.54v3.39a9.64,9.64,0,0,1,8.46-4.16c6.54,0,11.2,4.55,11.2,11.23" transform="translate(-270.02 -256.97)"/><path class="cls-1" d="M904.51,563.07H894.08v10.52c0,3.59,1.9,4.89,4.31,4.89a11.19,11.19,0,0,0,5.41-1.87l2.85,6.07a16.18,16.18,0,0,1-9.54,3c-7.12,0-10.78-4-10.78-11.49V563.07h-5.55v-6.89h5.55v-8.55h7.75v8.55h10.43Z" transform="translate(-270.02 -256.97)"/></g></svg>