<svg id="Layer_1" data-name="Layer 1" xmlns="http://www.w3.org/2000/svg" viewBox="0 0 944.23 166.46"><title>askizzy-icon-logo-powered-by-ix</title><rect x="423.55" width="520.68" height="166.46" style="fill:none"/><path d="M533.74,107.26s-13.82,6.2-31.93-4.08-17.33,8-13.68,12.55c4.24,5.27,10.65,9.22,22.19,7.11S533.74,107.26,533.74,107.26Z" style="fill:#81848a"/><path d="M674.35,87.22,663.23,66.54h9.44l6.72,14.24,7-14.24h9.28l-11.2,20.72,11.72,22.28h-9.36l-7.52-15.92-7.52,15.92h-9.2Z" style="fill:#ef3829"/><path d="M479.81,59.21s13.83-6.2,31.94,4.08,17.33-8,13.68-12.55c-4.24-5.28-10.66-9.23-22.2-7.11S479.81,59.21,479.81,59.21Z" style="fill:#ef3829"/><path d="M530.29,56.27s6.2,13.83-4.09,31.93,8,17.33,12.56,13.68c5.27-4.24,9.22-10.65,7.11-22.19S530.29,56.27,530.29,56.27Z" style="fill:#ef3829"/><path d="M562.35,52.42h9.12v57.12h-9.12Z" style="fill:#231f20"/><path d="M577.15,66.54h8.16v5h.24a12.35,12.35,0,0,1,11-6.16c6.56,0,10.72,3,10.72,11.68v32.48h-8.64V80c0-5.6-1.68-7.76-6-7.76-3.52,0-6.88,2.8-6.88,8.4v28.88h-8.64Z" style="fill:#231f20"/><path d="M615.47,72.9h-6V66.54h6v-4c0-8.16,3.92-10.72,11-10.72a39.29,39.29,0,0,1,4.72.24V58.7h-2.4c-3.2,0-4.64,1.2-4.64,4.08v3.76h7v6.4h-7v36.6h-8.64Z" style="fill:#231f20"/><path d="M646.59,65.38c12.56,0,16.08,9.28,16.08,22.64s-4.08,22.64-16.08,22.64-16-9.28-16-22.64S634.11,65.38,646.59,65.38Zm0,38.88C652.91,104.26,654,99,654,88c0-9.52-1.12-16.24-7.44-16.24S639.23,78.5,639.23,88C639.23,99,640.35,104.26,646.59,104.26Z" style="fill:#231f20"/><path d="M726.83,93.86c-.56,10.32-4.08,16.8-14.72,16.8-12.48,0-16-9.28-16-22.64s3.52-22.64,16-22.64c12.88-.16,14.8,10.08,14.8,15.44h-8.64c0-4-1.12-9.2-6.16-9-6.24,0-7.36,6.72-7.36,16.24s1.12,16.24,7.36,16.24c4.8.08,6.56-3.92,6.56-10.4Z" style="fill:#231f20"/><path d="M730,52.42h8.64V71.14l.24.16a12.45,12.45,0,0,1,10.56-5.92c6.56,0,10.72,3,10.72,11.68v32.48h-8.64V80c0-5.6-1.68-7.76-6-7.76-3.52,0-6.88,2.8-6.88,8.4v28.88H730Z" style="fill:#231f20"/><path d="M794,100.54c0,1.6,1,3,2.24,3a3.6,3.6,0,0,0,1.44-.24v5.6a10.31,10.31,0,0,1-4.24,1c-3.84,0-7-1.52-7.28-5.68H786a11.2,11.2,0,0,1-10.72,6.32c-6.88,0-11.2-3.84-11.2-12.08,0-9.6,4.16-11.6,10-13.52l6.72-1.84c3.12-.88,5-1.76,5-5.52,0-3.92-1.36-6.4-5.92-6.4-5.76,0-6.56,4.08-6.56,8.24h-8.16c0-9.12,3.76-14.16,15.12-14.16,7.6,0,13.68,3,13.68,10.56Zm-8.16-13.76c-2.24,1.76-7,2.8-9.6,4s-3.52,3.76-3.52,7c0,3.6,1.76,6.48,5.36,6.48,5.2,0,7.76-3.92,7.76-10.24Z" style="fill:#231f20"/><path d="M800,66.54h8.16v5h.24a12.35,12.35,0,0,1,11-6.16c6.56,0,10.72,3,10.72,11.68v32.48h-8.64V80c0-5.6-1.68-7.76-6-7.76-3.52,0-6.88,2.8-6.88,8.4v28.88H800Z" style="fill:#231f20"/><path d="M844.28,113.22c0,2.64,2.4,5.12,6.24,5.12,4.48,0,7.28-3.12,7.28-8.08v-7h-.16c-1.6,3.76-5.6,5.92-9.76,5.92C837.8,109.22,835,99.3,835,87.54c0-9.44,1.44-22.16,13.68-22.16,5,0,8.64,3.28,9.44,6.4h.16V66.54h8.16v41c0,10.48-4.48,16.8-16.08,16.8-12.8,0-14.24-7.52-14.24-11Zm6.08-10.88c6.72,0,7.44-8.48,7.44-15.28,0-7-.88-14.8-6.88-14.8-6.24,0-7.28,6.4-7.28,14.4,0,7.36.36,15.68,6.72,15.68Z" style="fill:#231f20"/><path d="M878.76,89.14v2.48c0,5.76.72,13.12,7.2,13.12,6.16,0,6.88-7,6.88-9.6H901c0,9.52-5.76,15.52-15.12,15.52-7,0-15.76-2.08-15.76-22,0-11.28,2.4-23.28,15.92-23.28,12,0,15.2,7.2,15.2,19.2v4.56Zm13.84-5.92V80.9c0-5.44-1.76-9.6-6.64-9.6-5.52,0-7.2,5.44-7.2,11v.88Z" style="fill:#231f20"/><path d="M482.75,109.16s-6.2-13.83,4.08-31.93-8-17.33-12.55-13.68c-5.27,4.23-9.22,10.65-7.11,22.19S482.75,109.16,482.75,109.16Z" style="fill:#231f20"/><g style="isolation:isolate"><text transform="translate(0 99.2)" style="isolation:isolate;font-size:39px;fill:#231f20;font-family:GothamRounded-Bold, Gotham Rounded;font-weight:700">Ask Izzy is p</text><text transform="translate(240.43 99.2)" style="isolation:isolate;font-size:39px;fill:#231f20;font-family:GothamRounded-Bold, Gotham Rounded;font-weight:700;letter-spacing:-0.03299028445512821em">o<tspan x="24.61" y="0" style="letter-spacing:-0.019994491185897436em">w</tspan></text><text transform="translate(297.37 99.2)" style="isolation:isolate;font-size:39px;fill:#231f20;font-family:GothamRounded-Bold, Gotham Rounded;font-weight:700">e</text><text transform="translate(320.46 99.2)" style="isolation:isolate;font-size:39px;fill:#231f20;font-family:GothamRounded-Bold, Gotham Rounded;font-weight:700;letter-spacing:-0.019994491185897436em">r</text><text transform="translate(335.4 99.2)" style="isolation:isolate;font-size:39px;fill:#231f20;font-family:GothamRounded-Bold, Gotham Rounded;font-weight:700">ed </text><text transform="translate(396.08 99.2)" style="isolation:isolate;font-size:39px;fill:#231f20;font-family:GothamRounded-Bold, Gotham Rounded;font-weight:700;letter-spacing:-0.020007011217948716em">b</text><text transform="translate(421.16 99.2)" style="isolation:isolate;font-size:39px;fill:#231f20;font-family:GothamRounded-Bold, Gotham Rounded;font-weight:700">y</text></g></svg>