<?xml version="1.0" encoding="iso-8859-1"?>
<!-- Generator: Adobe Illustrator 18.1.1, SVG Export Plug-In . SVG Version: 6.00 Build 0)  -->
<!DOCTYPE svg PUBLIC "-//W3C//DTD SVG 1.1//EN" "http://www.w3.org/Graphics/SVG/1.1/DTD/svg11.dtd">
<svg version="1.1" xmlns="http://www.w3.org/2000/svg" xmlns:xlink="http://www.w3.org/1999/xlink" x="0px" y="0px"
	 viewBox="0 0 34.198 34.94" style="enable-background:new 0 0 34.198 34.94;" xml:space="preserve">
<g id="location">
	<g>
		<path style="fill:none;stroke:#231F20;stroke-width:2.2;stroke-linecap:round;stroke-linejoin:round;stroke-miterlimit:10;" d="
			M33.098,1.101"/>
	</g>
	<g>
		<path style="fill:none;stroke:#231F20;stroke-width:2.2;stroke-linecap:round;stroke-linejoin:round;stroke-miterlimit:10;" d="
			M33.098,1.101"/>
	</g>
	<g>
		<path style="fill:#231F20;" d="M20.472,34.94c-0.046,0-0.091-0.002-0.137-0.008c-0.501-0.062-0.896-0.458-0.956-0.96
			l-1.995-16.496L0.973,15.562c-0.497-0.059-0.893-0.444-0.962-0.939c-0.07-0.495,0.203-0.976,0.665-1.168L32.674,0.086
			c0.406-0.172,0.875-0.081,1.19,0.227c0.316,0.307,0.418,0.772,0.26,1.184L21.497,34.235C21.332,34.664,20.921,34.94,20.472,34.94z
			 M5.403,13.863L18.5,15.391c0.504,0.059,0.903,0.456,0.964,0.961l1.569,12.974L31.145,3.108L5.403,13.863z"/>
	</g>
</g>
<g id="Layer_1">
</g>
</svg>
