<?xml version="1.0" encoding="iso-8859-1"?>
<!-- Generator: Adobe Illustrator 18.1.1, SVG Export Plug-In . SVG Version: 6.00 Build 0)  -->
<!DOCTYPE svg PUBLIC "-//W3C//DTD SVG 1.1//EN" "http://www.w3.org/Graphics/SVG/1.1/DTD/svg11.dtd">
<svg version="1.1" xmlns="http://www.w3.org/2000/svg" xmlns:xlink="http://www.w3.org/1999/xlink" x="0px" y="0px"
	 viewBox="0 0 51.03 50.33" style="enable-background:new 0 0 51.03 50.33;" xml:space="preserve">
<g id="facilaties">
	<g id="XMLID_634_">
		<g id="XMLID_637_">
			<path style="fill:#231F20;" d="M8.179,13.277c-2.703,0-4.902-2.199-4.902-4.902s2.199-4.902,4.902-4.902s4.902,2.199,4.902,4.902
				S10.882,13.277,8.179,13.277z M8.179,6.473c-1.049,0-1.902,0.854-1.902,1.902s0.854,1.902,1.902,1.902s1.902-0.854,1.902-1.902
				S9.228,6.473,8.179,6.473z"/>
		</g>
		<g id="XMLID_636_">
			<path style="fill:#231F20;" d="M41.786,13.277c-2.703,0-4.902-2.199-4.902-4.902s2.199-4.902,4.902-4.902
				c2.704,0,4.903,2.199,4.903,4.902S44.49,13.277,41.786,13.277z M41.786,6.473c-1.049,0-1.902,0.854-1.902,1.902
				s0.854,1.902,1.902,1.902c1.049,0,1.903-0.854,1.903-1.902S42.835,6.473,41.786,6.473z"/>
		</g>
		<g id="XMLID_635_">
			<path style="fill:#231F20;" d="M9.171,43.857H7.186c-2.251,0-4.083-1.832-4.083-4.083v-8.531C1.323,30.803,0,29.192,0,27.279
				v-5.86c0-3.502,2.849-6.352,6.352-6.352h3.654c3.502,0,6.352,2.85,6.352,6.352v5.86c0,1.914-1.323,3.524-3.103,3.964v8.531
				C13.255,42.025,11.423,43.857,9.171,43.857z M6.352,18.067C4.503,18.067,3,19.571,3,21.419v5.86c0,0.597,0.486,1.083,1.083,1.083
				h0.52c0.829,0,1.5,0.672,1.5,1.5v9.912c0,0.598,0.486,1.083,1.083,1.083h1.985c0.598,0,1.083-0.485,1.083-1.083v-9.912
				c0-0.828,0.671-1.5,1.5-1.5h0.52c0.598,0,1.083-0.486,1.083-1.083v-5.86c0-1.848-1.504-3.352-3.352-3.352H6.352z"/>
		</g>
	</g>
	<g id="XMLID_632_">
		<g id="XMLID_633_">
			<path style="fill:#231F20;" d="M42.779,43.857h-1.985c-2.251,0-4.083-1.832-4.083-4.083v-5.388h-2.667
				c-0.44,0-0.859-0.193-1.144-0.529c-0.285-0.336-0.408-0.78-0.336-1.215l1.904-11.536c0.166-3.396,2.933-6.039,6.344-6.039h1.951
				c3.412,0,6.179,2.644,6.344,6.039l1.904,11.536c0.072,0.435-0.051,0.879-0.336,1.215c-0.285,0.336-0.703,0.529-1.144,0.529
				h-2.668v5.388C46.862,42.025,45.03,43.857,42.779,43.857z M35.811,31.387h2.399c0.829,0,1.5,0.672,1.5,1.5v6.888
				c0,0.598,0.486,1.083,1.083,1.083h1.985c0.598,0,1.083-0.485,1.083-1.083v-6.888c0-0.828,0.671-1.5,1.5-1.5h2.4l-1.631-9.883
				c-0.011-0.064-0.017-0.13-0.019-0.195c-0.06-1.817-1.531-3.241-3.35-3.241h-1.951c-1.819,0-3.29,1.424-3.35,3.241
				c-0.002,0.065-0.008,0.131-0.019,0.195L35.811,31.387z"/>
		</g>
	</g>
	<g id="XMLID_472_">
		<path style="fill:#231F20;" d="M24.742,50.33c-0.829,0-1.5-0.672-1.5-1.5V1.5c0-0.828,0.671-1.5,1.5-1.5s1.5,0.672,1.5,1.5v47.33
			C26.242,49.658,25.57,50.33,24.742,50.33z"/>
	</g>
</g>
<g id="Layer_1">
</g>
</svg>
