<?xml version="1.0" encoding="iso-8859-1"?>
<!-- Generator: Adobe Illustrator 18.1.1, SVG Export Plug-In . SVG Version: 6.00 Build 0)  -->
<!DOCTYPE svg PUBLIC "-//W3C//DTD SVG 1.1//EN" "http://www.w3.org/Graphics/SVG/1.1/DTD/svg11.dtd">
<svg version="1.1" xmlns="http://www.w3.org/2000/svg" xmlns:xlink="http://www.w3.org/1999/xlink" x="0px" y="0px"
	 viewBox="0 0 24.889 33.927" style="enable-background:new 0 0 24.889 33.927;" xml:space="preserve">
<g id="map">
	<g id="XMLID_653_">
		<g id="XMLID_654_">
			<path style="fill:#231F20;" d="M12.444,33.927c-0.869,0-1.69-0.376-2.252-1.033C9.776,32.407,0,20.882,0,12.244
				C0,5.492,5.582,0,12.444,0s12.444,5.492,12.444,12.244c0,8.64-9.775,20.163-10.191,20.649
				C14.134,33.551,13.312,33.927,12.444,33.927z M12.444,2.199c-5.649,0-10.245,4.507-10.245,10.045
				c0,7.835,9.271,18.758,9.665,19.22c0.287,0.334,0.873,0.335,1.162-0.001c3.342-3.905,9.663-12.949,9.663-19.219
				C22.689,6.706,18.094,2.199,12.444,2.199z M12.444,17.262c-2.805,0-5.087-2.251-5.087-5.018s2.282-5.017,5.087-5.017
				s5.087,2.25,5.087,5.017S15.249,17.262,12.444,17.262z M12.444,9.427c-1.592,0-2.888,1.264-2.888,2.817s1.296,2.818,2.888,2.818
				s2.888-1.265,2.888-2.818S14.036,9.427,12.444,9.427z"/>
		</g>
	</g>
</g>
<g id="Layer_1">
</g>
</svg>
