<svg id="Layer_2" data-name="Layer 2" xmlns="http://www.w3.org/2000/svg" viewBox="0 0 354.59 197.81"><defs><style>.cls-1{fill:#570066;}.cls-2{fill:#ff2896;}</style></defs><title>T-Foundation-Right-Pos-Magenta-RGB</title><path class="cls-1" d="M179.44,71.59a1.12,1.12,0,0,1-1.1,1.16h-7.83v6.76h5.22a1.11,1.11,0,0,1,1.16,1.13,1.13,1.13,0,0,1-1.16,1.18h-5.22v8.7a1.17,1.17,0,0,1-1.25,1.1,1.12,1.12,0,0,1-1.16-1.1v-19a1.1,1.1,0,0,1,1.13-1.1h9.11A1.12,1.12,0,0,1,179.44,71.59Zm14.1,4.61v9.56a5.84,5.84,0,0,1-5.95,5.86h-.21a5.84,5.84,0,0,1-5.95-5.86V76.2a5.84,5.84,0,0,1,5.95-5.86h.21A5.84,5.84,0,0,1,193.54,76.2Zm-2.44,0a3.42,3.42,0,0,0-3.51-3.57h-.21a3.44,3.44,0,0,0-3.54,3.57v9.5a3.44,3.44,0,0,0,3.54,3.57h.21a3.42,3.42,0,0,0,3.51-3.57Zm17.71-5.89a1.13,1.13,0,0,0-1.19,1.1V85.73a3.43,3.43,0,0,1-3.51,3.57h-.18a3.42,3.42,0,0,1-3.49-3.57V71.44a1.16,1.16,0,0,0-1.24-1.1,1.1,1.1,0,0,0-1.16,1.1V85.76a5.81,5.81,0,0,0,5.89,5.86h.18A5.82,5.82,0,0,0,210,85.76V71.44A1.15,1.15,0,0,0,208.81,70.34Zm17,0a1.09,1.09,0,0,0-1.19,1.1V85.86l-6.89-14.73a1.19,1.19,0,0,0-1.21-.79h-.39a1.12,1.12,0,0,0-1.16,1.1V90.55a1.21,1.21,0,0,0,2.41,0V76.1l6.86,14.8a1.2,1.2,0,0,0,1.24.72h.39a1.12,1.12,0,0,0,1.16-1.1V71.44A1.13,1.13,0,0,0,225.81,70.34Zm18.26,6v9.38a5.83,5.83,0,0,1-5.93,5.86h-4.85a1.12,1.12,0,0,1-1.16-1.1V71.53a1.1,1.1,0,0,1,1.13-1.1h4.88A5.77,5.77,0,0,1,244.07,76.29Zm-2.41,0a3.42,3.42,0,0,0-3.49-3.57h-3.63V89.21h3.63a3.42,3.42,0,0,0,3.49-3.57ZM260.53,90.1a1.23,1.23,0,0,1-.15,1.08,1.23,1.23,0,0,1-2.1-.39L257,86.38H250.2l-1.29,4.41a1.17,1.17,0,0,1-1.15.83,1.14,1.14,0,0,1-.94-.44,1.2,1.2,0,0,1-.16-1.08l5.6-18.84a1.29,1.29,0,0,1,1.27-.92h.07a1.29,1.29,0,0,1,1.33.92Zm-4.24-6-2.69-9.29-2.7,9.29Zm15.42-13.63H262a1.11,1.11,0,0,0-1.16,1.13A1.14,1.14,0,0,0,262,72.75h3.69V90.52a1.12,1.12,0,0,0,1.16,1.1,1.17,1.17,0,0,0,1.25-1.1V72.75h3.66a1.14,1.14,0,0,0,1.16-1.19A1.11,1.11,0,0,0,271.71,70.43Zm5.66-.09a1.17,1.17,0,0,0-1.16,1.16v19a1.12,1.12,0,0,0,1.16,1.1,1.17,1.17,0,0,0,1.25-1.1v-19A1.21,1.21,0,0,0,277.37,70.34Zm18.47,5.86v9.56a5.84,5.84,0,0,1-5.95,5.86h-.21a5.84,5.84,0,0,1-5.95-5.86V76.2a5.84,5.84,0,0,1,5.95-5.86h.21A5.84,5.84,0,0,1,295.84,76.2Zm-2.44,0a3.42,3.42,0,0,0-3.51-3.57h-.21a3.44,3.44,0,0,0-3.54,3.57v9.5a3.44,3.44,0,0,0,3.54,3.57h.21a3.42,3.42,0,0,0,3.51-3.57Zm17.82-5.89a1.08,1.08,0,0,0-1.18,1.1V85.86l-6.89-14.73a1.19,1.19,0,0,0-1.21-.79h-.39a1.12,1.12,0,0,0-1.16,1.1V90.55a1.21,1.21,0,0,0,2.41,0V76.1l6.86,14.8a1.2,1.2,0,0,0,1.24.72h.38a1.12,1.12,0,0,0,1.16-1.1V71.44A1.12,1.12,0,0,0,311.22,70.34Zm-134.34-28h-9.77A1.11,1.11,0,0,0,166,43.43a1.14,1.14,0,0,0,1.16,1.19h3.7V62.39a1.12,1.12,0,0,0,1.16,1.1,1.16,1.16,0,0,0,1.24-1.1V44.62h3.67A1.14,1.14,0,0,0,178,43.43,1.11,1.11,0,0,0,176.88,42.3Zm14.57,18.78h-7.74V53.7h5.19a1.14,1.14,0,0,0,1.16-1.19,1.11,1.11,0,0,0-1.16-1.13h-5.19V44.62h7.74a1.14,1.14,0,0,0,1.16-1.19,1.11,1.11,0,0,0-1.16-1.13h-9a1.09,1.09,0,0,0-1.13,1.1V62.3a1.09,1.09,0,0,0,1.13,1.1h9a1.14,1.14,0,0,0,1.19-1.16A1.12,1.12,0,0,0,191.45,61.08Zm14.67,0h-7V43.31a1.17,1.17,0,0,0-1.25-1.1,1.12,1.12,0,0,0-1.16,1.1v19a1.13,1.13,0,0,0,1.19,1.1h8.26a1.16,1.16,0,0,0,0-2.32Zm11.47-8.31-4.25-2.31a3.08,3.08,0,0,1-1.83-2.93,3,3,0,0,1,3.13-3h.21a3,3,0,0,1,3.24,2.78,1,1,0,0,0,1.19,1,1.11,1.11,0,0,0,1.16-1.13c0-2.81-2.41-4.93-5.59-4.93h-.21a5.41,5.41,0,0,0-5.54,5.38A5.21,5.21,0,0,0,212,52.48l4.16,2.28a3.38,3.38,0,0,1,2.1,3.11,3.16,3.16,0,0,1-3.45,3.3h-.3a3.2,3.2,0,0,1-3.43-3.39,1.18,1.18,0,0,0-1.22-1.16,1.14,1.14,0,0,0-1.19,1.16,5.6,5.6,0,0,0,5.84,5.71h.3a5.65,5.65,0,0,0,2.74-10.72ZM233.81,42.3h-9.76a1.11,1.11,0,0,0-1.16,1.13,1.14,1.14,0,0,0,1.16,1.19h3.69V62.39a1.12,1.12,0,0,0,1.16,1.1,1.17,1.17,0,0,0,1.25-1.1V44.62h3.66A1.14,1.14,0,0,0,235,43.43,1.11,1.11,0,0,0,233.81,42.3Zm16.85,5.8v.27a5.59,5.59,0,0,1-4.15,5.56l3.78,7.9a1.18,1.18,0,0,1,.1.53,1.16,1.16,0,0,1-1.28,1.13,1.09,1.09,0,0,1-1-.63L244,54.14h-2.94v8.25a1.17,1.17,0,0,1-1.25,1.1,1.12,1.12,0,0,1-1.16-1.1v-19a1.09,1.09,0,0,1,1.13-1.1h5.09A5.79,5.79,0,0,1,250.66,48.1Zm-5.78-3.48h-3.81v7.24h3.81a3.39,3.39,0,0,0,3.37-3.49V48.1A3.43,3.43,0,0,0,244.88,44.62Zm22.41,18.43a1.12,1.12,0,0,1-.93.44,1.13,1.13,0,0,1-1.16-.83l-1.29-4.41h-6.79l-1.29,4.41a1.17,1.17,0,0,1-1.16.83,1.12,1.12,0,0,1-.93-.44,1.2,1.2,0,0,1-.16-1.08l5.6-18.84a1.29,1.29,0,0,1,1.27-.92h.06a1.3,1.3,0,0,1,1.34.92L267.45,62A1.2,1.2,0,0,1,267.29,63.05Zm-6.78-16.41-2.69,9.29h5.39Z"/><path class="cls-2" d="M108.65,92.12l-4.37,25.71c-.91,4.63-4,5.88-6.66,5.88H77.35l8.54-47.09c-8.53-3.9-17.24-6.45-24.17-6.45-6.6,0-12,1.78-15.52,6.06a17.08,17.08,0,0,0-3.76,11.25c0,13.39,10.53,32,28.56,47.13,16.07,13.4,33.75,20.9,46.61,20.9,6.42,0,11.6-2,15-5.89,2.67-3,3.74-7,3.74-11.44C136.35,125.17,125.74,106.93,108.65,92.12Z"/><path class="cls-1" d="M72.26,42.3a6.69,6.69,0,0,0-6.61,5.55L62.8,63.37H88.3l-11,60.34H97.62c2.71,0,5.75-1.25,6.66-5.88l9.27-54.46h18.33a6.68,6.68,0,0,0,6.62-5.53l2.86-15.54Z"/></svg>