<svg id="Layer_1" data-name="Layer 1" xmlns="http://www.w3.org/2000/svg" xmlns:xlink="http://www.w3.org/1999/xlink" viewBox="0 0 743.4 57.2"><defs><clipPath id="clip-path"><rect x="205" y="14" width="99" height="36" style="fill:none"/></clipPath><clipPath id="clip-path-6" transform="translate(-18 1.2)"><rect x="205" y="14" width="99" height="36" style="fill:none"/></clipPath></defs><title>askizzy--icon-logo-founding-partners</title><path d="M362.7,25.4a5.59,5.59,0,0,0-2.6.7v7.7a.43.43,0,0,1-.4.4h-1.8a.43.43,0,0,1-.4-.4V23.9a.43.43,0,0,1,.4-.4h1.8a.43.43,0,0,1,.4.4v.4a4.29,4.29,0,0,1,2.6-.9.43.43,0,0,1,.4.4V25a.37.37,0,0,1-.4.4m9.4,4.1h-6v.1a2,2,0,0,0,2.1,2.3,27.69,27.69,0,0,0,3.3-.2h.2a.27.27,0,0,1,.3.3v1.2c0,.3-.1.4-.4.5a17.93,17.93,0,0,1-3.6.3c-1.9,0-4.5-1-4.5-4.7V28.1c0-2.9,1.6-4.8,4.5-4.8s4.5,2,4.5,4.8v1c0,.3-.1.5-.4.4M370,27.8c0-1.5-.8-2.3-2-2.3s-2,.8-2,2.3v-.4h3.9l.1.4Zm11.1,6h-1.3a.43.43,0,0,1-.4-.4v-.3a5.6,5.6,0,0,1-2.7.8c-1.6,0-3.3-.6-3.3-3.1V31c0-2.1,1.3-3.2,4.4-3.2h1.1V27c0-1.2-.5-1.5-1.6-1.5s-2.4.1-3,.1h-.2a.27.27,0,0,1-.3-.3V24.1c0-.2.1-.3.4-.4a13.88,13.88,0,0,1,3.2-.3c2.7,0,4.2,1.2,4.2,3.6v6.6a.43.43,0,0,1-.4.4m-2.3-4.5h-1.2c-1.8,0-2.2.5-2.2,1.6v.1c0,.9.4,1.2,1.4,1.2a4.55,4.55,0,0,0,2-.5V29.5Zm6,4.3h-1.7a.43.43,0,0,1-.4-.4V20a.43.43,0,0,1,.4-.4H385a.43.43,0,0,1,.4.4V33.4a.46.46,0,0,1-.5.4m9.9-4.3h-6v.1a2,2,0,0,0,2.1,2.3,27.69,27.69,0,0,0,3.3-.2h.2a.27.27,0,0,1,.3.3v1.2c0,.3-.1.4-.4.5a18.63,18.63,0,0,1-3.6.3c-1.9,0-4.5-1-4.5-4.7V28.1c0-2.9,1.6-4.8,4.5-4.8s4.5,2,4.5,4.8v1c0,.3-.1.5-.4.4m-2.2-1.8c0-1.5-.8-2.3-1.9-2.3s-1.9.8-1.9,2.3v.1l3.8-.1Zm7.3,6.6a14.24,14.24,0,0,1-3.4-.4c-.2-.1-.4-.2-.4-.4V32.4a.27.27,0,0,1,.3-.3h.1c.9.1,2.6.2,3.2.2,1.2,0,1.4-.4,1.4-.9s-.2-.6-.8-1l-2.6-1.6a3.21,3.21,0,0,1-1.6-2.6c0-1.9,1.2-2.8,3.6-2.8a15.08,15.08,0,0,1,3.4.4c.2.1.3.2.3.4v1.1c0,.2-.1.4-.3.4H403a24.52,24.52,0,0,0-3.2-.2c-.9,0-1.3.2-1.3.8,0,.3.3.5.8.8l2.5,1.5c1.6,1,1.8,1.9,1.8,2.9,0,1.5-1.2,2.8-3.7,2.8m10.3-.3a5.7,5.7,0,0,1-1.3.1c-2.1,0-3-.5-3-3V25.3l-1.8-.3a.43.43,0,0,1-.4-.4v-.8a.43.43,0,0,1,.4-.4h1.8V21c0-.2.2-.3.4-.4l1.8-.3h.1a.27.27,0,0,1,.3.3v2.7h1.8a.43.43,0,0,1,.4.4v1a.43.43,0,0,1-.4.4h-1.8v5.8c0,.9.1,1,.7,1h1c.2,0,.4.1.4.3v1.3c0,.2-.1.3-.4.3m9,0h-1.8a.43.43,0,0,1-.4-.4v-.3a5.6,5.6,0,0,1-2.7.8c-1.6,0-3.3-.6-3.3-3.1V31c0-2.1,1.4-3.2,4.8-3.2H417V27c0-1.2-.6-1.5-1.7-1.5s-2.5.1-3.2.1h.1a.27.27,0,0,1-.3-.3V24.1c0-.2.1-.3.4-.4a13.88,13.88,0,0,1,3.2-.3c2.7,0,4.2,1.2,4.2,3.6v6.6a.43.43,0,0,1-.4.4m-2.2-4.5h-1.2c-1.8,0-2.2.5-2.2,1.6v.1c0,.9.4,1.2,1.4,1.2a4.55,4.55,0,0,0,2-.5V29.5ZM426,34a6.15,6.15,0,0,1-1.3.1c-2.1,0-3-.5-3-3V25.3l-1.8-.3a.43.43,0,0,1-.4-.4v-.8a.43.43,0,0,1,.4-.4h1.8V21c0-.2.2-.3.4-.4l1.8-.3h.1a.27.27,0,0,1,.3.3v2.7h1.8a.43.43,0,0,1,.4.4v1a.43.43,0,0,1-.4.4h-1.8v5.8c0,.9.1,1,.7,1h1c.2,0,.4.1.4.3v1.3c0,.2-.1.3-.4.3m9.9-4.3h-6.4v.1a2,2,0,0,0,2.1,2.3,27.69,27.69,0,0,0,3.3-.2h.7a.27.27,0,0,1,.3.3v1.2c0,.3-.1.4-.4.5a17.93,17.93,0,0,1-3.6.3c-1.9,0-4.5-1-4.5-4.7V28.1c0-2.9,1.6-4.8,4.5-4.8s4.5,2,4.5,4.8v1c0,.3-.2.5-.5.4m-2.2-1.7c0-1.5-.8-2.3-2-2.3s-2,.8-1.8,2.3v-.4h3.9v.4Zm5.2,6.4h-1.8a.43.43,0,0,1-.4-.4V31.5a.43.43,0,0,1,.4-.4h1.8a.43.43,0,0,1,.4.4v2.2c.1.4-.1.5-.4.5m8-.3a11.72,11.72,0,0,1-2.4.2c-2.4,0-4.3-1.5-4.3-4.5V27.8c0-3,1.8-4.4,4.1-4.4a10.56,10.56,0,0,1,2.3.2c.3.1.4.2.4.5v1.3a.32.32,0,0,1-.3.3h-.1a17,17,0,0,0-2.5-.1c-.9,0-1.8.5-1.8,2.5v1.8c0,2,.9,2.5,1.8,2.5a17.77,17.77,0,0,0,2.5-.1h.1a.27.27,0,0,1,.3.3v1.1c0,.3-.1.4-.4.5m5.8,0c-3,0-4.5-2-4.5-4.7V28c0-2.7,1.5-4.7,4.5-4.7s4.5,2,4.5,4.7v1.5c0,2.7-1.5,4.7-4.5,4.7m2-6.2c0-1.5-.7-2.4-1.9-2.4s-1.9,1-1.9,2.4v1.5c0,1.5.7,2.4,1.9,2.4s1.9-1,1.9-2.4Zm16.7,5.8h-1.8s-.4,0-.3-.2V27.2c0-1.4-.3-1.8-1.4-1.8a3.21,3.21,0,0,0-1.7.5,6.15,6.15,0,0,1,.1,1.4v6.4a5.92,5.92,0,0,1-.4.6h-1.8a.43.43,0,0,1-.4-.4V27.5c0-1.4-.2-1.8-1.3-1.8a3.84,3.84,0,0,0-1.7.6v7.6a.43.43,0,0,1-.4.4h-1.8a.43.43,0,0,1-.4-.4V24a.43.43,0,0,1,.4-.4H460a.43.43,0,0,1,.4.4v.4a4.85,4.85,0,0,1,2.7-.9,2.65,2.65,0,0,1,2.2.8,6.21,6.21,0,0,1,3.1-.8c2.6,0,3.1,1.7,3.1,3.9v6.3a.43.43,0,0,1-.4.4m3.4.1h-1.8a.43.43,0,0,1-.4-.4V31.6a.43.43,0,0,1,.4-.4h1.8a.43.43,0,0,1,.4.4v2.2a.37.37,0,0,1-.4.4m9-.4h-1.3a.43.43,0,0,1-.4-.4v-.3a5.6,5.6,0,0,1-2.7.8c-1.6,0-3.3-.6-3.3-3.1V31c0-2.1,1.3-3.2,4.4-3.2h1.1V27c0-1.2-.5-1.5-1.6-1.5s-2.4.1-3,.1h-.2a.27.27,0,0,1-.3-.3V24.1c0-.2.1-.3.4-.4a13.88,13.88,0,0,1,3.2-.3c2.7,0,4.2,1.2,4.2,3.6v6.6a.43.43,0,0,1-.4.4m-2.2-4.5h-1.2c-1.8,0-2.2.5-2.2,1.6v.1c0,.9.4,1.2,1.4,1.2a4.55,4.55,0,0,0,2-.5V29.5Zm12,4.7h-1.8a.43.43,0,0,1-.4-.4v-.4a4.76,4.76,0,0,1-2.9.9,2.73,2.73,0,0,1-2.2-.8c-.7-.7-.9-1.9-.9-3.5V23.8a.43.43,0,0,1,.4-.4H487a.43.43,0,0,1,.4.4V30a2.65,2.65,0,0,0,.4,1.8,1.92,1.92,0,0,0,1.2.3,8.08,8.08,0,0,0,2.2-.7V23.9a.43.43,0,0,1,.4-.4h1.8a.43.43,0,0,1,.4.4v9.7a.43.43,0,0,1-.4.4" transform="translate(-18 1.2)" style="fill:#1d2b39"/><path d="M322.8,29.3a15.05,15.05,0,1,0,15.1-15h-.1a15.18,15.18,0,0,0-15,15" transform="translate(-18 1.2)" style="fill:#ec1c3b"/><path d="M347.6,27.2v.2l-8.9-8.8a1.49,1.49,0,0,0-.9-.4h0a1.27,1.27,0,0,0-.9.4L328,27.4h0a1.84,1.84,0,0,0,1.3,3.2h1.2v6.9a1.32,1.32,0,0,0,1.3,1.3h12.1a1.32,1.32,0,0,0,1.3-1.3V30.6h1.2a1.9,1.9,0,0,0,1.9-1.9,2,2,0,0,0-.6-1.4m-4.8.8v8.1H333V28.1h-2.6l7.5-7.6,7.5,7.6Z" transform="translate(-18 1.2)" style="fill:#fff"/><g style="clip-path:url(#clip-path-6)"><g style="clip-path:url(#clip-path-6)"><path d="M217.2,36.9a11.1,11.1,0,1,1,0-22.2,10.61,10.61,0,0,1,7.6,3l-2.1,2.1a8,8,0,1,0-5.5,13.8,7.71,7.71,0,0,0,5.6-2.2,6.07,6.07,0,0,0,1.6-3.8h-7.2v-3h10.2a10.07,10.07,0,0,1,.2,1.9,10,10,0,0,1-2.6,7.1,9.73,9.73,0,0,1-7.8,3.3" transform="translate(-18 1.2)" style="fill:#4285f4"/><path d="M243.6,29.8a7.1,7.1,0,1,1-7.1-7.1,7,7,0,0,1,7.1,7.1m-3.1,0a4,4,0,0,0-4-4.3,4.15,4.15,0,0,0-4,4.3,4.09,4.09,0,0,0,4,4.3,4.15,4.15,0,0,0,4-4.3" transform="translate(-18 1.2)" style="fill:#ea4335"/><path d="M259.3,29.8a7.1,7.1,0,1,1-7.1-7.1,7,7,0,0,1,7.1,7.1m-3.1,0a4,4,0,0,0-4-4.3,4.15,4.15,0,0,0-4,4.3,4,4,0,1,0,8,0" transform="translate(-18 1.2)" style="fill:#fbbc05"/><path d="M274.7,23.1V35.9c0,5.3-3.1,7.4-6.8,7.4a6.71,6.71,0,0,1-6.3-4.2l2.7-1.1a3.9,3.9,0,0,0,3.6,2.5c2.3,0,3.8-1.5,3.8-4.2v-1h-.1a4.69,4.69,0,0,1-3.8,1.6,7,7,0,0,1-6.8-7.1,7.16,7.16,0,0,1,6.8-7.2,5.19,5.19,0,0,1,3.8,1.6h.1V23h3ZM272,29.8a4,4,0,0,0-3.8-4.3,4.09,4.09,0,0,0-4,4.3,4.09,4.09,0,0,0,4,4.3,4,4,0,0,0,3.8-4.3" transform="translate(-18 1.2)" style="fill:#4285f4"/><rect x="259.9" y="16.8" width="3.1" height="20.9" style="fill:#34a853"/><path d="M294.4,32.2l2.4,1.6a7.08,7.08,0,0,1-13-3.9,6.8,6.8,0,0,1,6.7-7.1,6.59,6.59,0,0,1,6.1,4.5l.3.8L287.4,32a3.73,3.73,0,0,0,3.5,2.2,4.86,4.86,0,0,0,3.5-2m-7.5-2.6,6.4-2.6a2.76,2.76,0,0,0-2.6-1.5,3.75,3.75,0,0,0-3.8,4.1" transform="translate(-18 1.2)" style="fill:#ea4335"/></g></g><rect width="179" height="57.2" style="fill:none"/><path d="M55.8,35.6s-4.8,2.1-11-1.4-6,2.8-4.7,4.3c1.5,1.8,3.7,3.2,7.6,2.4C51.8,40.3,55.8,35.6,55.8,35.6Z" transform="translate(-18 1.2)" style="fill:#81848a"/><path d="M104.2,28.8l-3.8-7.1h3.2l2.3,4.9,2.4-4.9h3.2l-3.9,7.1,4,7.7h-3.2L105.8,31l-2.6,5.5H100Z" transform="translate(-18 1.2)" style="fill:#ef3829"/><path d="M37.3,19.1s4.8-2.1,11,1.4,6-2.8,4.7-4.3c-1.5-1.8-3.7-3.2-7.6-2.4S37.3,19.1,37.3,19.1Z" transform="translate(-18 1.2)" style="fill:#ef3829"/><path d="M54.7,18.1s2.1,4.8-1.4,11,2.8,6,4.3,4.7c1.8-1.5,3.2-3.7,2.4-7.6S54.7,18.1,54.7,18.1Z" transform="translate(-18 1.2)" style="fill:#ef3829"/><path d="M65.7,16.8h3.1V36.4H65.7Z" transform="translate(-18 1.2)" style="fill:#231f20"/><path d="M70.8,21.6h2.8v1.7h.1a4.17,4.17,0,0,1,3.8-2.1c2.3,0,3.7,1,3.7,4V36.4h-3V26.3c0-1.9-.6-2.7-2.1-2.7-1.2,0-2.4,1-2.4,2.9v9.9h-3V21.6Z" transform="translate(-18 1.2)" style="fill:#231f20"/><path d="M83.9,23.8H81.8V21.6h2.1V20.2c0-2.8,1.3-3.7,3.8-3.7a7.59,7.59,0,0,1,1.6.1v2.3h-.8c-1.1,0-1.6.4-1.6,1.4v1.3h2.4v2.2H86.9V36.4h-3Z" transform="translate(-18 1.2)" style="fill:#231f20"/><path d="M94.7,21.2c4.3,0,5.5,3.2,5.5,7.8s-1.4,7.8-5.5,7.8-5.5-3.2-5.5-7.8S90.4,21.2,94.7,21.2Zm0,13.4c2.2,0,2.6-1.8,2.6-5.6,0-3.3-.4-5.6-2.6-5.6s-2.5,2.3-2.5,5.6C92.1,32.8,92.5,34.6,94.7,34.6Z" transform="translate(-18 1.2)" style="fill:#231f20"/><path d="M122.2,31c-.2,3.5-1.4,5.8-5.1,5.8-4.3,0-5.5-3.2-5.5-7.8s1.2-7.8,5.5-7.8,5.1,3.5,5.1,5.3h-3c0-1.4-.4-3.2-2.1-3.1-2.1,0-2.5,2.3-2.5,5.6s.4,5.6,2.5,5.6c1.7,0,2.3-1.3,2.3-3.6Z" transform="translate(-18 1.2)" style="fill:#231f20"/><path d="M123.3,16.8h3v6.4l.1.1a4.11,4.11,0,0,1,3.6-2c2.3,0,3.7,1,3.7,4V36.5h-3V26.3c0-1.9-.6-2.7-2.1-2.7-1.2,0-2.4,1-2.4,2.9v9.9h-3V16.8Z" transform="translate(-18 1.2)" style="fill:#231f20"/><path d="M145.3,33.3c0,.6.3,1,.8,1a.75.75,0,0,0,.5-.1v1.9a3.31,3.31,0,0,1-1.5.4c-1.3,0-2.4-.5-2.5-2h-.1a3.86,3.86,0,0,1-3.7,2.2c-2.4,0-3.9-1.3-3.9-4.2,0-3.3,1.4-4,3.4-4.6l2.3-.6c1.1-.3,1.7-.6,1.7-1.9s-.5-2.2-2-2.2c-2,0-2.3,1.4-2.3,2.8h-2.8c0-3.1,1.3-4.9,5.2-4.9,2.6,0,4.7,1,4.7,3.6v8.6Zm-2.8-4.7a19.23,19.23,0,0,1-3.3,1.4,2.35,2.35,0,0,0-1.2,2.4c0,1.2.6,2.2,1.8,2.2,1.8,0,2.7-1.3,2.7-3.5Z" transform="translate(-18 1.2)" style="fill:#231f20"/><path d="M147.4,21.6h2.8v1.7h.1a4.17,4.17,0,0,1,3.8-2.1c2.3,0,3.7,1,3.7,4V36.4h-3V26.3c0-1.9-.6-2.7-2.1-2.7-1.2,0-2.4,1-2.4,2.9v9.9h-3V21.6Z" transform="translate(-18 1.2)" style="fill:#231f20"/><path d="M162.6,37.7a1.94,1.94,0,0,0,2.1,1.8,2.5,2.5,0,0,0,2.5-2.8V34.3h-.1a3.58,3.58,0,0,1-3.4,2c-3.5,0-4.4-3.4-4.4-7.5,0-3.2.5-7.6,4.7-7.6a3.16,3.16,0,0,1,3.2,2.2h.1V21.6h2.8V35.7c0,3.6-1.5,5.8-5.5,5.8-4.4,0-4.9-2.6-4.9-3.8Zm2.1-3.7c2.3,0,2.6-2.9,2.6-5.3s-.3-5.1-2.4-5.1-2.5,2.2-2.5,5C162.4,31.1,162.5,34,164.7,34Z" transform="translate(-18 1.2)" style="fill:#231f20"/><path d="M174.5,29.4v.9c0,2,.2,4.5,2.5,4.5,2.1,0,2.4-2.4,2.4-3.3h2.8c0,3.3-2,5.3-5.2,5.3-2.4,0-5.4-.7-5.4-7.6,0-3.9.8-8,5.5-8,4.1,0,5.2,2.5,5.2,6.6v1.6Zm4.7-2v-.8c0-1.9-.6-3.3-2.3-3.3-1.9,0-2.5,1.9-2.5,3.8v.3Z" transform="translate(-18 1.2)" style="fill:#231f20"/><path d="M38.3,36.3s-2.1-4.8,1.4-11-2.8-6-4.3-4.7c-1.8,1.5-3.2,3.7-2.4,7.6S38.3,36.3,38.3,36.3Z" transform="translate(-18 1.2)" style="fill:#231f20"/><path d="M611.8,34c-.4,0-.6-.6-.1-1.1a14.65,14.65,0,0,1,2.1-1.4c.9,0-.8,2.5-2,2.5m47.5-5.1a2.27,2.27,0,0,0-1.8-.5s.1.2-.5.8l-.2.2a24.17,24.17,0,0,1-10.1,4.7c1.2-.7,4.1-3.6,2.1-5.1-1.2-.9-3.2-.5-5.2.5a2.54,2.54,0,0,0,.5-2.1c-.2-.9-2-1.2-3-.8a2.51,2.51,0,0,1-.4,1.7c-4.3,3.8-10,6.1-10.5,5.6s.9-2.1,1.3-2.7a1.36,1.36,0,0,0,.1-1.6c-.4-.7-1.1-.8-2.5-.5-1.9.3-3.2-.5-4.3-2.2-.5-.8-1.9-.7-2.6-.2a3.65,3.65,0,0,1,0,1.8c-1.1,2.7-4.6,2.7-5.9,1.8-.2-.6-.7-1.6-1.7-1.7a4.2,4.2,0,0,0-4.6,2c-1.1,1.2-8.4,4.3-10.1,2.9-1.3-1-.2-4.6,2.2-8.3,3.6-5.6,5.2-5.6,5.8-5,.4.4.7,1.1,0,2.5-.1.1-.1.2-.2.3-1.2,2-1.7,1.9-1.7,1.9a1.84,1.84,0,0,0,.5,2.2,1.13,1.13,0,0,0,1.2.2A2.37,2.37,0,0,0,609,26c1.7-2.7,2.8-6.9,0-8.5-2-1.1-5.4.4-9.2,6.5-3.3,5.4-4.3,9.5-1.9,11.6,2.9,2.5,9.1-.6,11.1-1.6-.1.4.1,2.6,2.1,2.5,2.6-.2,4.2-2.5,4.9-3.7a6.66,6.66,0,0,0,8.1-2.8,7.52,7.52,0,0,0,4.2,1.5c-.8,1.4-1.8,3.4-.3,4.5,2,1.6,9.1-2.5,11.1-3.7-1.2,2.1-3.2,6.9-5.2,11.1-.8,1.7-2,4.1-.8,4.7a1.8,1.8,0,0,0,2.6-1.3,60.57,60.57,0,0,1,3-8.7c2.1-4.8,4.1-7.2,7.3-7.2a5.33,5.33,0,0,1-1.4,2c-1.2,1.2-2.5,1.1-2.4,2.4,0,.7.8,1,1,1,1.7.5,6.4-.9,8.2-1.6a44.76,44.76,0,0,0,7.3-3.6c1.3-.5,1.4-1.5.6-2.2" transform="translate(-18 1.2)"/><path d="M586.1,23.9c-1.8.1-4,.7-4.8,2.5-.7,1.5-.1,3.1,1.3,4.9a26.38,26.38,0,0,0,2,2.4,11.29,11.29,0,0,1-3.5-.2h0c-.3-.1-.6-.1-1-.2a2.13,2.13,0,0,1-1-.6l-.1.1h0l.1-.1a2.38,2.38,0,0,0-1.3.9,2,2,0,0,0-.4,1.6c.2.3.7.5,1.6.5,2,.1,5.7.6,6.5.7a2.07,2.07,0,0,0,2-1.3,1.65,1.65,0,0,0-.4-1.8c-1.8-2-4.3-4.3-3.4-6.2.4-.9,2.4-.7,3.1-.5,1.4.4,2.1-.1,2.4-1,.2-.5-.1-1.9-3.1-1.7" transform="translate(-18 1.2)"/><path d="M549.6,26.3c.3.3-.3.8-.8,1.1a27,27,0,0,1-3.5,1.7c1-2.1,3.9-3.3,4.3-2.8M579.7,31a1.19,1.19,0,0,0,.4-1.9,1.86,1.86,0,0,0-2.2-.3,4,4,0,0,1-2.3.6c-1.4.1-1.9-.5-2.8-.5s-1.3.7-2.5,2.2c-.6.8-2,2.6-2.6,2.6s-.7-1.5-.7-3.5c0-.9-.4-1.6-1.4-1.6s-1,1.2-1.4,1.7c-1.3,1.6-2.4,3.1-2.9,3.1-.7,0-.9-1.5-.9-2.6,0,0,.2-1.8-1.4-2.1a2.52,2.52,0,0,0-1.4.3.6.6,0,0,1,.1.4c-.2.7-1.6,1.8-1.6,1.8-1.5,1.1-4.5,3.1-7.2,3.3-3.2.2-3.7-1.7-3.8-2.4a19.27,19.27,0,0,0,5.7-3.1c1.2-1,2.1-2,2-3.1a2.19,2.19,0,0,0-2.4-1.9c-2.2,0-5.8.9-7.6,5.8a4.85,4.85,0,0,1-1.7,0c-.6-.2-.6-.4-.6-.4a1.41,1.41,0,0,0-1.1,1,1.52,1.52,0,0,0,.8,1.9,4.11,4.11,0,0,0,2.4.3c.2,1.5,1.1,4.3,6.3,4.1,4.1-.2,8.9-3.6,9.3-3.9.2.8.8,3.9,2.5,3.9,2.1,0,4.2-3.2,4.2-3.2s.5,3.2,2.7,3.2c1.8,0,4-2.8,4.5-3.5.5-.5,1.3-1.6,1.8-1.6s1.4.7,4.1.2c-.1-.2,1.1-.4,1.7-.8" transform="translate(-18 1.2)"/><path d="M546.2,15.6a1.16,1.16,0,0,0-.3-1.3,1.91,1.91,0,0,0-2.7.4,21.47,21.47,0,0,0-2.3,3.6,142,142,0,0,0-7.3,13.8,25.94,25.94,0,0,1-1.2-6c-.1-2.5-.3-4.9-.4-6a1.53,1.53,0,0,0-1-1.5,3.32,3.32,0,0,0-2.2,0,8.58,8.58,0,0,1-.4,2.1c-.3.9-2.5,5.1-2.8,5.7-1.9,3.3-4.3,7.4-4.4,7.7-.5.9-1.2,2.2,0,2.6s2.2.2,2.7-.6a1.43,1.43,0,0,0,.2-.4s-.3-.3.4-2c.2-.5.5-1,.8-1.6.1-.1.1-.2.2-.3s.2-.3.2-.4c1.2-2.4,2.8-5.5,4.3-8.2a40.7,40.7,0,0,0,.3,5c.3,2.8,1,3.9,1.3,6.2,0,1.5.1,1.8,1.2,2.1a1.45,1.45,0,0,0,2-.9c1.5-3.7,5.7-12.3,9.3-16.9.3-.6,1.7-2,2.1-3.1" transform="translate(-18 1.2)"/><path d="M671.9,30l3.9-10,4.1,10ZM675,18.4l-7.3,17.8h1.7l1.9-5h9l2,5h1.9l-7.6-17.8Z" transform="translate(-18 1.2)" style="fill:#5a7ebe"/><path d="M696.4,23.8h-1.5v6.5c0,2.5-.9,4.8-3.7,4.8-2.6,0-3.2-2-3.2-4.3v-7h-1.5v7.6c0,3.1,1.1,5,4.4,5a4.32,4.32,0,0,0,4-2.1v2h1.5c-.1-1.2-.1-2.5-.1-3.7l.1-8.8Z" transform="translate(-18 1.2)" style="fill:#5a7ebe"/><path d="M701.4,26.8c0-1.5,1.6-2.1,2.9-2.1,1.7,0,2.6.7,2.7,2.4h1.5c-.1-2.6-1.9-3.6-4.3-3.6-2.1,0-4.3,1-4.3,3.4,0,4.4,7.4,2.6,7.4,6,0,1.7-1.7,2.4-3.2,2.4-1.8,0-3.1-.9-3.1-2.8h-1.5c0,2.7,1.9,3.9,4.5,3.9,2.4,0,4.7-1.1,4.7-3.8.1-4.3-7.3-2.5-7.3-5.8" transform="translate(-18 1.2)" style="fill:#5a7ebe"/><path d="M714.3,33V24.9h2.8V23.8h-2.8V20.6l-1.5.7v2.6h-2.5V25h2.5v8.8c0,1.8.8,2.7,2.6,2.7.6,0,1.2-.1,1.7-.1V35c-.4,0-.7.1-1.1.1-1.5,0-1.7-.7-1.7-2.1" transform="translate(-18 1.2)" style="fill:#5a7ebe"/><path d="M721.9,25.8l-.1-1.9h-1.5c-.1,1.2.1,2.4.1,3.6v8.8h1.5v-7c0-2.5.8-4,3.5-4,.3,0,.7.1,1,.1V23.9c-.2,0-.5-.1-.7-.1a3.77,3.77,0,0,0-3.8,2" transform="translate(-18 1.2)" style="fill:#5a7ebe"/><path d="M731.8,35.4c-1.6,0-3.1-.9-3.1-2.6,0-2.9,3.5-3,5.6-3a4.87,4.87,0,0,1,1.2.1c0,2.7-.2,5.5-3.7,5.5M737,28c0-3.1-1.4-4.4-4.5-4.4-2.2,0-4.3.9-4.4,3.4h1.5c.2-1.8,1.3-2.3,2.9-2.3,2.2,0,3,1.1,3,3.2v.9h-.6c-3.1,0-7.7.1-7.7,4.1,0,2.5,2.1,3.6,4.3,3.6a4.54,4.54,0,0,0,4.2-2.1c.1.6.1,1.2.2,1.8h1.4a36.18,36.18,0,0,1-.2-4.6L737,28Z" transform="translate(-18 1.2)" style="fill:#5a7ebe"/><rect x="722.9" y="19.6" width="1.5" height="17.8" style="fill:#5a7ebe"/><rect x="728.4" y="19.6" width="1.8" height="1.9" style="fill:#5a7ebe"/><rect x="728.5" y="25" width="1.5" height="12.4" style="fill:#5a7ebe"/><path d="M756,35.4c-1.6,0-3.1-.9-3.1-2.6,0-2.9,3.5-3,5.6-3a4.87,4.87,0,0,1,1.2.1c0,2.7-.2,5.5-3.7,5.5m5.2-3.8V28c0-3.1-1.4-4.4-4.5-4.4-2.2,0-4.3.9-4.4,3.4h1.5c.2-1.8,1.3-2.3,2.9-2.3,2.2,0,3,1.1,3,3.2v.9H759c-3.1,0-7.7.1-7.7,4.1,0,2.5,2.1,3.6,4.3,3.6a4.54,4.54,0,0,0,4.2-2.1c.1.6.1,1.2.2,1.8h1.4c-.1-1.5-.2-3-.2-4.6" transform="translate(-18 1.2)" style="fill:#5a7ebe"/></svg>