<?xml version="1.0" encoding="iso-8859-1"?>
<!-- Generator: Adobe Illustrator 18.1.1, SVG Export Plug-In . SVG Version: 6.00 Build 0)  -->
<!DOCTYPE svg PUBLIC "-//W3C//DTD SVG 1.1//EN" "http://www.w3.org/Graphics/SVG/1.1/DTD/svg11.dtd">
<svg version="1.1" xmlns="http://www.w3.org/2000/svg" xmlns:xlink="http://www.w3.org/1999/xlink" x="0px" y="0px"
	 viewBox="0 0 48.023 55.879" style="enable-background:new 0 0 48.023 55.879;" xml:space="preserve">
<g id="food">
	<g id="XMLID_571_">
		<g id="XMLID_577_">
			<g id="XMLID_579_">
				<path style="fill:#231F20;" d="M40.95,34.437h-3.56c-0.829,0-1.5-0.672-1.5-1.5s0.671-1.5,1.5-1.5h3.56
					c0.829,0,1.5,0.672,1.5,1.5S41.779,34.437,40.95,34.437z"/>
			</g>
			<g id="XMLID_578_">
			</g>
		</g>
		<g id="XMLID_576_">
			<path style="fill:#231F20;" d="M42.83,55.397h-0.368c-2.801,0-5.08-2.279-5.08-5.08V34.465h-1.91
				c-2.424,0-4.396-1.972-4.396-4.396c0-0.036,0.001-0.072,0.004-0.108l1.07-14.709C32.586,8.792,37.569,1.13,44.86,0.03
				c0.815-0.122,1.632,0.138,2.24,0.714c0.586,0.555,0.923,1.322,0.923,2.104v47.354C48.023,53.067,45.693,55.397,42.83,55.397z
				 M38.882,31.429c0.829,0,1.5,0.672,1.5,1.5v17.388c0,1.146,0.933,2.08,2.08,2.08h0.368c1.209,0,2.194-0.984,2.194-2.194V3.044
				c-5.49,1.015-9.527,7.174-9.88,12.417l-1.066,14.653c0.024,0.749,0.641,1.351,1.395,1.351h1.943c0.253,0,0.492,0.062,0.701,0.174
				C38.34,31.505,38.602,31.429,38.882,31.429z"/>
		</g>
		<g id="XMLID_575_">
			<path style="fill:#231F20;" d="M10.726,55.879c-2.629,0-4.777-2.101-4.854-4.711c-0.003-0.035-0.005-0.07-0.006-0.105
				L5.213,26.78C2.211,25.667,0,22.756,0,19.695L0.825,2.512c0.04-0.827,0.717-1.466,1.57-1.426c0.827,0.04,1.466,0.742,1.426,1.57
				l-0.823,17.11C3,21.729,4.783,23.737,6.975,24.17c0.688,0.137,1.189,0.73,1.208,1.432l0.678,25.259
				c0.006,0.054,0.009,0.107,0.009,0.162c0,1.023,0.833,1.856,1.856,1.856s1.856-0.833,1.856-1.856l0.649-25.419
				c0.018-0.702,0.52-1.297,1.208-1.434c2.192-0.434,3.975-2.441,3.975-4.476L17.537,2.661c-0.042-0.827,0.594-1.532,1.421-1.575
				c0.819-0.05,1.533,0.594,1.575,1.421l0.88,17.11c0.002,3.13-2.208,6.048-5.211,7.162l-0.621,24.281
				C15.582,53.7,13.404,55.879,10.726,55.879z"/>
		</g>
		<g id="XMLID_572_">
			<g id="XMLID_574_">
				<path style="fill:#231F20;" d="M7.743,17.374c-0.006,0-0.012,0-0.018,0c-0.828-0.01-1.492-0.688-1.483-1.517l0.151-13.29
					c0.009-0.829,0.676-1.52,1.517-1.483c0.828,0.01,1.492,0.688,1.483,1.517l-0.151,13.29C9.233,16.714,8.563,17.374,7.743,17.374z
					"/>
			</g>
			<g id="XMLID_573_">
				<path style="fill:#231F20;" d="M13.672,17.374c-0.817,0-1.486-0.656-1.5-1.477l-0.208-13.29
					c-0.013-0.828,0.648-1.511,1.477-1.523c0.855-0.02,1.51,0.648,1.523,1.477l0.208,13.29c0.013,0.828-0.648,1.511-1.477,1.523
					C13.688,17.374,13.68,17.374,13.672,17.374z"/>
			</g>
		</g>
	</g>
</g>
<g id="Layer_1">
</g>
</svg>
