<?xml version="1.0" encoding="iso-8859-1"?>
<!-- Generator: Adobe Illustrator 18.1.1, SVG Export Plug-In . SVG Version: 6.00 Build 0)  -->
<!DOCTYPE svg PUBLIC "-//W3C//DTD SVG 1.1//EN" "http://www.w3.org/Graphics/SVG/1.1/DTD/svg11.dtd">
<svg version="1.1" xmlns="http://www.w3.org/2000/svg" xmlns:xlink="http://www.w3.org/1999/xlink" x="0px" y="0px"
	 viewBox="0 0 60.103 55.443" style="enable-background:new 0 0 60.103 55.443;" xml:space="preserve">
<g id="house">
	<g id="XMLID_626_">
		<g id="XMLID_631_">
			<path style="fill:none;stroke:#231F20;stroke-width:3;stroke-linecap:round;stroke-linejoin:round;stroke-miterlimit:10;" d="
				M41.57,53.943"/>
		</g>
		<g id="XMLID_630_">
			<path style="fill:none;stroke:#231F20;stroke-width:3;stroke-linecap:round;stroke-linejoin:round;stroke-miterlimit:10;" d="
				M23.459,53.943"/>
		</g>
		<g id="XMLID_628_">
			<g id="XMLID_629_">
				<path style="fill:#231F20;" d="M50.071,55.443H36.644c-0.829,0-1.5-0.672-1.5-1.5V35.661c0-0.092-0.075-0.167-0.167-0.167
					h-9.851c-0.092,0-0.167,0.075-0.167,0.167v18.282c0,0.828-0.671,1.5-1.5,1.5H10.031c-0.785,0-1.438-0.605-1.496-1.389
					L6.639,28.637H1.5c-0.622,0-1.178-0.383-1.401-0.964c-0.222-0.58-0.063-1.237,0.399-1.652L29.049,0.384
					c0.569-0.512,1.435-0.512,2.004,0l28.551,25.637c0.462,0.415,0.621,1.072,0.399,1.652c-0.223,0.581-0.779,0.964-1.401,0.964
					h-5.139l-1.896,25.418C51.509,54.838,50.857,55.443,50.071,55.443z M38.144,52.443h10.535l1.896-25.418
					c0.058-0.783,0.71-1.389,1.496-1.389h2.616L30.051,3.516L5.416,25.637h2.616c0.785,0,1.438,0.605,1.496,1.389l1.896,25.418
					h10.536V35.661c0-1.746,1.421-3.167,3.167-3.167h9.851c1.746,0,3.167,1.421,3.167,3.167V52.443z"/>
			</g>
		</g>
		<g id="XMLID_627_">
			<path style="fill:#231F20;" d="M12.551,28.637h-4.52c-0.829,0-1.5-0.672-1.5-1.5s0.671-1.5,1.5-1.5h4.52
				c0.829,0,1.5,0.672,1.5,1.5S13.38,28.637,12.551,28.637z"/>
		</g>
	</g>
</g>
<g id="Layer_1">
</g>
</svg>
