<?xml version="1.0" encoding="iso-8859-1"?>
<!-- Generator: Adobe Illustrator 18.1.1, SVG Export Plug-In . SVG Version: 6.00 Build 0)  -->
<!DOCTYPE svg PUBLIC "-//W3C//DTD SVG 1.1//EN" "http://www.w3.org/Graphics/SVG/1.1/DTD/svg11.dtd">
<svg version="1.1" xmlns="http://www.w3.org/2000/svg" xmlns:xlink="http://www.w3.org/1999/xlink" x="0px" y="0px"
	 viewBox="0 0 29.64 29.703" style="enable-background:new 0 0 29.64 29.703;" xml:space="preserve">
<g id="phone">
	<path d="M24.138,29.703c-6.359,0-12.574-2.574-17.072-7.084C2.505,18.05-0.069,11.717,0.001,5.245c0-0.165,0.259-1.484,0.899-2.12
		l1.947-1.953c1.019-1.019,2.817-1.446,4.182-0.989l0.416,0.141c1.311,0.437,2.579,1.78,2.944,3.121l0.982,3.612
		c0.374,1.375-0.095,3.166-1.092,4.167l-0.685,0.685c-0.094,0.094-0.127,0.236-0.084,0.363c1.262,3.682,4.209,6.637,7.883,7.904
		c0.127,0.044,0.268,0.01,0.365-0.084l0.682-0.683c0.997-0.999,2.784-1.472,4.16-1.096l3.606,0.987
		c1.333,0.362,2.673,1.631,3.115,2.952l0.137,0.416c0.454,1.367,0.031,3.169-0.986,4.189c0,0,0,0-0.001,0l-1.95,1.954
		c-0.637,0.637-2,0.893-2.183,0.893C24.272,29.703,24.205,29.703,24.138,29.703z M2.219,5.393
		c-0.027,5.842,2.308,11.535,6.416,15.653c4.084,4.095,9.728,6.432,15.511,6.432c0.026,0,0.052,0,0.078,0
		c0.247-0.057,0.641-0.186,0.762-0.272l1.915-1.924c0.419-0.42,0.639-1.352,0.45-1.916l-0.136-0.414
		c-0.203-0.606-0.977-1.341-1.592-1.508l-3.606-0.986c-0.6-0.166-1.576,0.09-2.008,0.521l-0.683,0.684
		c-0.692,0.693-1.736,0.93-2.655,0.614c-4.315-1.488-7.776-4.959-9.259-9.285c-0.317-0.923-0.077-1.967,0.614-2.658L8.71,9.651
		C9.14,9.219,9.393,8.242,9.229,7.642L8.247,4.029C8.079,3.41,7.346,2.635,6.738,2.433L6.322,2.292
		C5.766,2.106,4.836,2.325,4.417,2.745l-1.95,1.956C2.409,4.784,2.289,5.127,2.219,5.393z"/>
</g>
<g id="Layer_1">
</g>
</svg>
