<?xml version="1.0" encoding="iso-8859-1"?>
<!-- Generator: Adobe Illustrator 18.1.1, SVG Export Plug-In . SVG Version: 6.00 Build 0)  -->
<!DOCTYPE svg PUBLIC "-//W3C//DTD SVG 1.1//EN" "http://www.w3.org/Graphics/SVG/1.1/DTD/svg11.dtd">
<svg version="1.1" xmlns="http://www.w3.org/2000/svg" xmlns:xlink="http://www.w3.org/1999/xlink" x="0px" y="0px"
	 viewBox="0 0 47.174 45.8" style="enable-background:new 0 0 47.174 45.8;" xml:space="preserve">
<g id="logo">
	<path id="XMLID_43_" style="fill:#231F20;" d="M19.181,17.33c1.594,3.34-1.654,6.614-4.97,5.007
		c-0.628-0.304-1.142-0.823-1.445-1.455c-1.594-3.34,1.654-6.614,4.97-5.007C18.365,16.179,18.879,16.697,19.181,17.33z"/>
	<path id="XMLID_41_" style="fill:#231F20;" d="M34.356,17.564c1.338,3.257-1.836,6.342-5.074,4.773
		c-0.628-0.304-1.143-0.823-1.445-1.455c-1.557-3.262,1.505-6.461,4.737-5.112C33.38,16.105,34.023,16.753,34.356,17.564z"/>
	<path id="XMLID_38_" style="fill:#231F20;" d="M46.764,5.535c-1.043-3.11-3.966-5.315-7.324-5.384
		C39.415,0.15,39.39,0.15,39.365,0.15L8.019,0.001C7.98,0,7.94,0,7.901,0C4.347,0,1.239,2.417,0.3,5.763
		C0.069,6.387-0.033,7.059,0.009,7.736C0,8.289,0.051,8.847,0.161,9.4l2.354,21.531c0.169,1.55,1.078,2.92,2.434,3.671
		c0.305,0.169,7.585,4.142,17.087,4.142c2.678,0,5.281-0.313,7.79-0.931c0.19-0.018,0.38-0.051,0.568-0.118l0.351-0.125
		c0.477-0.133,0.951-0.274,1.421-0.429l5.504,6.634c0.906,1.292,2.365,2.025,3.881,2.025c0.444,0,0.892-0.063,1.333-0.193
		c1.948-0.574,3.32-2.331,3.414-4.374l0.869-33.531C47.203,6.95,47.062,6.209,46.764,5.535z M41.552,41.012l-4.495-5.696
		c1.171-0.477,1.778-1.796,1.353-3.009c-0.437-1.247-1.795-1.901-3.032-1.461l-1.443,0.513l-0.051-0.065
		c-0.309,0.15-0.618,0.278-0.927,0.413l-3.669,1.305c-2.505,0.678-4.952,0.945-7.251,0.945c-6.036,0-11.046-1.837-13.381-2.868
		c-1.069-0.601-1.452-1.61-1.588-2.257L4.857,8.614C4.791,8.356,4.755,8.087,4.761,7.808C4.762,7.758,4.769,7.71,4.772,7.66
		l-0.02-0.222l0.042,0.001c0.218-1.498,1.537-2.65,3.106-2.65c0.022,0,0.044,0,0.066,0.001l31.375,0.149
		c1.516,0.031,2.766,1.127,3.025,2.541l0.054,0.001L41.552,41.012z"/>
</g>
<g id="Layer_1">
</g>
</svg>
