<?xml version="1.0" encoding="utf-8"?>
<!-- Generator: Adobe Illustrator 23.1.0, SVG Export Plug-In . SVG Version: 6.00 Build 0)  -->
<svg version="1.1" id="Layer_1" xmlns="http://www.w3.org/2000/svg" xmlns:xlink="http://www.w3.org/1999/xlink" x="0px" y="0px"
	 viewBox="0 0 1080 1080" style="enable-background:new 0 0 1080 1080;" xml:space="preserve">
<style type="text/css">
	.st0{fill:#1D2B39;}
	.st1{fill:#5F646A;}
	.st2{fill:#EC1C3B;}
	.st3{fill:#FFFFFF;}
</style>
<path class="st0" d="M257.59,490.45c-6.23,0-11.06,1.65-15.89,4.14v46.21c0,1.25-1.02,2.38-2.31,2.38h-10.57
	c-1.25,0-2.31-1.13-2.31-2.38v-60.08c0-1.29,1.06-2.34,2.31-2.34h10c1.25,0,2.31,1.05,2.31,2.34v2.38
	c5.6-4.35,11.82-5.52,16.45-5.52c1.23,0,2.29,1.04,2.29,2.3v8.28C259.88,489.42,258.82,490.45,257.59,490.45 M315.24,516.09h-37.45
	v0.34c0,6.66,2.76,14.58,13.79,14.58c8.39,0,16.31-0.67,21.12-1.14h0.35c1.16,0,2.07,0.61,2.07,1.74v7.55c0,1.83-0.34,2.67-2.43,3
	c-7.43,1.36-11.95,1.97-22.28,1.97c-11.49,0-27.83-6.22-27.83-28.87v-8.49c0-17.95,10-29.2,27.6-29.2
	c17.69,0,27.37,12.08,27.37,29.2v6.43C317.56,515.05,316.87,516.09,315.24,516.09 M302.26,504.8c0-8.95-4.96-14.12-12.07-14.12
	c-7.11,0-12.29,5.04-12.29,14.12v0.5h24.35V504.8z M370.32,543.18h-9.81c-1.23,0-2.29-1.02-2.29-2.28v-1.84
	c-5.27,3.21-10.67,5.07-16.19,5.07c-9.52,0-19.87-3.7-19.87-19.21v-0.46c0-13.08,8.03-19.89,28.04-19.89h7.23v-5.03
	c0-7.46-3.34-9.31-10.1-9.31c-7.36,0-14.94,0.44-18.74,0.92h-0.58c-1.16,0-2.07-0.37-2.07-1.98v-7.35c0-1.26,0.7-2.05,2.19-2.4
	c4.58-0.93,11.23-1.85,19.19-1.85c16.31,0,25.27,7.24,25.27,21.97v41.36C372.59,542.17,371.55,543.18,370.32,543.18 M357.42,514.71
	h-7.23c-10.47,0-12.75,3.34-12.75,9.76v0.46c0,5.65,2.52,7.13,8.26,7.13c4.13,0,8.38-1.37,11.72-3.22V514.71z M393.58,543.18h-10.66
	c-1.28,0-2.32-1.13-2.32-2.38v-82.74c0-1.27,1.04-2.28,2.32-2.28h10.66c1.27,0,2.19,1,2.19,2.28v82.74
	C395.77,542.05,394.84,543.18,393.58,543.18 M455.39,516.09h-37.48v0.34c0,6.66,2.74,14.58,13.79,14.58
	c8.39,0,16.29-0.67,21.13-1.14h0.35c1.13,0,2.06,0.61,2.06,1.74v7.55c0,1.83-0.34,2.67-2.42,3c-7.46,1.36-11.95,1.97-22.3,1.97
	c-11.46,0-27.79-6.22-27.79-28.87v-8.49c0-17.95,10.01-29.2,27.55-29.2c17.7,0,27.38,12.08,27.38,29.2v6.43
	C457.68,515.05,456.96,516.09,455.39,516.09 M442.38,504.8c0-8.95-4.92-14.12-12.08-14.12c-7.1,0-12.26,5.04-12.26,14.12v0.5h24.34
	V504.8z M486.43,544.14c-4.51,0-14.17-0.62-20.61-2.3c-1.38-0.36-2.17-1.3-2.17-2.67v-6.87c0-0.93,0.79-1.82,1.94-1.82h0.46
	c5.53,0.64,15.86,1.22,19.29,1.22c7.16,0,8.18-2.4,8.18-5.5c0-2.18-1.37-3.55-5.04-5.89l-15.75-9.63
	c-5.64-3.44-9.68-9.18-9.68-15.86c0-11.48,7.27-17.24,21.87-17.24c9.28,0,14.59,1.04,20.45,2.3c1.34,0.36,2.05,1.27,2.05,2.65v6.64
	c0,1.42-0.71,2.2-1.82,2.2h-0.46c-3.23-0.46-12.45-1.38-18.99-1.38c-5.51,0-7.91,1.27-7.91,4.83c0,1.86,1.72,2.99,4.58,4.73
	l15.07,9.19c9.65,5.86,11.03,11.57,11.03,17.46C508.92,536.18,501.45,544.14,486.43,544.14 M550.29,543.32
	c-2.73,0.48-5.31,0.81-7.81,0.81c-12.99,0-18.25-2.9-18.25-18.27v-36.09l-10.83-1.62c-1.26-0.22-2.27-1.04-2.27-2.31v-5.14
	c0-1.29,1.01-2.34,2.27-2.34h10.83v-15.2c0-1.27,1.02-2.06,2.27-2.29l10.69-1.83h0.48c1.02,0,1.84,0.57,1.84,1.73v17.6h10.34
	c1.25,0,2.31,1.05,2.31,2.34v6.77c0,1.25-1.06,2.3-2.31,2.3H539.5v36.09c0,5.74,0.33,6.42,4.47,6.42h6.1c1.49,0,2.4,0.57,2.4,1.72
	v7.23C552.47,542.4,551.82,543.08,550.29,543.32 M604.41,543.18h-9.75c-1.27,0-2.31-1.02-2.31-2.28v-1.84
	c-5.29,3.21-10.68,5.07-16.2,5.07c-9.54,0-19.87-3.7-19.87-19.21v-0.46c0-13.08,8.03-19.89,28.01-19.89h7.28v-5.03
	c0-7.46-3.35-9.31-10.13-9.31c-7.35,0-14.92,0.44-18.71,0.92h-0.58c-1.17,0-2.09-0.37-2.09-1.98v-7.35c0-1.26,0.7-2.05,2.19-2.4
	c4.59-0.93,11.26-1.85,19.19-1.85c16.33,0,25.28,7.24,25.28,21.97v41.36C606.72,542.17,605.68,543.18,604.41,543.18 M591.57,514.71
	h-7.28c-10.45,0-12.72,3.34-12.72,9.76v0.46c0,5.65,2.52,7.13,8.28,7.13c4.13,0,8.37-1.37,11.72-3.22V514.71z M647.74,543.32
	c-2.77,0.48-5.28,0.81-7.81,0.81c-12.98,0-18.29-2.9-18.29-18.27v-36.09l-10.78-1.62c-1.27-0.22-2.3-1.04-2.3-2.31v-5.14
	c0-1.29,1.03-2.34,2.3-2.34h10.78v-15.2c0-1.27,1.06-2.06,2.32-2.29l10.69-1.83h0.45c1.01,0,1.83,0.57,1.83,1.73v17.6h10.34
	c1.27,0,2.31,1.05,2.31,2.34v6.77c0,1.25-1.04,2.3-2.31,2.3h-10.34v36.09c0,5.74,0.36,6.42,4.48,6.42h6.08
	c1.51,0,2.45,0.57,2.45,1.72v7.23C649.93,542.4,649.21,543.08,647.74,543.32 M706.55,516.09h-37.44v0.34
	c0,6.66,2.77,14.58,13.78,14.58c8.42,0,16.32-0.67,21.15-1.14h0.36c1.13,0,2.06,0.61,2.06,1.74v7.55c0,1.83-0.35,2.67-2.43,3
	c-7.47,1.36-11.95,1.97-22.27,1.97c-11.51,0-27.83-6.22-27.83-28.87v-8.49c0-17.95,10-29.2,27.61-29.2
	c17.66,0,27.33,12.08,27.33,29.2v6.43C708.87,515.05,708.18,516.09,706.55,516.09 M693.58,504.8c0-8.95-4.96-14.12-12.04-14.12
	c-7.12,0-12.31,5.04-12.31,14.12v0.5h24.34V504.8z M725.86,543.18h-10.21c-1.27,0-2.29-1.02-2.29-2.28v-12.98
	c0-1.25,1.02-2.19,2.29-2.19h10.21c1.27,0,2.29,0.94,2.29,2.19v12.98C728.15,542.17,727.13,543.18,725.86,543.18 M773.21,542.62
	c-2.67,0.7-7.84,1.52-14.82,1.52c-14.94,0-26.18-9.2-26.18-27.92V505.5c0-18.72,11.24-27.92,26.18-27.92c6.98,0,12.15,0.8,14.82,1.5
	c1.96,0.46,2.4,1.17,2.4,3v7.47c0,1.13-0.9,1.72-2.07,1.72h-0.33c-4.59-0.59-7.35-0.82-14.82-0.82c-5.41,0-11.04,3.1-11.04,15.06
	v10.71c0,11.93,5.63,15.04,11.04,15.04c7.47,0,10.23-0.24,14.82-0.78h0.33c1.17,0,2.07,0.53,2.07,1.67v7.47
	C775.62,541.48,775.18,542.17,773.21,542.62 M808.61,544.14c-18.02,0-27.46-12.22-27.46-28.63v-9.31c0-16.41,9.43-28.61,27.46-28.61
	c18.04,0,27.43,12.2,27.43,28.61v9.31C836.04,531.91,826.64,544.14,808.61,544.14 M820.91,506.2c0-9.41-4.27-15.52-12.3-15.52
	c-8.06,0-12.29,6.1-12.29,15.52v9.31c0,9.42,4.23,15.51,12.29,15.51c8.03,0,12.3-6.09,12.3-15.51V506.2z M922.85,543.18h-10.59
	c-1.25,0-2.3-1.13-2.3-2.38v-39.06c0-8.86-1.84-11.15-8.28-11.15c-2.17,0-6.55,0.67-10.67,2.83c0.33,2.55,0.46,5.41,0.46,8.31v39.06
	c0,1.25-1.02,2.38-2.3,2.38H878.6c-1.27,0-2.29-1.13-2.29-2.38v-39.06c0-8.86-1.52-11.15-7.94-11.15c-2.42,0-5.87,1.25-10.57,3.77
	v46.44c0,1.25-1.04,2.38-2.31,2.38h-10.57c-1.28,0-2.3-1.13-2.3-2.38v-60.08c0-1.29,1.01-2.34,2.3-2.34h10.02
	c1.25,0,2.29,1.05,2.29,2.34v2.38c4.82-3.1,9.65-5.52,16.43-5.52c6.56,0,10.8,1.96,13.45,5.17c5.84-3.21,11.01-5.17,18.94-5.17
	c15.61,0,19.08,10.7,19.08,24.16v39.06C925.12,542.05,924.1,543.18,922.85,543.18 M944.2,543.18h-10.22c-1.28,0-2.32-1.02-2.32-2.28
	v-12.98c0-1.25,1.04-2.19,2.32-2.19h10.22c1.25,0,2.31,0.94,2.31,2.19v12.98C946.51,542.17,945.44,543.18,944.2,543.18
	 M1000.07,543.18h-9.79c-1.26,0-2.27-1.02-2.27-2.28v-1.84c-5.3,3.21-10.7,5.07-16.21,5.07c-9.55,0-19.88-3.7-19.88-19.21v-0.46
	c0-13.08,8.03-19.89,28.05-19.89h7.22v-5.03c0-7.46-3.31-9.31-10.1-9.31c-7.39,0-14.94,0.44-18.76,0.92h-0.54
	c-1.16,0-2.08-0.37-2.08-1.98v-7.35c0-1.26,0.69-2.05,2.18-2.4c4.61-0.93,11.27-1.85,19.2-1.85c16.29,0,25.27,7.24,25.27,21.97
	v41.36C1002.36,542.17,1001.32,543.18,1000.07,543.18 M987.19,514.71h-7.22c-10.47,0-12.77,3.34-12.77,9.76v0.46
	c0,5.65,2.5,7.13,8.24,7.13c4.19,0,8.43-1.37,11.75-3.22V514.71z M1060.71,543.18h-10.6c-1.24,0-2.27-1.02-2.27-2.28v-2.65
	c-5.98,3.91-10.72,5.74-18.04,5.74c-5.76,0-10.82-1.48-14.16-4.83c-4.24-4.23-5.72-11.36-5.72-20.89v-37.46
	c0-1.27,1.02-2.44,2.29-2.44h10.56c1.27,0,2.31,1.17,2.31,2.44v37.46c0,5.74,0.45,9.05,2.64,11.03c1.6,1.38,3.59,2.06,7.15,2.06
	c4.23,0,9.74-2.84,12.98-4.58v-45.97c0-1.27,1.02-2.44,2.27-2.44h10.6c1.26,0,2.29,1.17,2.29,2.44v60.09
	C1063,542.17,1061.98,543.18,1060.71,543.18"/>
<path class="st1" d="M244.52,572.72c0,0-0.95,3.76-1.65,5.88l-4.65,13.16h12.58l-4.58-13.16c-0.7-2.12-1.59-5.88-1.59-5.88H244.52z
	 M252.33,596.56H236.7l-4.1,11.92h-5.98l14.9-41.46h6.11l14.9,41.46h-6.04L252.33,596.56z"/>
<path class="st1" d="M265.91,578.78h5.69v17.73c0,4.11,0.83,7.4,5.59,7.4c6.04,0,9.63-5.34,9.63-11.21v-13.91h5.69v29.71h-5.52
	v-3.94c0-1.22,0.13-2.15,0.13-2.15h-0.13c-1.22,2.92-5.11,6.81-10.93,6.81c-6.68,0-10.15-3.52-10.15-11.39V578.78z"/>
<path class="st1" d="M300.63,600.8c0,0,3.35,3.45,8.51,3.45c2.46,0,4.94-1.28,4.94-3.7c0-5.46-15.27-4.34-15.27-14.03
	c0-5.4,4.82-8.46,10.75-8.46c6.51,0,9.57,3.29,9.57,3.29l-2.3,4.29c0,0-2.64-2.65-7.34-2.65c-2.46,0-4.88,1.06-4.88,3.64
	c0,5.35,15.28,4.16,15.28,13.91c0,4.94-4.24,8.64-10.76,8.64c-7.29,0-11.27-4.34-11.27-4.34L300.63,600.8z"/>
<path class="st1" d="M326.65,583.77h-3.87v-4.59h4.06v-8.56h5.52v8.56h7.16v4.59h-7.16v13.2c0,5.94,4.16,6.7,6.34,6.7
	c0.82,0,1.34-0.12,1.34-0.12v5.06c0,0-0.82,0.11-1.99,0.11c-3.81,0-11.4-1.18-11.4-11.11V583.77z"/>
<path class="st1" d="M345.28,578.78h5.52v5.17c0,1.22-0.12,2.23-0.12,2.23h0.12c1.35-4.34,4.82-7.74,9.4-7.74
	c0.77,0,1.47,0.1,1.47,0.1v5.63c0,0-0.76-0.16-1.64-0.16c-3.65,0-6.99,2.58-8.34,6.99c-0.52,1.7-0.7,3.52-0.7,5.34v12.16h-5.71
	V578.78z"/>
<path class="st1" d="M375.05,604.61c4.82,0,7.93-5.05,7.93-9.45v-0.94h-1.47c-4.28,0-12.03,0.28-12.03,5.63
	C369.48,602.26,371.37,604.61,375.05,604.61 M381.63,589.93h1.3v-0.53c0-4.88-2.77-6.52-6.51-6.52c-4.58,0-8.29,2.88-8.29,2.88
	l-2.34-4.18c0,0,4.28-3.52,11.1-3.52c7.51,0,11.73,4.12,11.73,11.63v18.79h-5.27v-2.81c0-1.35,0.11-2.36,0.11-2.36h-0.11
	c0,0-2.42,5.88-9.52,5.88c-5.11,0-10.1-3.11-10.1-9.05C363.73,590.34,376.64,589.93,381.63,589.93"/>
<path class="st1" d="M395.63,567.03h5.69v32.35c0,3.58,1.41,4.22,3.17,4.22c0.53,0,1-0.05,1-0.05v5.05c0,0-0.89,0.13-1.88,0.13
	c-3.24,0-7.99-0.89-7.99-8.35V567.03z"/>
<path class="st1" d="M410.38,608.49h5.7v-29.71h-5.7V608.49z M410.31,572.86h5.76v-5.83h-5.76V572.86z"/>
<path class="st1" d="M432.75,604.61c4.82,0,7.92-5.05,7.92-9.45v-0.94h-1.46c-4.3,0-12.05,0.28-12.05,5.63
	C427.17,602.26,429.06,604.61,432.75,604.61 M439.33,589.93h1.28v-0.53c0-4.88-2.75-6.52-6.51-6.52c-4.58,0-8.28,2.88-8.28,2.88
	l-2.35-4.18c0,0,4.27-3.52,11.09-3.52c7.51,0,11.75,4.12,11.75,11.63v18.79h-5.28v-2.81c0-1.35,0.12-2.36,0.12-2.36h-0.12
	c0,0-2.42,5.88-9.52,5.88c-5.09,0-10.09-3.11-10.09-9.05C421.43,590.34,434.34,589.93,439.33,589.93"/>
<path class="st1" d="M467.24,567.03h5.7v32.35c0,3.58,1.41,4.22,3.16,4.22c0.54,0,1-0.05,1-0.05v5.05c0,0-0.88,0.13-1.87,0.13
	c-3.23,0-7.99-0.89-7.99-8.35V567.03z"/>
<path class="st1" d="M481.99,608.49h5.7v-29.71h-5.7V608.49z M481.93,572.86h5.76v-5.83h-5.76V572.86z"/>
<path class="st1" d="M491.4,578.78h6.04l7.22,20.08c0.6,1.63,0.94,4.05,1.01,4.05h0.13c0.04,0,0.47-2.42,1.05-4.05l7.22-20.08h5.98
	l-10.97,29.71h-6.58L491.4,578.78z"/>
<path class="st1" d="M543.61,590.17c-0.18-5.12-3.34-7.58-7.16-7.58c-4.35,0-7.87,2.71-8.68,7.58H543.61z M536.56,578.06
	c8.4,0,12.87,6.23,12.87,13.92c0,0.77-0.18,2.47-0.18,2.47h-21.67c0.29,6.51,4.93,9.81,10.22,9.81c5.11,0,8.8-3.46,8.8-3.46
	l2.34,4.17c0,0-4.4,4.23-11.5,4.23c-9.34,0-15.75-6.76-15.75-15.55C521.7,584.18,528.1,578.06,536.56,578.06"/>
<path class="st1" d="M555.55,600.8c0,0,3.34,3.45,8.51,3.45c2.46,0,4.93-1.28,4.93-3.7c0-5.46-15.27-4.34-15.27-14.03
	c0-5.4,4.82-8.46,10.74-8.46c6.52,0,9.58,3.29,9.58,3.29l-2.29,4.29c0,0-2.64-2.65-7.34-2.65c-2.46,0-4.87,1.06-4.87,3.64
	c0,5.35,15.28,4.16,15.28,13.91c0,4.94-4.23,8.64-10.75,8.64c-7.29,0-11.28-4.34-11.28-4.34L555.55,600.8z"/>
<path class="st1" d="M594.27,567.03h5.69v15.2c0,1.41-0.11,2.47-0.11,2.47h0.11c1.29-2.87,5.05-6.64,10.97-6.64
	c6.99,0,10.24,3.83,10.24,11.4v19.02h-5.7v-17.73c0-4.18-0.89-7.45-5.63-7.45c-4.47,0-8.17,3.04-9.41,7.32
	c-0.35,1.19-0.46,2.53-0.46,3.94v13.92h-5.69V567.03z"/>
<path class="st1" d="M648.37,590.17c-0.19-5.12-3.35-7.58-7.18-7.58c-4.34,0-7.87,2.71-8.67,7.58H648.37z M641.31,578.06
	c8.4,0,12.86,6.23,12.86,13.92c0,0.77-0.18,2.47-0.18,2.47h-21.67c0.29,6.51,4.93,9.81,10.22,9.81c5.11,0,8.82-3.46,8.82-3.46
	l2.33,4.17c0,0-4.4,4.23-11.5,4.23c-9.34,0-15.74-6.76-15.74-15.55C626.47,584.18,632.86,578.06,641.31,578.06"/>
<path class="st1" d="M659.95,578.78h5.52v5.17c0,1.22-0.12,2.23-0.12,2.23h0.12c1.35-4.34,4.82-7.74,9.4-7.74
	c0.76,0,1.47,0.1,1.47,0.1v5.63c0,0-0.77-0.16-1.64-0.16c-3.65,0-7,2.58-8.34,6.99c-0.53,1.7-0.71,3.52-0.71,5.34v12.16h-5.7V578.78
	z"/>
<path class="st1" d="M700.47,590.17c-0.18-5.12-3.33-7.58-7.16-7.58c-4.35,0-7.87,2.71-8.68,7.58H700.47z M693.43,578.06
	c8.4,0,12.86,6.23,12.86,13.92c0,0.77-0.17,2.47-0.17,2.47h-21.67c0.29,6.51,4.93,9.81,10.22,9.81c5.1,0,8.8-3.46,8.8-3.46
	l2.34,4.17c0,0-4.4,4.23-11.5,4.23c-9.34,0-15.75-6.76-15.75-15.55C678.57,584.18,684.97,578.06,693.43,578.06"/>
<path class="st2" d="M12,539.04c-0.3,51.05,40.88,92.66,91.93,92.93c51.04,0.29,92.64-40.88,92.9-91.93
	c0.28-51.04-40.88-92.63-91.91-92.89h-0.53C53.59,447.14,12.28,488.19,12,539.04"/>
<path class="st3" d="M165.03,526.86v-0.01l-54.9-54.69c-1.42-1.53-3.44-2.48-5.7-2.48h-0.01c-2.24,0-4.27,0.95-5.68,2.48
	l-54.93,54.69l0.01,0.01c-2.12,2.15-3.44,5.07-3.44,8.33c0,6.53,5.3,11.85,11.82,11.86l7.55-0.01c0,0-0.01,41.52-0.01,41.6
	c0,4.29,3.45,7.76,7.72,7.79h73.92c4.27-0.04,7.71-3.5,7.71-7.79c0-0.08-0.01-41.6-0.01-41.6l7.56,0.01
	c6.52-0.01,11.81-5.32,11.81-11.86C168.46,531.93,167.15,529.01,165.03,526.86 M134.59,532.78v49.17H74.25v-49.17H58.39l46.04-45.82
	l46.05,45.82H134.59z"/>
</svg>
