<?xml version="1.0" encoding="iso-8859-1"?>
<!-- Generator: Adobe Illustrator 18.1.1, SVG Export Plug-In . SVG Version: 6.00 Build 0)  -->
<!DOCTYPE svg PUBLIC "-//W3C//DTD SVG 1.1//EN" "http://www.w3.org/Graphics/SVG/1.1/DTD/svg11.dtd">
<svg version="1.1" xmlns="http://www.w3.org/2000/svg" xmlns:xlink="http://www.w3.org/1999/xlink" x="0px" y="0px"
	 viewBox="0 0 19.989 19.982" style="enable-background:new 0 0 19.989 19.982;" xml:space="preserve">
<g id="clock">
	<g id="XMLID_614_">
		<g>
			<path style="fill:#231F20;" d="M11.071-1.513c-5.511,0-9.995,4.481-9.995,9.991c0,5.509,4.484,9.992,9.995,9.992
				c5.511,0,9.994-4.482,9.994-9.992C21.065,2.968,16.582-1.513,11.071-1.513z M11.071,16.457c-4.401,0-7.982-3.58-7.982-7.979
				c0-4.399,3.581-7.978,7.982-7.978c4.4,0,7.981,3.579,7.981,7.978C19.052,12.877,15.472,16.457,11.071,16.457z M14.871,9.736
				L12.078,7.93l-0.001-4.994c0-0.556-0.451-1.006-1.006-1.006c-0.556,0-1.007,0.451-1.007,1.006l0.001,5.542
				c0,0.342,0.173,0.659,0.46,0.845l3.253,2.104c0.169,0.109,0.358,0.161,0.545,0.161c0.33,0,0.654-0.162,0.846-0.46
				C15.472,10.661,15.338,10.038,14.871,9.736z"/>
		</g>
	</g>
</g>
<g id="Layer_1">
</g>
</svg>
